Italic_opsz5.ufo
<glyph name="comma" format="2">
	<unicode hex="002C"/>
	<advance width="916"/>
	<outline>
		<contour>
			<point x="302.3772635713" y="122" type="curve" smooth="yes"/>
			<point x="302.3772635713" y="58"/>
			<point x="348.3772635713" y="0"/>
			<point x="424.3772635713" y="0" type="curve" smooth="yes"/>
			<point x="454.3772635713" y="0"/>
			<point x="484.3772635713" y="8"/>
			<point x="506.3772635713" y="28" type="curve"/>
			<point x="506.3772635713" y="28"/>
			<point x="506.3772635713" y="28"/>
			<point x="506.3772635713" y="28" type="curve"/>
			<point x="506.3772635713" y="28"/>
			<point x="506.3772635713" y="28"/>
			<point x="506.3772635713" y="28" type="curve"/>
			<point x="506.3772635713" y="-164"/>
			<point x="402.3772635713" y="-274"/>
			<point x="348.3772635713" y="-318" type="curve" smooth="yes"/>
			<point x="328.3772635713" y="-334"/>
			<point x="324.3772635713" y="-338"/>
			<point x="324.3772635713" y="-352" type="curve" smooth="yes"/>
			<point x="324.3772635713" y="-364"/>
			<point x="342.3772635713" y="-388"/>
			<point x="360.3772635713" y="-388" type="curve" smooth="yes"/>
			<point x="386.3772635713" y="-388"/>
			<point x="574.3772635713" y="-232"/>
			<point x="574.3772635713" y="18" type="curve" smooth="yes"/>
			<point x="574.3772635713" y="154"/>
			<point x="514.3772635713" y="244"/>
			<point x="424.3772635713" y="244" type="curve" smooth="yes"/>
			<point x="348.3772635713" y="244"/>
			<point x="302.3772635713" y="184"/>
		</contour>
	</outline>
</glyph>
<glyph name="period" format="2">
  <advance width="458"/>
  <unicode hex="002E"/>
  <outline>
    <contour>
      <point x="290" y="61" type="curve" smooth="yes"/>
      <point x="290" y="94"/>
      <point x="262" y="122"/>
      <point x="229" y="122" type="curve" smooth="yes"/>
      <point x="196" y="122"/>
      <point x="168" y="94"/>
      <point x="168" y="61" type="curve" smooth="yes"/>
      <point x="168" y="28"/>
      <point x="196" y="0"/>
      <point x="229" y="0" type="curve" smooth="yes"/>
      <point x="262" y="0"/>
      <point x="290" y="28"/>
    </contour>
  </outline>
</glyph>
<glyph name="slash" format="2">
	<unicode hex="002F"/>
	<advance width="1472"/>
	<outline>
		<contour>
			<point x="1174.3772635713" y="1400" type="line" smooth="yes"/>
			<point x="1188.3772635713" y="1430"/>
			<point x="1188.3772635713" y="1438"/>
			<point x="1188.3772635713" y="1444" type="curve" smooth="yes"/>
			<point x="1188.3772635713" y="1474"/>
			<point x="1162.3772635713" y="1500"/>
			<point x="1132.3772635713" y="1500" type="curve" smooth="yes"/>
			<point x="1100.3772635713" y="1500"/>
			<point x="1084.3772635713" y="1478"/>
			<point x="1072.3772635713" y="1450" type="curve" smooth="yes"/>
			<point x="230.3772635713" y="-400" type="line" smooth="yes"/>
			<point x="216.3772635713" y="-430"/>
			<point x="216.3772635713" y="-438"/>
			<point x="216.3772635713" y="-444" type="curve" smooth="yes"/>
			<point x="216.3772635713" y="-474"/>
			<point x="242.3772635713" y="-500"/>
			<point x="272.3772635713" y="-500" type="curve" smooth="yes"/>
			<point x="304.3772635713" y="-500"/>
			<point x="320.3772635713" y="-478"/>
			<point x="332.3772635713" y="-450" type="curve" smooth="yes"/>
		</contour>
	</outline>
</glyph>
<glyph name="zero" format="2">
  <advance width="736"/>
  <unicode hex="0030"/>
  <outline>
    <contour>
      <point x="665.1886317856258" y="213.0" type="curve" smooth="yes"/>
      <point x="665.1886317856258" y="388.0"/>
      <point x="558.1886317856258" y="453.0"/>
      <point x="405.18863178562583" y="453.0" type="curve" smooth="yes"/>
      <point x="247.18863178562583" y="453.0"/>
      <point x="145.18863178562583" y="383.0"/>
      <point x="145.18863178562583" y="213.0" type="curve" smooth="yes"/>
      <point x="145.18863178562583" y="45.0"/>
      <point x="247.18863178562583" y="-22.0"/>
      <point x="405.18863178562583" y="-22.0" type="curve" smooth="yes"/>
      <point x="567.1886317856258" y="-22.0"/>
      <point x="665.1886317856258" y="49.0"/>
    </contour>
    <contour>
      <point x="405.18863178562583" y="12.0" type="curve" smooth="yes"/>
      <point x="342.96213178562584" y="12.0"/>
      <point x="304.48740953562583" y="26.0419315"/>
      <point x="280.6998754145259" y="49.968785247" type="curve" smooth="yes"/>
      <point x="242.94139628562584" y="87.9484095"/>
      <point x="242.18863178562583" y="150.834"/>
      <point x="242.18863178562583" y="222.0" type="curve" smooth="yes"/>
      <point x="242.18863178562583" y="290.0"/>
      <point x="242.18863178562583" y="351.9968"/>
      <point x="284.9181037856258" y="387.413888" type="curve" smooth="yes"/>
      <point x="308.95343178562587" y="407.336"/>
      <point x="346.5086317856259" y="419.0"/>
      <point x="405.18863178562583" y="419.0" type="curve" smooth="yes"/>
      <point x="462.2386317856258" y="419.0"/>
      <point x="499.3211317856259" y="407.975"/>
      <point x="523.4247567856258" y="389.054875" type="curve" smooth="yes"/>
      <point x="568.1886317856258" y="353.9175"/>
      <point x="568.1886317856258" y="292.0"/>
      <point x="568.1886317856258" y="222.0" type="curve" smooth="yes"/>
      <point x="568.1886317856258" y="150.834"/>
      <point x="567.4358672856258" y="87.9484095"/>
      <point x="529.6773881568258" y="49.968785247" type="curve" smooth="yes"/>
      <point x="505.88985403562583" y="26.0419315"/>
      <point x="467.18863178562583" y="12.0"/>
    </contour>
  </outline>
</glyph>
<glyph name="one" format="2">
  <advance width="736"/>
  <unicode hex="0031"/>
  <outline>
    <contour>
      <point x="373.18863178562583" y="379.0" type="curve"/>
      <point x="373.18863178562583" y="88.0" type="line" smooth="yes"/>
      <point x="373.18863178562583" y="58.0"/>
      <point x="371.18863178562583" y="51.0"/>
      <point x="341.18863178562583" y="48.0" type="curve" smooth="yes"/>
      <point x="311.18863178562583" y="45.0"/>
      <point x="287.18863178562583" y="45.0"/>
      <point x="250.18863178562583" y="45.0" type="curve" smooth="yes"/>
      <point x="228.18863178562583" y="45.0"/>
      <point x="217.18863178562583" y="45.0"/>
      <point x="217.18863178562583" y="22.0" type="curve" smooth="yes"/>
      <point x="217.18863178562583" y="8.0"/>
      <point x="222.18863178562583" y="0.0"/>
      <point x="238.18863178562583" y="0.0" type="curve" smooth="yes"/>
      <point x="266.18863178562583" y="0.0"/>
      <point x="297.18863178562583" y="3.0"/>
      <point x="326.18863178562583" y="3.0" type="curve" smooth="yes"/>
      <point x="386.18863178562583" y="4.0"/>
      <point x="447.18863178562583" y="4.0"/>
      <point x="493.18863178562583" y="3.0" type="curve" smooth="yes"/>
      <point x="536.1886317856258" y="3.0"/>
      <point x="568.1886317856258" y="0.0"/>
      <point x="597.1886317856258" y="0.0" type="curve" smooth="yes"/>
      <point x="613.1886317856258" y="0.0"/>
      <point x="618.1886317856258" y="8.0"/>
      <point x="618.1886317856258" y="22.0" type="curve" smooth="yes"/>
      <point x="618.1886317856258" y="45.0"/>
      <point x="607.1886317856258" y="45.0"/>
      <point x="585.1886317856258" y="45.0" type="curve" smooth="yes"/>
      <point x="543.1886317856258" y="45.0"/>
      <point x="518.1886317856258" y="46.0"/>
      <point x="497.18863178562583" y="48.0" type="curve" smooth="yes"/>
      <point x="462.18863178562583" y="52.0"/>
      <point x="462.18863178562583" y="58.0"/>
      <point x="462.18863178562583" y="88.0" type="curve" smooth="yes"/>
      <point x="462.18863178562583" y="420.0" type="line" smooth="yes"/>
      <point x="462.18863178562583" y="440.0"/>
      <point x="462.18863178562583" y="453.0"/>
      <point x="444.18863178562583" y="453.0" type="curve" smooth="yes"/>
      <point x="441.18863178562583" y="453.0"/>
      <point x="439.18863178562583" y="453.0"/>
      <point x="427.18863178562583" y="446.0" type="curve" smooth="yes"/>
      <point x="410.18863178562583" y="437.0"/>
      <point x="359.18863178562583" y="410.0"/>
      <point x="249.18863178562583" y="410.0" type="curve" smooth="yes"/>
      <point x="219.18863178562583" y="410.0"/>
      <point x="210.18863178562583" y="410.0"/>
      <point x="210.18863178562583" y="387.0" type="curve" smooth="yes"/>
      <point x="210.18863178562583" y="365.0"/>
      <point x="219.18863178562583" y="365.0"/>
      <point x="246.18863178562583" y="365.0" type="curve" smooth="yes"/>
      <point x="257.18863178562583" y="365.0"/>
      <point x="320.18863178562583" y="365.0"/>
    </contour>
  </outline>
</glyph>
<glyph name="two" format="2">
	<unicode hex="0032"/>
	<advance width="1472"/>
	<outline>
		<contour>
			<point x="254.3772635713" y="0" type="curve" smooth="yes"/>
			<point x="1072.3772635713" y="0" type="line" smooth="yes"/>
			<point x="1108.3772635713" y="0"/>
			<point x="1120.3772635713" y="0"/>
			<point x="1130.3772635713" y="14" type="curve" smooth="yes"/>
			<point x="1138.3772635713" y="26"/>
			<point x="1202.3772635713" y="260"/>
			<point x="1202.3772635713" y="268" type="curve" smooth="yes"/>
			<point x="1202.3772635713" y="302"/>
			<point x="1168.3772635713" y="302"/>
			<point x="1160.3772635713" y="302" type="curve" smooth="yes"/>
			<point x="1128.3772635713" y="302"/>
			<point x="1124.3772635713" y="290"/>
			<point x="1116.3772635713" y="262" type="curve" smooth="yes"/>
			<point x="1090.3772635713" y="178"/>
			<point x="1080.3772635713" y="178"/>
			<point x="1050.3772635713" y="176" type="curve" smooth="yes"/>
			<point x="996.3772635713" y="172"/>
			<point x="992.3772635713" y="172"/>
			<point x="900.3772635713" y="172" type="curve" smooth="yes"/>
			<point x="522.3772635713" y="172" type="line"/>
			<point x="748.3772635713" y="278"/>
			<point x="830.3772635713" y="310"/>
			<point x="878.3772635713" y="326" type="curve" smooth="yes"/>
			<point x="1046.3772635713" y="386"/>
			<point x="1202.3772635713" y="442"/>
			<point x="1202.3772635713" y="614" type="curve" smooth="yes"/>
			<point x="1202.3772635713" y="894"/>
			<point x="820.3772635713" y="906"/>
			<point x="670.3772635713" y="906" type="curve" smooth="yes"/>
			<point x="584.3772635713" y="906"/>
			<point x="216.3772635713" y="906"/>
			<point x="216.3772635713" y="670" type="curve" smooth="yes"/>
			<point x="216.3772635713" y="596"/>
			<point x="274.3772635713" y="574"/>
			<point x="308.3772635713" y="574" type="curve" smooth="yes"/>
			<point x="348.3772635713" y="574"/>
			<point x="398.3772635713" y="604"/>
			<point x="398.3772635713" y="666" type="curve" smooth="yes"/>
			<point x="398.3772635713" y="724"/>
			<point x="352.3772635713" y="746"/>
			<point x="344.3772635713" y="750" type="curve"/>
			<point x="412.3772635713" y="808"/>
			<point x="534.3772635713" y="816"/>
			<point x="610.3772635713" y="816" type="curve" smooth="yes"/>
			<point x="748.3772635713" y="816"/>
			<point x="994.3772635713" y="796"/>
			<point x="994.3772635713" y="612" type="curve" smooth="yes"/>
			<point x="994.3772635713" y="486"/>
			<point x="874.3772635713" y="426"/>
			<point x="724.3772635713" y="350" type="curve" smooth="yes"/>
			<point x="214.3772635713" y="92" type="line" smooth="yes"/>
			<point x="192.3772635713" y="80"/>
			<point x="188.3772635713" y="78"/>
			<point x="188.3772635713" y="46" type="curve" smooth="yes"/>
			<point x="188.3772635713" y="0"/>
			<point x="210.3772635713" y="0"/>
		</contour>
	</outline>
</glyph>
<glyph name="three" format="2">
  <advance width="736"/>
  <unicode hex="0033"/>
  <outline>
    <contour>
      <point x="400.18863178562583" y="-216.0" type="curve" smooth="yes"/>
      <point x="563.1886317856258" y="-216.0"/>
      <point x="665.1886317856258" y="-119.0"/>
      <point x="665.1886317856258" y="-25.0" type="curve" smooth="yes"/>
      <point x="665.1886317856258" y="64.0"/>
      <point x="575.1886317856258" y="127.0"/>
      <point x="480.18863178562583" y="147.0" type="curve"/>
      <point x="594.1886317856258" y="182.0"/>
      <point x="630.1886317856258" y="256.0"/>
      <point x="630.1886317856258" y="312.0" type="curve" smooth="yes"/>
      <point x="630.1886317856258" y="394.0"/>
      <point x="527.1886317856258" y="453.0"/>
      <point x="402.18863178562583" y="453.0" type="curve" smooth="yes"/>
      <point x="274.18863178562583" y="453.0"/>
      <point x="180.18863178562583" y="400.0"/>
      <point x="180.18863178562583" y="315.0" type="curve" smooth="yes"/>
      <point x="180.18863178562583" y="272.0"/>
      <point x="212.18863178562583" y="257.0"/>
      <point x="236.18863178562583" y="257.0" type="curve" smooth="yes"/>
      <point x="264.18863178562583" y="257.0"/>
      <point x="291.18863178562583" y="278.0"/>
      <point x="291.18863178562583" y="313.0" type="curve" smooth="yes"/>
      <point x="291.18863178562583" y="341.0"/>
      <point x="273.18863178562583" y="362.0"/>
      <point x="246.18863178562583" y="368.0" type="curve"/>
      <point x="288.18863178562583" y="411.0"/>
      <point x="376.18863178562583" y="414.0"/>
      <point x="399.18863178562583" y="414.0" type="curve" smooth="yes"/>
      <point x="479.18863178562583" y="414.0"/>
      <point x="527.1886317856258" y="375.0"/>
      <point x="527.1886317856258" y="313.0" type="curve"/>
      <point x="527.1886317856258" y="276.6364"/>
      <point x="512.4788954464258" y="235.8911764096"/>
      <point x="482.7092434107259" y="206.172220952" type="curve" smooth="yes"/>
      <point x="459.26558921922583" y="182.7684904064"/>
      <point x="426.48239178562585" y="166.2028"/>
      <point x="384.18863178562583" y="164.0" type="curve"/>
      <point x="353.18863178562583" y="163.0"/>
      <point x="352.18863178562583" y="162.0"/>
      <point x="323.18863178562583" y="161.0" type="curve" smooth="yes"/>
      <point x="311.18863178562583" y="160.0"/>
      <point x="301.18863178562583" y="158.0"/>
      <point x="301.18863178562583" y="143.0" type="curve" smooth="yes"/>
      <point x="301.18863178562583" y="126.0"/>
      <point x="311.18863178562583" y="126.0"/>
      <point x="331.18863178562583" y="126.0" type="curve" smooth="yes"/>
      <point x="395.18863178562583" y="126.0" type="line" smooth="yes"/>
      <point x="497.18863178562583" y="126.0"/>
      <point x="551.1886317856258" y="63.0"/>
      <point x="551.1886317856258" y="-24.0" type="curve" smooth="yes"/>
      <point x="551.1886317856258" y="-115.0"/>
      <point x="495.18863178562583" y="-174.0"/>
      <point x="396.18863178562583" y="-174.0" type="curve" smooth="yes"/>
      <point x="377.18863178562583" y="-174.0"/>
      <point x="270.18863178562583" y="-174.0"/>
      <point x="216.18863178562583" y="-126.0" type="curve"/>
      <point x="245.18863178562583" y="-120.0"/>
      <point x="265.18863178562583" y="-97.0"/>
      <point x="265.18863178562583" y="-67.0" type="curve" smooth="yes"/>
      <point x="265.18863178562583" y="-27.0"/>
      <point x="234.18863178562583" y="-7.0"/>
      <point x="205.18863178562583" y="-7.0" type="curve" smooth="yes"/>
      <point x="179.18863178562583" y="-7.0"/>
      <point x="145.18863178562583" y="-24.0"/>
      <point x="145.18863178562583" y="-68.0" type="curve" smooth="yes"/>
      <point x="145.18863178562583" y="-169.0"/>
      <point x="259.18863178562583" y="-216.0"/>
    </contour>
  </outline>
</glyph>
<glyph name="four" format="2">
  <advance width="736"/>
  <unicode hex="0034"/>
  <outline>
    <contour>
      <point x="362.18863178562583" y="-194.0" type="curve" smooth="yes"/>
      <point x="386.18863178562583" y="-194.0"/>
      <point x="412.18863178562583" y="-191.0"/>
      <point x="437.18863178562583" y="-191.0" type="curve" smooth="yes"/>
      <point x="461.18863178562583" y="-191.0"/>
      <point x="485.18863178562583" y="-190.0"/>
      <point x="509.18863178562583" y="-190.0" type="curve" smooth="yes"/>
      <point x="535.1886317856258" y="-190.0"/>
      <point x="560.1886317856258" y="-191.0"/>
      <point x="586.1886317856258" y="-191.0" type="curve" smooth="yes"/>
      <point x="609.1886317856258" y="-191.0"/>
      <point x="635.1886317856258" y="-194.0"/>
      <point x="657.1886317856258" y="-194.0" type="curve" smooth="yes"/>
      <point x="677.1886317856258" y="-194.0"/>
      <point x="677.1886317856258" y="-180.0"/>
      <point x="677.1886317856258" y="-172.0" type="curve" smooth="yes"/>
      <point x="677.1886317856258" y="-149.0"/>
      <point x="669.1886317856258" y="-149.0"/>
      <point x="642.1886317856258" y="-149.0" type="curve" smooth="yes"/>
      <point x="641.1886317856258" y="-149.0"/>
      <point x="597.1886317856258" y="-149.0"/>
      <point x="576.1886317856258" y="-145.0" type="curve" smooth="yes"/>
      <point x="556.1886317856258" y="-142.0"/>
      <point x="556.1886317856258" y="-135.0"/>
      <point x="556.1886317856258" y="-108.0" type="curve" smooth="yes"/>
      <point x="556.1886317856258" y="0.0" type="line"/>
      <point x="650.1886317856258" y="0.0" type="line" smooth="yes"/>
      <point x="672.1886317856258" y="0.0"/>
      <point x="682.1886317856258" y="0.0"/>
      <point x="682.1886317856258" y="22.0" type="curve" smooth="yes"/>
      <point x="682.1886317856258" y="45.0"/>
      <point x="673.1886317856258" y="45.0"/>
      <point x="650.1886317856258" y="45.0" type="curve" smooth="yes"/>
      <point x="556.1886317856258" y="45.0" type="line"/>
      <point x="556.1886317856258" y="432.0" type="line" smooth="yes"/>
      <point x="556.1886317856258" y="458.0"/>
      <point x="556.1886317856258" y="464.0"/>
      <point x="528.1886317856258" y="464.0" type="curve" smooth="yes"/>
      <point x="509.18863178562583" y="464.0"/>
      <point x="506.18863178562583" y="464.0"/>
      <point x="492.18863178562583" y="449.0" type="curve" smooth="yes"/>
      <point x="138.18863178562583" y="57.0" type="line" smooth="yes"/>
      <point x="128.18863178562583" y="46.0"/>
      <point x="128.18863178562583" y="43.0"/>
      <point x="128.18863178562583" y="28.0" type="curve" smooth="yes"/>
      <point x="128.18863178562583" y="0.0"/>
      <point x="135.18863178562583" y="0.0"/>
      <point x="161.18863178562583" y="0.0" type="curve" smooth="yes"/>
      <point x="463.18863178562583" y="0.0" type="line"/>
      <point x="463.18863178562583" y="-108.0" type="line" smooth="yes"/>
      <point x="463.18863178562583" y="-134.0"/>
      <point x="463.18863178562583" y="-141.0"/>
      <point x="445.18863178562583" y="-145.0" type="curve" smooth="yes"/>
      <point x="425.18863178562583" y="-149.0"/>
      <point x="399.18863178562583" y="-149.0"/>
      <point x="379.18863178562583" y="-149.0" type="curve" smooth="yes"/>
      <point x="350.18863178562583" y="-149.0"/>
      <point x="342.18863178562583" y="-149.0"/>
      <point x="342.18863178562583" y="-172.0" type="curve" smooth="yes"/>
      <point x="342.18863178562583" y="-180.0"/>
      <point x="342.18863178562583" y="-194.0"/>
    </contour>
    <contour>
      <point x="471.18863178562583" y="45.0" type="line"/>
      <point x="178.18863178562583" y="45.0" type="line"/>
      <point x="471.18863178562583" y="370.0" type="line"/>
    </contour>
  </outline>
</glyph>
<glyph name="five" format="2">
	<unicode hex="0035"/>
	<advance width="1472"/>
	<outline>
		<contour>
			<point x="660.3772635713" y="-432" type="curve" smooth="yes"/>
			<point x="966.3772635713" y="-432"/>
			<point x="1202.3772635713" y="-230"/>
			<point x="1202.3772635713" y="2" type="curve" smooth="yes"/>
			<point x="1202.3772635713" y="224"/>
			<point x="1006.3772635713" y="428"/>
			<point x="730.3772635713" y="428" type="curve" smooth="yes"/>
			<point x="612.3772635713" y="428"/>
			<point x="506.3772635713" y="400"/>
			<point x="414.3772635713" y="332" type="curve"/>
			<point x="414.3772635713" y="680" type="line"/>
			<point x="516.3772635713" y="658"/>
			<point x="604.3772635713" y="656"/>
			<point x="634.3772635713" y="656" type="curve" smooth="yes"/>
			<point x="742.3772635713" y="656"/>
			<point x="900.3772635713" y="682"/>
			<point x="1050.3772635713" y="806" type="curve" smooth="yes"/>
			<point x="1104.3772635713" y="850"/>
			<point x="1104.3772635713" y="856"/>
			<point x="1104.3772635713" y="872" type="curve" smooth="yes"/>
			<point x="1104.3772635713" y="902"/>
			<point x="1082.3772635713" y="906"/>
			<point x="1076.3772635713" y="906" type="curve" smooth="yes"/>
			<point x="1074.3772635713" y="906"/>
			<point x="1070.3772635713" y="906"/>
			<point x="1058.3772635713" y="900" type="curve"/>
			<point x="960.3772635713" y="868"/>
			<point x="848.3772635713" y="844"/>
			<point x="714.3772635713" y="844" type="curve" smooth="yes"/>
			<point x="594.3772635713" y="844"/>
			<point x="472.3772635713" y="866"/>
			<point x="376.3772635713" y="898" type="curve"/>
			<point x="360.3772635713" y="906"/>
			<point x="356.3772635713" y="906"/>
			<point x="354.3772635713" y="906" type="curve" smooth="yes"/>
			<point x="324.3772635713" y="906"/>
			<point x="324.3772635713" y="882"/>
			<point x="324.3772635713" y="844" type="curve" smooth="yes"/>
			<point x="324.3772635713" y="272" type="line" smooth="yes"/>
			<point x="324.3772635713" y="232"/>
			<point x="324.3772635713" y="206"/>
			<point x="364.3772635713" y="206" type="curve" smooth="yes"/>
			<point x="386.3772635713" y="206"/>
			<point x="388.3772635713" y="210"/>
			<point x="406.3772635713" y="232" type="curve" smooth="yes"/>
			<point x="496.3772635713" y="336"/>
			<point x="628.3772635713" y="360"/>
			<point x="726.3772635713" y="360" type="curve" smooth="yes"/>
			<point x="864.3772635713" y="360"/>
			<point x="926.3772635713" y="272"/>
			<point x="936.3772635713" y="258" type="curve" smooth="yes"/>
			<point x="972.3772635713" y="208"/>
			<point x="996.3772635713" y="142"/>
			<point x="996.3772635713" y="10" type="curve" smooth="yes"/>
			<point x="996.3772635713" y="-74"/>
			<point x="986.3772635713" y="-178"/>
			<point x="910.3772635713" y="-254" type="curve" smooth="yes"/>
			<point x="840.3772635713" y="-322"/>
			<point x="746.3772635713" y="-348"/>
			<point x="656.3772635713" y="-348" type="curve" smooth="yes"/>
			<point x="566.3772635713" y="-348"/>
			<point x="394.3772635713" y="-320"/>
			<point x="314.3772635713" y="-184" type="curve"/>
			<point x="398.3772635713" y="-178"/>
			<point x="420.3772635713" y="-110"/>
			<point x="420.3772635713" y="-74" type="curve" smooth="yes"/>
			<point x="420.3772635713" y="-18"/>
			<point x="376.3772635713" y="34"/>
			<point x="310.3772635713" y="34" type="curve" smooth="yes"/>
			<point x="266.3772635713" y="34"/>
			<point x="202.3772635713" y="4"/>
			<point x="202.3772635713" y="-80" type="curve" smooth="yes"/>
			<point x="202.3772635713" y="-272"/>
			<point x="398.3772635713" y="-432"/>
		</contour>
	</outline>
</glyph>
<glyph name="six" format="2">
	<unicode hex="0036"/>
	<advance width="1472"/>
	<outline>
		<contour>
			<point x="388.3772635713" y="654" type="curve"/>
			<point x="390.3772635713" y="794"/>
			<point x="400.3772635713" y="960"/>
			<point x="504.3772635713" y="1094" type="curve" smooth="yes"/>
			<point x="560.3772635713" y="1162"/>
			<point x="674.3772635713" y="1254"/>
			<point x="844.3772635713" y="1254" type="curve" smooth="yes"/>
			<point x="888.3772635713" y="1254"/>
			<point x="978.3772635713" y="1250"/>
			<point x="1034.3772635713" y="1200" type="curve"/>
			<point x="980.3772635713" y="1188"/>
			<point x="954.3772635713" y="1146"/>
			<point x="954.3772635713" y="1100" type="curve" smooth="yes"/>
			<point x="954.3772635713" y="1044"/>
			<point x="996.3772635713" y="998"/>
			<point x="1056.3772635713" y="998" type="curve" smooth="yes"/>
			<point x="1116.3772635713" y="998"/>
			<point x="1160.3772635713" y="1040"/>
			<point x="1160.3772635713" y="1104" type="curve" smooth="yes"/>
			<point x="1160.3772635713" y="1220"/>
			<point x="1074.3772635713" y="1332"/>
			<point x="842.3772635713" y="1332" type="curve" smooth="yes"/>
			<point x="500.3772635713" y="1332"/>
			<point x="182.3772635713" y="1052"/>
			<point x="182.3772635713" y="634" type="curve" smooth="yes"/>
			<point x="182.3772635713" y="172"/>
			<point x="406.3772635713" y="-44"/>
			<point x="708.3772635713" y="-44" type="curve" smooth="yes"/>
			<point x="868.3772635713" y="-44"/>
			<point x="974.3772635713" y="4"/>
			<point x="1074.3772635713" y="92" type="curve" smooth="yes"/>
			<point x="1174.3772635713" y="182"/>
			<point x="1222.3772635713" y="276"/>
			<point x="1222.3772635713" y="410" type="curve" smooth="yes"/>
			<point x="1222.3772635713" y="548"/>
			<point x="1174.3772635713" y="636"/>
			<point x="1082.3772635713" y="722" type="curve" smooth="yes"/>
			<point x="966.3772635713" y="830"/>
			<point x="844.3772635713" y="856"/>
			<point x="734.3772635713" y="856" type="curve" smooth="yes"/>
			<point x="572.3772635713" y="856"/>
			<point x="460.3772635713" y="774"/>
		</contour>
		<contour>
			<point x="708.3772635713" y="40" type="curve" smooth="yes"/>
			<point x="578.3772635713" y="40"/>
			<point x="498.3772635713" y="104"/>
			<point x="456.3772635713" y="172" type="curve" smooth="yes"/>
			<point x="400.3772635713" y="258"/>
			<point x="394.3772635713" y="406"/>
			<point x="394.3772635713" y="456" type="curve" smooth="yes"/>
			<point x="394.3772635713" y="620"/>
			<point x="518.3772635713" y="788"/>
			<point x="720.3772635713" y="788" type="curve" smooth="yes"/>
			<point x="806.3772635713" y="788"/>
			<point x="884.3772635713" y="764"/>
			<point x="944.3772635713" y="692" type="curve" smooth="yes"/>
			<point x="1010.3772635713" y="614"/>
			<point x="1016.3772635713" y="556"/>
			<point x="1016.3772635713" y="412" type="curve" smooth="yes"/>
			<point x="1016.3772635713" y="274"/>
			<point x="1012.3772635713" y="216"/>
			<point x="946.3772635713" y="138" type="curve" smooth="yes"/>
			<point x="874.3772635713" y="52"/>
			<point x="778.3772635713" y="40"/>
		</contour>
	</outline>
</glyph>
<glyph name="seven" format="2">
	<unicode hex="0037"/>
	<advance width="1472"/>
	<outline>
		<contour>
			<point x="570" y="-432" type="curve" smooth="yes"/>
			<point x="674" y="-432"/>
			<point x="674" y="-336"/>
			<point x="674" y="-308" type="curve"/>
			<point x="674" y="-308" type="line"/>
			<point x="676" y="-108"/>
			<point x="696" y="34"/>
			<point x="728" y="142" type="curve" smooth="yes"/>
			<point x="774" y="294"/>
			<point x="842" y="378"/>
			<point x="912" y="452" type="curve" smooth="yes"/>
			<point x="1014" y="562"/>
			<point x="1118" y="670"/>
			<point x="1220" y="780" type="curve"/>
			<point x="1230" y="792"/>
			<point x="1230" y="806"/>
			<point x="1230" y="816" type="curve" smooth="yes"/>
			<point x="1230" y="862"/>
			<point x="1212" y="862"/>
			<point x="1166" y="862" type="curve" smooth="yes"/>
			<point x="718" y="862" type="line" smooth="yes"/>
			<point x="630" y="862"/>
			<point x="528" y="866"/>
			<point x="416" y="870" type="curve" smooth="yes"/>
			<point x="346" y="872"/>
			<point x="320" y="878"/>
			<point x="318" y="888" type="curve" smooth="yes"/>
			<point x="312" y="912"/>
			<point x="308" y="926"/>
			<point x="276" y="926" type="curve" smooth="yes"/>
			<point x="250" y="926"/>
			<point x="238" y="920"/>
			<point x="228" y="876" type="curve" smooth="yes"/>
			<point x="204" y="756"/>
			<point x="178" y="636"/>
			<point x="154" y="516" type="curve"/>
			<point x="154" y="496"/>
			<point x="166" y="482"/>
			<point x="196" y="482" type="curve" smooth="yes"/>
			<point x="232" y="482"/>
			<point x="234" y="494"/>
			<point x="244" y="544" type="curve"/>
			<point x="248" y="558"/>
			<point x="268" y="646"/>
			<point x="288" y="666" type="curve" smooth="yes"/>
			<point x="298" y="676"/>
			<point x="482" y="676"/>
			<point x="508" y="676" type="curve" smooth="yes"/>
			<point x="1006" y="676" type="line"/>
			<point x="932" y="588"/>
			<point x="762" y="434"/>
			<point x="662" y="280" type="curve" smooth="yes"/>
			<point x="598" y="182"/>
			<point x="546" y="76"/>
			<point x="512" y="-34" type="curve" smooth="yes"/>
			<point x="484" y="-124"/>
			<point x="468" y="-218"/>
			<point x="468" y="-314" type="curve" smooth="yes"/>
			<point x="468" y="-432"/>
			<point x="560" y="-432"/>
		</contour>
	</outline>
</glyph>
<glyph name="eight" format="2">
  <advance width="736"/>
  <unicode hex="0038"/>
  <outline>
    <contour>
      <point x="404.18863178562583" y="-22.0" type="curve" smooth="yes"/>
      <point x="544.1886317856258" y="-22.0"/>
      <point x="665.1886317856258" y="54.0"/>
      <point x="665.1886317856258" y="170.0" type="curve" smooth="yes"/>
      <point x="665.1886317856258" y="246.8668"/>
      <point x="612.4740855456258" y="294.88979168"/>
      <point x="557.8966271338259" y="327.0449092505" type="curve" smooth="yes"/>
      <point x="535.0812063456258" y="340.48695216"/>
      <point x="511.9402317856259" y="351.156"/>
      <point x="492.18863178562583" y="360.0" type="curve"/>
      <point x="544.1886317856258" y="383.0"/>
      <point x="630.1886317856258" y="424.0"/>
      <point x="630.1886317856258" y="514.0" type="curve" smooth="yes"/>
      <point x="630.1886317856258" y="616.0"/>
      <point x="517.1886317856258" y="666.0"/>
      <point x="406.18863178562583" y="666.0" type="curve" smooth="yes"/>
      <point x="282.18863178562583" y="666.0"/>
      <point x="180.18863178562583" y="596.0"/>
      <point x="180.18863178562583" y="497.0" type="curve" smooth="yes"/>
      <point x="180.18863178562583" y="430.57103"/>
      <point x="223.55649913412583" y="389.652570205"/>
      <point x="265.8307921354258" y="362.9470411677" type="curve" smooth="yes"/>
      <point x="282.74015423392586" y="352.2650538779"/>
      <point x="299.47455178562586" y="343.85704"/>
      <point x="313.18863178562583" y="337.0" type="curve"/>
      <point x="236.18863178562583" y="307.0"/>
      <point x="145.18863178562583" y="255.0"/>
      <point x="145.18863178562583" y="154.0" type="curve" smooth="yes"/>
      <point x="145.18863178562583" y="36.0"/>
      <point x="275.18863178562583" y="-22.0"/>
    </contour>
    <contour>
      <point x="406.18863178562583" y="20.0" type="curve" smooth="yes"/>
      <point x="309.18863178562583" y="20.0"/>
      <point x="213.18863178562583" y="67.0"/>
      <point x="213.18863178562583" y="154.0" type="curve" smooth="yes"/>
      <point x="213.18863178562583" y="244.0"/>
      <point x="301.18863178562583" y="293.0"/>
      <point x="356.18863178562583" y="315.0" type="curve"/>
      <point x="403.18863178562583" y="292.0"/>
      <point x="457.18863178562583" y="264.0"/>
      <point x="507.18863178562583" y="237.0" type="curve" smooth="yes"/>
      <point x="547.1886317856258" y="216.0"/>
      <point x="597.1886317856258" y="190.0"/>
      <point x="597.1886317856258" y="136.0" type="curve" smooth="yes"/>
      <point x="597.1886317856258" y="55.0"/>
      <point x="497.18863178562583" y="20.0"/>
    </contour>
    <contour>
      <point x="451.18863178562583" y="382.0" type="curve"/>
      <point x="419.18863178562583" y="397.0"/>
      <point x="361.18863178562583" y="427.0"/>
      <point x="317.18863178562583" y="451.0" type="curve" smooth="yes"/>
      <point x="276.18863178562583" y="473.0"/>
      <point x="240.18863178562583" y="492.0"/>
      <point x="240.18863178562583" y="533.0" type="curve" smooth="yes"/>
      <point x="240.18863178562583" y="606.0"/>
      <point x="339.18863178562583" y="627.0"/>
      <point x="403.18863178562583" y="627.0" type="curve" smooth="yes"/>
      <point x="491.18863178562583" y="627.0"/>
      <point x="570.1886317856258" y="586.0"/>
      <point x="570.1886317856258" y="514.0" type="curve" smooth="yes"/>
      <point x="570.1886317856258" y="458.0"/>
      <point x="527.1886317856258" y="415.0"/>
    </contour>
  </outline>
</glyph>
<glyph name="nine" format="2">
  <advance width="736"/>
  <unicode hex="0039"/>
  <outline>
    <contour>
      <point x="562.1886317856258" y="114.0" type="curve"/>
      <point x="562.1886317856258" y="77.0"/>
      <point x="561.1886317856258" y="-17.0"/>
      <point x="522.1886317856258" y="-79.0" type="curve" smooth="yes"/>
      <point x="489.18863178562583" y="-130.0"/>
      <point x="435.18863178562583" y="-174.0"/>
      <point x="348.18863178562583" y="-174.0" type="curve" smooth="yes"/>
      <point x="323.18863178562583" y="-174.0"/>
      <point x="273.18863178562583" y="-172.0"/>
      <point x="242.18863178562583" y="-152.0" type="curve"/>
      <point x="254.18863178562583" y="-148.0"/>
      <point x="279.18863178562583" y="-134.0"/>
      <point x="279.18863178562583" y="-102.0" type="curve" smooth="yes"/>
      <point x="279.18863178562583" y="-74.0"/>
      <point x="258.18863178562583" y="-51.0"/>
      <point x="228.18863178562583" y="-51.0" type="curve" smooth="yes"/>
      <point x="198.18863178562583" y="-51.0"/>
      <point x="176.18863178562583" y="-72.0"/>
      <point x="176.18863178562583" y="-104.0" type="curve" smooth="yes"/>
      <point x="176.18863178562583" y="-216.0"/>
      <point x="320.18863178562583" y="-216.0"/>
      <point x="350.18863178562583" y="-216.0" type="curve" smooth="yes"/>
      <point x="520.1886317856258" y="-216.0"/>
      <point x="665.1886317856258" y="-74.0"/>
      <point x="665.1886317856258" y="124.0" type="curve" smooth="yes"/>
      <point x="665.1886317856258" y="352.0"/>
      <point x="553.1886317856258" y="453.0"/>
      <point x="409.18863178562583" y="453.0" type="curve" smooth="yes"/>
      <point x="323.18863178562583" y="453.0"/>
      <point x="272.18863178562583" y="428.0"/>
      <point x="221.18863178562583" y="387.0" type="curve" smooth="yes"/>
      <point x="159.18863178562583" y="336.0"/>
      <point x="145.18863178562583" y="283.0"/>
      <point x="145.18863178562583" y="232.0" type="curve" smooth="yes"/>
      <point x="145.18863178562583" y="190.0"/>
      <point x="154.18863178562583" y="136.0"/>
      <point x="212.18863178562583" y="83.0" type="curve" smooth="yes"/>
      <point x="257.18863178562583" y="43.0"/>
      <point x="307.18863178562583" y="15.0"/>
      <point x="389.18863178562583" y="15.0" type="curve" smooth="yes"/>
      <point x="477.18863178562583" y="15.0"/>
      <point x="532.1886317856258" y="65.0"/>
    </contour>
    <contour>
      <point x="396.18863178562583" y="49.0" type="curve" smooth="yes"/>
      <point x="354.18863178562583" y="49.0"/>
      <point x="313.18863178562583" y="59.0"/>
      <point x="279.18863178562583" y="101.0" type="curve" smooth="yes"/>
      <point x="250.18863178562583" y="137.0"/>
      <point x="248.18863178562583" y="172.0"/>
      <point x="248.18863178562583" y="230.0" type="curve" smooth="yes"/>
      <point x="248.18863178562583" y="284.0"/>
      <point x="248.18863178562583" y="325.0"/>
      <point x="284.18863178562583" y="364.0" type="curve" smooth="yes"/>
      <point x="317.18863178562583" y="400.0"/>
      <point x="354.18863178562583" y="414.0"/>
      <point x="409.18863178562583" y="414.0" type="curve" smooth="yes"/>
      <point x="455.1891317856258" y="414.0"/>
      <point x="487.0826584506258" y="398.8585152871"/>
      <point x="509.19539729332587" y="376.6799333883" type="curve" smooth="yes"/>
      <point x="559.1886317856258" y="326.537838668"/>
      <point x="559.1886317856258" y="240.42653"/>
      <point x="559.1886317856258" y="212.0" type="curve" smooth="yes"/>
      <point x="559.1886317856258" y="129.0"/>
      <point x="495.18863178562583" y="49.0"/>
    </contour>
  </outline>
</glyph>
<glyph name="less" format="2">
  <advance width="1083"/>
  <unicode hex="003C"/>
  <outline>
    <contour>
      <point x="937.1886317856258" y="544.0" type="line" smooth="yes"/>
      <point x="950.1886317856258" y="550.0"/>
      <point x="960.1886317856258" y="558.0"/>
      <point x="960.1886317856258" y="573.0" type="curve" smooth="yes"/>
      <point x="960.1886317856258" y="588.0"/>
      <point x="947.1886317856258" y="601.0"/>
      <point x="932.1886317856258" y="601.0" type="curve" smooth="yes"/>
      <point x="926.1886317856258" y="601.0"/>
      <point x="922.1886317856258" y="599.0"/>
      <point x="913.1886317856258" y="595.0" type="curve" smooth="yes"/>
      <point x="220.18863178562583" y="279.0" type="line" smooth="yes"/>
      <point x="207.18863178562583" y="273.0"/>
      <point x="197.18863178562583" y="265.0"/>
      <point x="197.18863178562583" y="250.0" type="curve" smooth="yes"/>
      <point x="197.18863178562583" y="235.0"/>
      <point x="207.18863178562583" y="227.0"/>
      <point x="220.18863178562583" y="221.0" type="curve" smooth="yes"/>
      <point x="910.1886317856258" y="-94.0" type="line" smooth="yes"/>
      <point x="925.1886317856258" y="-101.0"/>
      <point x="929.1886317856258" y="-101.0"/>
      <point x="932.1886317856258" y="-101.0" type="curve" smooth="yes"/>
      <point x="947.1886317856258" y="-101.0"/>
      <point x="960.1886317856258" y="-88.0"/>
      <point x="960.1886317856258" y="-73.0" type="curve" smooth="yes"/>
      <point x="960.1886317856258" y="-58.0"/>
      <point x="950.1886317856258" y="-50.0"/>
      <point x="937.1886317856258" y="-44.0" type="curve" smooth="yes"/>
      <point x="292.18863178562583" y="250.0" type="line"/>
    </contour>
  </outline>
</glyph>
<glyph name="greater" format="2">
	<unicode hex="003E"/>
	<advance width="2166"/>
	<outline>
		<contour>
			<point x="1704" y="442" type="line" smooth="yes"/>
			<point x="1730" y="454"/>
			<point x="1750" y="470"/>
			<point x="1750" y="500" type="curve" smooth="yes"/>
			<point x="1750" y="530"/>
			<point x="1730" y="546"/>
			<point x="1704" y="558" type="curve" smooth="yes"/>
			<point x="324" y="1188" type="line" smooth="yes"/>
			<point x="294" y="1202"/>
			<point x="286" y="1202"/>
			<point x="280" y="1202" type="curve" smooth="yes"/>
			<point x="250" y="1202"/>
			<point x="224" y="1176"/>
			<point x="224" y="1146" type="curve" smooth="yes"/>
			<point x="224" y="1116"/>
			<point x="244" y="1100"/>
			<point x="270" y="1088" type="curve" smooth="yes"/>
			<point x="1560" y="500" type="line"/>
			<point x="270" y="-88" type="line" smooth="yes"/>
			<point x="244" y="-100"/>
			<point x="224" y="-116"/>
			<point x="224" y="-146" type="curve" smooth="yes"/>
			<point x="224" y="-176"/>
			<point x="250" y="-202"/>
			<point x="280" y="-202" type="curve" smooth="yes"/>
			<point x="292" y="-202"/>
			<point x="300" y="-198"/>
			<point x="318" y="-190" type="curve" smooth="yes"/>
		</contour>
	</outline>
</glyph>
<glyph name="A" format="2">
	<unicode hex="0041"/>
	<advance width="1036"/>
	<outline>
		<contour>
			<point x="658.1554266419" y="224" type="line"/>
			<point x="661.1554266419" y="209"/>
			<point x="666.1554266419" y="184"/>
			<point x="670.1554266419" y="164" type="curve" smooth="yes"/>
			<point x="674.1554266419" y="143"/>
			<point x="687.1554266419" y="77"/>
			<point x="687.1554266419" y="67" type="curve" smooth="yes"/>
			<point x="687.1554266419" y="45"/>
			<point x="624.1554266419" y="45"/>
			<point x="619.1554266419" y="45" type="curve" smooth="yes"/>
			<point x="604.1554266419" y="45"/>
			<point x="588.1554266419" y="45"/>
			<point x="588.1554266419" y="17" type="curve" smooth="yes"/>
			<point x="588.1554266419" y="7"/>
			<point x="595.1554266419" y="0"/>
			<point x="606.1554266419" y="0" type="curve" smooth="yes"/>
			<point x="630.1554266419" y="0"/>
			<point x="658.1554266419" y="4"/>
			<point x="744.1554266419" y="4" type="curve" smooth="yes"/>
			<point x="812.1554266419" y="4"/>
			<point x="860.1554266419" y="0"/>
			<point x="871.1554266419" y="0" type="curve" smooth="yes"/>
			<point x="888.1554266419" y="0"/>
			<point x="895.1554266419" y="12"/>
			<point x="895.1554266419" y="28" type="curve" smooth="yes"/>
			<point x="895.1554266419" y="45"/>
			<point x="879.1554266419" y="45"/>
			<point x="865.1554266419" y="45" type="curve" smooth="yes"/>
			<point x="799.1554266419" y="45"/>
			<point x="798.1554266419" y="52"/>
			<point x="794.1554266419" y="74" type="curve" smooth="yes"/>
			<point x="679.1554266419" y="689" type="line" smooth="yes"/>
			<point x="675.1554266419" y="710"/>
			<point x="671.1554266419" y="716"/>
			<point x="649.1554266419" y="716" type="curve" smooth="yes"/>
			<point x="625.1554266419" y="716"/>
			<point x="619.1554266419" y="708"/>
			<point x="609.1554266419" y="693" type="curve" smooth="yes"/>
			<point x="217.1554266419" y="125" type="line" smooth="yes"/>
			<point x="175.1554266419" y="64"/>
			<point x="140.1554266419" y="48"/>
			<point x="75.1554266419" y="45" type="curve" smooth="yes"/>
			<point x="56.1554266419" y="44"/>
			<point x="56.1554266419" y="18"/>
			<point x="56.1554266419" y="17" type="curve" smooth="yes"/>
			<point x="56.1554266419" y="3"/>
			<point x="68.1554266419" y="0"/>
			<point x="73.1554266419" y="0" type="curve" smooth="yes"/>
			<point x="84.1554266419" y="0"/>
			<point x="107.1554266419" y="4"/>
			<point x="168.1554266419" y="4" type="curve" smooth="yes"/>
			<point x="226.1554266419" y="4"/>
			<point x="274.1554266419" y="0"/>
			<point x="280.1554266419" y="0" type="curve" smooth="yes"/>
			<point x="287.1554266419" y="0"/>
			<point x="304.1554266419" y="0"/>
			<point x="304.1554266419" y="28" type="curve" smooth="yes"/>
			<point x="304.1554266419" y="44"/>
			<point x="289.1554266419" y="45"/>
			<point x="285.1554266419" y="45" type="curve" smooth="yes"/>
			<point x="277.1554266419" y="45"/>
			<point x="238.1554266419" y="47"/>
			<point x="238.1554266419" y="71" type="curve" smooth="yes"/>
			<point x="238.1554266419" y="83"/>
			<point x="250.1554266419" y="100"/>
			<point x="257.1554266419" y="110" type="curve" smooth="yes"/>
			<point x="330.1554266419" y="217" type="line"/>
			<point x="335.1554266419" y="223"/>
			<point x="336.1554266419" y="224"/>
			<point x="355.1554266419" y="224" type="curve" smooth="yes"/>
		</contour>
		<contour>
			<point x="366.1554266419" y="269" type="line"/>
			<point x="589.1554266419" y="593" type="line"/>
			<point x="650.1554266419" y="269" type="line"/>
		</contour>
	</outline>
</glyph>
<glyph name="B" format="2">
	<unicode hex="0042"/>
	<advance width="1037"/>
	<outline>
		<contour>
			<point x="867.1554266419" y="212" type="curve" smooth="yes"/>
			<point x="867.1554266419" y="274"/>
			<point x="809.1554266419" y="341"/>
			<point x="673.1554266419" y="358" type="curve"/>
			<point x="772.1554266419" y="371"/>
			<point x="913.1554266419" y="437"/>
			<point x="913.1554266419" y="537" type="curve" smooth="yes"/>
			<point x="913.1554266419" y="621"/>
			<point x="814.1554266419" y="683"/>
			<point x="678.1554266419" y="683" type="curve" smooth="yes"/>
			<point x="268.1554266419" y="683" type="line" smooth="yes"/>
			<point x="249.1554266419" y="683"/>
			<point x="233.1554266419" y="683"/>
			<point x="233.1554266419" y="655" type="curve" smooth="yes"/>
			<point x="233.1554266419" y="638"/>
			<point x="246.1554266419" y="638"/>
			<point x="270.1554266419" y="638" type="curve" smooth="yes"/>
			<point x="276.1554266419" y="638"/>
			<point x="286.1554266419" y="638"/>
			<point x="305.1554266419" y="637" type="curve" smooth="yes"/>
			<point x="322.1554266419" y="636"/>
			<point x="334.1554266419" y="634"/>
			<point x="334.1554266419" y="625" type="curve" smooth="yes"/>
			<point x="334.1554266419" y="619"/>
			<point x="332.1554266419" y="611"/>
			<point x="331.1554266419" y="607" type="curve" smooth="yes"/>
			<point x="200.1554266419" y="83" type="line" smooth="yes"/>
			<point x="192.1554266419" y="53"/>
			<point x="191.1554266419" y="45"/>
			<point x="115.1554266419" y="45" type="curve" smooth="yes"/>
			<point x="89.1554266419" y="45"/>
			<point x="73.1554266419" y="45"/>
			<point x="73.1554266419" y="17" type="curve" smooth="yes"/>
			<point x="73.1554266419" y="0"/>
			<point x="89.1554266419" y="0"/>
			<point x="106.1554266419" y="0" type="curve" smooth="yes"/>
			<point x="541.1554266419" y="0" type="line" smooth="yes"/>
			<point x="721.1554266419" y="0"/>
			<point x="867.1554266419" y="112"/>
		</contour>
		<contour>
			<point x="806.1554266419" y="534" type="curve" smooth="yes"/>
			<point x="806.1554266419" y="453"/>
			<point x="698.1554266419" y="372"/>
			<point x="558.1554266419" y="372" type="curve" smooth="yes"/>
			<point x="369.1554266419" y="372" type="line"/>
			<point x="427.1554266419" y="605" type="line" smooth="yes"/>
			<point x="435.1554266419" y="636"/>
			<point x="435.1554266419" y="638"/>
			<point x="477.1554266419" y="638" type="curve" smooth="yes"/>
			<point x="660.1554266419" y="638" type="line" smooth="yes"/>
			<point x="759.1554266419" y="638"/>
			<point x="806.1554266419" y="587"/>
		</contour>
		<contour>
			<point x="757.1554266419" y="216" type="curve" smooth="yes"/>
			<point x="757.1554266419" y="119"/>
			<point x="638.1554266419" y="45"/>
			<point x="514.1554266419" y="45" type="curve" smooth="yes"/>
			<point x="312.1554266419" y="45" type="line" smooth="yes"/>
			<point x="287.1554266419" y="45"/>
			<point x="288.1554266419" y="48"/>
			<point x="292.1554266419" y="65" type="curve" smooth="yes"/>
			<point x="360.1554266419" y="338" type="line"/>
			<point x="604.1554266419" y="338" type="line" smooth="yes"/>
			<point x="706.1554266419" y="338"/>
			<point x="757.1554266419" y="279"/>
		</contour>
	</outline>
</glyph>
<glyph name="C" format="2">
	<unicode hex="0043"/>
	<advance width="1992"/>
	<outline>
		<contour>
			<point x="134" y="542" type="curve" smooth="yes"/>
			<point x="134" y="216"/>
			<point x="414" y="-44"/>
			<point x="842" y="-44" type="curve" smooth="yes"/>
			<point x="1044" y="-44"/>
			<point x="1222" y="24"/>
			<point x="1344" y="102" type="curve" smooth="yes"/>
			<point x="1600" y="268"/>
			<point x="1630" y="482"/>
			<point x="1630" y="484" type="curve" smooth="yes"/>
			<point x="1630" y="512"/>
			<point x="1602" y="512"/>
			<point x="1588" y="512" type="curve" smooth="yes"/>
			<point x="1566" y="512"/>
			<point x="1554" y="510"/>
			<point x="1546" y="486" type="curve" smooth="yes"/>
			<point x="1504" y="346"/>
			<point x="1415" y="244"/>
			<point x="1309" y="173" type="curve" smooth="yes"/>
			<point x="1177" y="84"/>
			<point x="1018" y="46"/>
			<point x="892" y="46" type="curve" smooth="yes"/>
			<point x="658" y="46"/>
			<point x="356" y="146"/>
			<point x="356" y="496" type="curve" smooth="yes"/>
			<point x="356" y="720"/>
			<point x="474" y="952"/>
			<point x="600" y="1072" type="curve" smooth="yes"/>
			<point x="832" y="1292"/>
			<point x="1096" y="1320"/>
			<point x="1220" y="1320" type="curve" smooth="yes"/>
			<point x="1476" y="1320"/>
			<point x="1638" y="1154"/>
			<point x="1638" y="924" type="curve" smooth="yes"/>
			<point x="1638" y="880"/>
			<point x="1634" y="870"/>
			<point x="1634" y="858" type="curve" smooth="yes"/>
			<point x="1634" y="828"/>
			<point x="1662" y="828"/>
			<point x="1680" y="828" type="curve" smooth="yes"/>
			<point x="1718" y="828"/>
			<point x="1718" y="834"/>
			<point x="1728" y="872" type="curve" smooth="yes"/>
			<point x="1854" y="1382" type="line"/>
			<point x="1854" y="1382"/>
			<point x="1854" y="1382"/>
			<point x="1854" y="1382" type="curve"/>
			<point x="1854" y="1384"/>
			<point x="1854" y="1410"/>
			<point x="1822" y="1410" type="curve" smooth="yes"/>
			<point x="1810" y="1410"/>
			<point x="1808" y="1408"/>
			<point x="1784" y="1386" type="curve" smooth="yes"/>
			<point x="1646" y="1248" type="line" smooth="yes"/>
			<point x="1642" y="1244"/>
			<point x="1628" y="1230"/>
			<point x="1624" y="1230" type="curve" smooth="yes"/>
			<point x="1620" y="1230"/>
			<point x="1616" y="1236"/>
			<point x="1614" y="1236" type="curve"/>
			<point x="1574" y="1280"/>
			<point x="1452" y="1410"/>
			<point x="1190" y="1410" type="curve" smooth="yes"/>
			<point x="640" y="1410"/>
			<point x="134" y="980"/>
		</contour>
	</outline>
</glyph>
<glyph name="D" format="2">
	<unicode hex="0044"/>
	<advance width="2218"/>
	<outline>
		<contour>
			<point x="1960" y="824" type="curve" smooth="yes"/>
			<point x="1960" y="1154"/>
			<point x="1696" y="1366"/>
			<point x="1352" y="1366" type="curve" smooth="yes"/>
			<point x="532" y="1366" type="line" smooth="yes"/>
			<point x="492" y="1366"/>
			<point x="462" y="1366"/>
			<point x="462" y="1310" type="curve" smooth="yes"/>
			<point x="462" y="1276"/>
			<point x="486" y="1276"/>
			<point x="536" y="1276" type="curve" smooth="yes"/>
			<point x="556" y="1276"/>
			<point x="622" y="1276"/>
			<point x="664" y="1264" type="curve"/>
			<point x="664" y="1264"/>
			<point x="664" y="1264"/>
			<point x="664" y="1264" type="curve"/>
			<point x="664" y="1240"/>
			<point x="664" y="1236"/>
			<point x="658" y="1214" type="curve" smooth="yes"/>
			<point x="396" y="166" type="line" smooth="yes"/>
			<point x="380" y="106"/>
			<point x="378" y="90"/>
			<point x="224" y="90" type="curve" smooth="yes"/>
			<point x="174" y="90"/>
			<point x="142" y="90"/>
			<point x="142" y="34" type="curve" smooth="yes"/>
			<point x="142" y="0"/>
			<point x="174" y="0"/>
			<point x="208" y="0" type="curve" smooth="yes"/>
			<point x="1012" y="0" type="line" smooth="yes"/>
			<point x="1482" y="0"/>
			<point x="1960" y="380"/>
		</contour>
		<contour>
			<point x="858" y="1210" type="line" smooth="yes"/>
			<point x="874" y="1272"/>
			<point x="874" y="1276"/>
			<point x="958" y="1276" type="curve" smooth="yes"/>
			<point x="1274" y="1276" type="line" smooth="yes"/>
			<point x="1522" y="1276"/>
			<point x="1750" y="1172"/>
			<point x="1750" y="876" type="curve" smooth="yes"/>
			<point x="1750" y="750"/>
			<point x="1702" y="496"/>
			<point x="1552" y="328" type="curve" smooth="yes"/>
			<point x="1402" y="160"/>
			<point x="1180" y="90"/>
			<point x="978" y="90" type="curve" smooth="yes"/>
			<point x="612" y="90" type="line" smooth="yes"/>
			<point x="584" y="90"/>
			<point x="578" y="92"/>
			<point x="586" y="122" type="curve" smooth="yes"/>
		</contour>
	</outline>
</glyph>
<glyph name="E" format="2">
  <advance width="1006"/>
  <unicode hex="0045"/>
  <outline>
    <contour>
      <point x="281.18863178562583" y="83.0" type="line" smooth="yes"/>
      <point x="273.18863178562583" y="53.0"/>
      <point x="272.18863178562583" y="45.0"/>
      <point x="195.18863178562583" y="45.0" type="curve" smooth="yes"/>
      <point x="170.18863178562583" y="45.0"/>
      <point x="154.18863178562583" y="45.0"/>
      <point x="154.18863178562583" y="17.0" type="curve" smooth="yes"/>
      <point x="154.18863178562583" y="0.0"/>
      <point x="170.18863178562583" y="0.0"/>
      <point x="187.18863178562583" y="0.0" type="curve" smooth="yes"/>
      <point x="824.1886317856258" y="0.0" type="line" smooth="yes"/>
      <point x="849.1886317856258" y="0.0"/>
      <point x="850.1886317856258" y="0.0"/>
      <point x="859.1886317856258" y="19.0" type="curve" smooth="yes"/>
      <point x="960.1886317856258" y="238.0" type="line" smooth="yes"/>
      <point x="962.1886317856258" y="242.0"/>
      <point x="966.1886317856258" y="250.0"/>
      <point x="966.1886317856258" y="255.0" type="curve" smooth="yes"/>
      <point x="966.1886317856258" y="261.0"/>
      <point x="962.1886317856258" y="272.0"/>
      <point x="945.1886317856258" y="272.0" type="curve" smooth="yes"/>
      <point x="932.1886317856258" y="272.0"/>
      <point x="929.1886317856258" y="270.0"/>
      <point x="918.1886317856258" y="245.0" type="curve" smooth="yes"/>
      <point x="846.1886317856258" y="91.0"/>
      <point x="789.1886317856258" y="45.0"/>
      <point x="611.1886317856258" y="45.0" type="curve" smooth="yes"/>
      <point x="399.18863178562583" y="45.0" type="line" smooth="yes"/>
      <point x="378.18863178562583" y="45.0"/>
      <point x="377.18863178562583" y="48.0"/>
      <point x="381.18863178562583" y="65.0" type="curve" smooth="yes"/>
      <point x="447.18863178562583" y="330.0" type="line"/>
      <point x="577.1886317856258" y="330.0" type="line" smooth="yes"/>
      <point x="673.1886317856258" y="330.0"/>
      <point x="676.1886317856258" y="313.0"/>
      <point x="676.1886317856258" y="281.0" type="curve" smooth="yes"/>
      <point x="676.1886317856258" y="260.0"/>
      <point x="669.1886317856258" y="238.0"/>
      <point x="669.1886317856258" y="230.0" type="curve" smooth="yes"/>
      <point x="669.1886317856258" y="229.0"/>
      <point x="669.1886317856258" y="213.0"/>
      <point x="689.1886317856258" y="213.0" type="curve" smooth="yes"/>
      <point x="706.1886317856258" y="213.0"/>
      <point x="708.1886317856258" y="219.0"/>
      <point x="712.1886317856258" y="236.0" type="curve" smooth="yes"/>
      <point x="770.1886317856258" y="464.0" type="line" smooth="yes"/>
      <point x="773.1886317856258" y="475.0"/>
      <point x="776.1886317856258" y="492.0"/>
      <point x="751.1886317856258" y="492.0" type="curve" smooth="yes"/>
      <point x="735.1886317856258" y="492.0"/>
      <point x="732.1886317856258" y="485.0"/>
      <point x="728.1886317856258" y="470.0" type="curve" smooth="yes"/>
      <point x="705.1886317856258" y="388.0"/>
      <point x="673.1886317856258" y="375.0"/>
      <point x="580.1886317856258" y="375.0" type="curve" smooth="yes"/>
      <point x="458.18863178562583" y="375.0" type="line"/>
      <point x="477.1696317856258" y="450.258"/>
      <point x="496.1506317856258" y="525.516"/>
      <point x="515.1886317856258" y="601.0" type="curve" smooth="yes"/>
      <point x="523.1886317856258" y="632.0"/>
      <point x="523.1886317856258" y="634.0"/>
      <point x="565.1886317856258" y="634.0" type="curve" smooth="yes"/>
      <point x="759.1886317856258" y="634.0" type="line" smooth="yes"/>
      <point x="902.1886317856258" y="634.0"/>
      <point x="943.1886317856258" y="610.0"/>
      <point x="943.1886317856258" y="506.0" type="curve" smooth="yes"/>
      <point x="943.1886317856258" y="491.0"/>
      <point x="940.1886317856258" y="473.0"/>
      <point x="940.1886317856258" y="459.0" type="curve" smooth="yes"/>
      <point x="940.1886317856258" y="445.0"/>
      <point x="950.1886317856258" y="440.0"/>
      <point x="961.1886317856258" y="440.0" type="curve" smooth="yes"/>
      <point x="980.1886317856258" y="440.0"/>
      <point x="981.1886317856258" y="449.0"/>
      <point x="983.1886317856258" y="468.0" type="curve" smooth="yes"/>
      <point x="988.8496317856258" y="531.27"/>
      <point x="994.5106317856258" y="594.54"/>
      <point x="1000.1886317856258" y="658.0" type="curve" smooth="yes"/>
      <point x="1002.1886317856258" y="679.0"/>
      <point x="989.1886317856258" y="679.0"/>
      <point x="968.1886317856258" y="679.0" type="curve" smooth="yes"/>
      <point x="348.18863178562583" y="679.0" type="line" smooth="yes"/>
      <point x="328.18863178562583" y="679.0"/>
      <point x="313.18863178562583" y="679.0"/>
      <point x="313.18863178562583" y="651.0" type="curve" smooth="yes"/>
      <point x="313.18863178562583" y="634.0"/>
      <point x="325.18863178562583" y="634.0"/>
      <point x="350.18863178562583" y="634.0" type="curve" smooth="yes"/>
      <point x="356.18863178562583" y="634.0"/>
      <point x="376.18863178562583" y="634.0"/>
      <point x="386.18863178562583" y="634.0" type="curve" smooth="yes"/>
      <point x="407.18863178562583" y="634.0"/>
      <point x="418.18863178562583" y="630.0"/>
      <point x="412.18863178562583" y="607.0" type="curve" smooth="yes"/>
    </contour>
  </outline>
</glyph>
<glyph name="F" format="2">
	<unicode hex="0046"/>
	<advance width="867"/>
	<outline>
		<contour>
			<point x="359.1554266419" y="317" type="line"/>
			<point x="483.1554266419" y="317" type="line" smooth="yes"/>
			<point x="572.1554266419" y="317"/>
			<point x="580.1554266419" y="303"/>
			<point x="580.1554266419" y="270" type="curve" smooth="yes"/>
			<point x="580.1554266419" y="246"/>
			<point x="572.1554266419" y="222"/>
			<point x="572.1554266419" y="217" type="curve" smooth="yes"/>
			<point x="572.1554266419" y="211"/>
			<point x="576.1554266419" y="200"/>
			<point x="593.1554266419" y="200" type="curve" smooth="yes"/>
			<point x="607.1554266419" y="200"/>
			<point x="612.1554266419" y="204"/>
			<point x="616.1554266419" y="221" type="curve" smooth="yes"/>
			<point x="675.1554266419" y="462" type="line"/>
			<point x="675.1554266419" y="463"/>
			<point x="675.1554266419" y="479"/>
			<point x="655.1554266419" y="479" type="curve" smooth="yes"/>
			<point x="638.1554266419" y="479"/>
			<point x="637.1554266419" y="473"/>
			<point x="632.1554266419" y="456" type="curve" smooth="yes"/>
			<point x="610.1554266419" y="377"/>
			<point x="582.1554266419" y="362"/>
			<point x="487.1554266419" y="362" type="curve" smooth="yes"/>
			<point x="370.1554266419" y="362" type="line"/>
			<point x="390.1354266419" y="441.587"/>
			<point x="410.1154266419" y="521.174"/>
			<point x="430.1554266419" y="601" type="curve" smooth="yes"/>
			<point x="438.1554266419" y="632"/>
			<point x="438.1554266419" y="634"/>
			<point x="480.1554266419" y="634" type="curve" smooth="yes"/>
			<point x="663.1554266419" y="634" type="line" smooth="yes"/>
			<point x="805.1554266419" y="634"/>
			<point x="840.1554266419" y="608"/>
			<point x="840.1554266419" y="509" type="curve" smooth="yes"/>
			<point x="840.1554266419" y="487"/>
			<point x="837.1554266419" y="461"/>
			<point x="837.1554266419" y="459" type="curve" smooth="yes"/>
			<point x="837.1554266419" y="445"/>
			<point x="847.1554266419" y="440"/>
			<point x="858.1554266419" y="440" type="curve" smooth="yes"/>
			<point x="877.1554266419" y="440"/>
			<point x="878.1554266419" y="449"/>
			<point x="880.1554266419" y="468" type="curve" smooth="yes"/>
			<point x="898.1554266419" y="658" type="line" smooth="yes"/>
			<point x="900.1554266419" y="679"/>
			<point x="883.1554266419" y="679"/>
			<point x="865.1554266419" y="679" type="curve" smooth="yes"/>
			<point x="263.1554266419" y="679" type="line" smooth="yes"/>
			<point x="243.1554266419" y="679"/>
			<point x="228.1554266419" y="679"/>
			<point x="228.1554266419" y="651" type="curve" smooth="yes"/>
			<point x="228.1554266419" y="634"/>
			<point x="240.1554266419" y="634"/>
			<point x="265.1554266419" y="634" type="curve" smooth="yes"/>
			<point x="271.4054266419" y="634"/>
			<point x="286.6398016419" y="634"/>
			<point x="302.3136297669" y="632.53515625" type="curve" smooth="yes"/>
			<point x="311.7179266419" y="631.65625"/>
			<point x="321.2804266419" y="630.25"/>
			<point x="329.1554266419" y="628" type="curve"/>
			<point x="329.1554266419" y="616"/>
			<point x="329.1554266419" y="614"/>
			<point x="326.1554266419" y="603" type="curve" smooth="yes"/>
			<point x="196.1554266419" y="83" type="line" smooth="yes"/>
			<point x="188.1554266419" y="53"/>
			<point x="187.1554266419" y="45"/>
			<point x="110.1554266419" y="45" type="curve" smooth="yes"/>
			<point x="85.1554266419" y="45"/>
			<point x="69.1554266419" y="45"/>
			<point x="69.1554266419" y="17" type="curve" smooth="yes"/>
			<point x="69.1554266419" y="9"/>
			<point x="76.1554266419" y="0"/>
			<point x="87.1554266419" y="0" type="curve" smooth="yes"/>
			<point x="109.1554266419" y="0"/>
			<point x="134.1554266419" y="3"/>
			<point x="156.1554266419" y="3" type="curve" smooth="yes"/>
			<point x="208.1554266419" y="4"/>
			<point x="262.1554266419" y="4"/>
			<point x="316.1554266419" y="3" type="curve" smooth="yes"/>
			<point x="343.1554266419" y="3"/>
			<point x="372.1554266419" y="0"/>
			<point x="399.1554266419" y="0" type="curve" smooth="yes"/>
			<point x="405.1554266419" y="0"/>
			<point x="425.1554266419" y="0"/>
			<point x="425.1554266419" y="28" type="curve" smooth="yes"/>
			<point x="425.1554266419" y="45"/>
			<point x="411.1554266419" y="45"/>
			<point x="385.1554266419" y="45" type="curve" smooth="yes"/>
			<point x="361.1554266419" y="45"/>
			<point x="353.1554266419" y="45"/>
			<point x="327.1554266419" y="47" type="curve" smooth="yes"/>
			<point x="303.1554266419" y="49"/>
			<point x="296.1554266419" y="50"/>
			<point x="296.1554266419" y="62" type="curve" smooth="yes"/>
			<point x="296.1554266419" y="68"/>
			<point x="296.1554266419" y="70"/>
			<point x="300.1554266419" y="84" type="curve" smooth="yes"/>
		</contour>
	</outline>
</glyph>
<glyph name="G" format="2">
	<unicode hex="0047"/>
	<advance width="2128"/>
	<outline>
		<contour>
			<point x="134" y="542" type="curve" smooth="yes"/>
			<point x="134" y="240"/>
			<point x="382" y="-44"/>
			<point x="852" y="-44" type="curve" smooth="yes"/>
			<point x="1142" y="-44"/>
			<point x="1308" y="28"/>
			<point x="1382" y="108" type="curve"/>
			<point x="1406" y="66"/>
			<point x="1464" y="0"/>
			<point x="1488" y="0" type="curve" smooth="yes"/>
			<point x="1498" y="0"/>
			<point x="1512" y="10"/>
			<point x="1514" y="20" type="curve" smooth="yes"/>
			<point x="1518" y="38"/>
			<point x="1545" y="146"/>
			<point x="1614" y="422" type="curve" smooth="yes"/>
			<point x="1622" y="458"/>
			<point x="1638" y="464"/>
			<point x="1752" y="466" type="curve" smooth="yes"/>
			<point x="1778" y="466"/>
			<point x="1812" y="466"/>
			<point x="1812" y="522" type="curve" smooth="yes"/>
			<point x="1812" y="542"/>
			<point x="1796" y="556"/>
			<point x="1778" y="556" type="curve" smooth="yes"/>
			<point x="1738" y="556"/>
			<point x="1694" y="550"/>
			<point x="1604" y="550" type="curve" smooth="yes"/>
			<point x="1550" y="550"/>
			<point x="1446" y="550"/>
			<point x="1380" y="550" type="curve" smooth="yes"/>
			<point x="1294" y="550"/>
			<point x="1224" y="556"/>
			<point x="1168" y="556" type="curve" smooth="yes"/>
			<point x="1154" y="556"/>
			<point x="1116" y="556"/>
			<point x="1116" y="500" type="curve" smooth="yes"/>
			<point x="1116" y="466"/>
			<point x="1146" y="466"/>
			<point x="1180" y="466" type="curve" smooth="yes"/>
			<point x="1276" y="466"/>
			<point x="1340" y="462"/>
			<point x="1380" y="456" type="curve" smooth="yes"/>
			<point x="1394" y="454"/>
			<point x="1406" y="450"/>
			<point x="1406" y="432" type="curve" smooth="yes"/>
			<point x="1406" y="418"/>
			<point x="1366" y="258"/>
			<point x="1360" y="234" type="curve"/>
			<point x="1337" y="161"/>
			<point x="1272" y="116"/>
			<point x="1196" y="88" type="curve" smooth="yes"/>
			<point x="1103" y="54"/>
			<point x="993" y="46"/>
			<point x="920" y="46" type="curve" smooth="yes"/>
			<point x="648" y="46"/>
			<point x="356" y="160"/>
			<point x="356" y="500" type="curve" smooth="yes"/>
			<point x="356" y="686"/>
			<point x="444" y="928"/>
			<point x="616" y="1086" type="curve" smooth="yes"/>
			<point x="826" y="1282"/>
			<point x="1078" y="1320"/>
			<point x="1218" y="1320" type="curve" smooth="yes"/>
			<point x="1476" y="1320"/>
			<point x="1636" y="1152"/>
			<point x="1636" y="924" type="curve" smooth="yes"/>
			<point x="1636" y="880"/>
			<point x="1632" y="870"/>
			<point x="1632" y="858" type="curve" smooth="yes"/>
			<point x="1632" y="828"/>
			<point x="1660" y="828"/>
			<point x="1678" y="828" type="curve" smooth="yes"/>
			<point x="1716" y="828"/>
			<point x="1716" y="834"/>
			<point x="1726" y="872" type="curve" smooth="yes"/>
			<point x="1852" y="1382" type="line"/>
			<point x="1852" y="1384"/>
			<point x="1852" y="1410"/>
			<point x="1820" y="1410" type="curve" smooth="yes"/>
			<point x="1808" y="1410"/>
			<point x="1806" y="1408"/>
			<point x="1782" y="1386" type="curve" smooth="yes"/>
			<point x="1644" y="1248" type="line" smooth="yes"/>
			<point x="1622" y="1226"/>
			<point x="1622" y="1228"/>
			<point x="1612" y="1238" type="curve" smooth="yes"/>
			<point x="1570" y="1282"/>
			<point x="1448" y="1410"/>
			<point x="1188" y="1410" type="curve" smooth="yes"/>
			<point x="642" y="1410"/>
			<point x="134" y="982"/>
		</contour>
	</outline>
</glyph>
<glyph name="H" format="2">
	<unicode hex="0048"/>
	<advance width="1110"/>
	<outline>
		<contour>
			<point x="363.1554266419" y="333" type="line"/>
			<point x="744.1554266419" y="333" type="line"/>
			<point x="723.1764266419" y="249.75"/>
			<point x="702.1974266419" y="166.5"/>
			<point x="681.1554266419" y="83" type="curve" smooth="yes"/>
			<point x="673.1554266419" y="53"/>
			<point x="671.1554266419" y="45"/>
			<point x="595.1554266419" y="45" type="curve" smooth="yes"/>
			<point x="570.1554266419" y="45"/>
			<point x="554.1554266419" y="45"/>
			<point x="554.1554266419" y="17" type="curve" smooth="yes"/>
			<point x="554.1554266419" y="9"/>
			<point x="561.1554266419" y="0"/>
			<point x="572.1554266419" y="0" type="curve" smooth="yes"/>
			<point x="593.1554266419" y="0"/>
			<point x="617.1554266419" y="3"/>
			<point x="639.1554266419" y="3" type="curve" smooth="yes"/>
			<point x="689.1554266419" y="3"/>
			<point x="737.1554266419" y="3"/>
			<point x="787.1554266419" y="3" type="curve" smooth="yes"/>
			<point x="810.1554266419" y="3"/>
			<point x="835.1554266419" y="0"/>
			<point x="857.1554266419" y="0" type="curve" smooth="yes"/>
			<point x="863.1554266419" y="0"/>
			<point x="882.1554266419" y="0"/>
			<point x="882.1554266419" y="28" type="curve" smooth="yes"/>
			<point x="882.1554266419" y="45"/>
			<point x="868.1554266419" y="45"/>
			<point x="849.1554266419" y="45" type="curve" smooth="yes"/>
			<point x="847.1554266419" y="45"/>
			<point x="823.1554266419" y="45"/>
			<point x="806.1554266419" y="47" type="curve" smooth="yes"/>
			<point x="781.1554266419" y="49"/>
			<point x="780.1554266419" y="50"/>
			<point x="780.1554266419" y="58" type="curve" smooth="yes"/>
			<point x="780.1554266419" y="60"/>
			<point x="780.1554266419" y="62"/>
			<point x="783.1554266419" y="72" type="curve" smooth="yes"/>
			<point x="914.1554266419" y="598" type="line" smooth="yes"/>
			<point x="922.1554266419" y="630"/>
			<point x="924.1554266419" y="638"/>
			<point x="1002.1554266419" y="638" type="curve" smooth="yes"/>
			<point x="1034.1554266419" y="638"/>
			<point x="1037.1554266419" y="641"/>
			<point x="1040.1554266419" y="657" type="curve" smooth="yes"/>
			<point x="1043.1554266419" y="674"/>
			<point x="1036.1554266419" y="683"/>
			<point x="1023.1554266419" y="683" type="curve" smooth="yes"/>
			<point x="1004.1554266419" y="683"/>
			<point x="968.1554266419" y="680"/>
			<point x="942.1554266419" y="680" type="curve" smooth="yes"/>
			<point x="907.1554266419" y="680"/>
			<point x="858.1554266419" y="680"/>
			<point x="809.1554266419" y="680" type="curve" smooth="yes"/>
			<point x="786.1554266419" y="680"/>
			<point x="761.1554266419" y="683"/>
			<point x="739.1554266419" y="683" type="curve" smooth="yes"/>
			<point x="732.1554266419" y="683"/>
			<point x="714.1554266419" y="683"/>
			<point x="714.1554266419" y="655" type="curve" smooth="yes"/>
			<point x="714.1554266419" y="638"/>
			<point x="726.1554266419" y="638"/>
			<point x="751.1554266419" y="638" type="curve" smooth="yes"/>
			<point x="757.8742266419" y="638"/>
			<point x="774.9757495331" y="638"/>
			<point x="791.8444285779" y="636.1801885593" type="curve" smooth="yes"/>
			<point x="800.0824338291" y="635.2914635936"/>
			<point x="808.2649066419" y="633.96872"/>
			<point x="815.1554266419" y="632" type="curve"/>
			<point x="815.1554266419" y="620"/>
			<point x="815.1554266419" y="618"/>
			<point x="812.1554266419" y="607" type="curve" smooth="yes"/>
			<point x="755.1554266419" y="378" type="line"/>
			<point x="374.1554266419" y="378" type="line"/>
			<point x="429.1554266419" y="598" type="line" smooth="yes"/>
			<point x="437.1554266419" y="630"/>
			<point x="439.1554266419" y="638"/>
			<point x="515.1554266419" y="638" type="curve" smooth="yes"/>
			<point x="548.1554266419" y="638"/>
			<point x="551.1554266419" y="640"/>
			<point x="555.1554266419" y="657" type="curve" smooth="yes"/>
			<point x="558.1554266419" y="670"/>
			<point x="555.1554266419" y="683"/>
			<point x="538.1554266419" y="683" type="curve" smooth="yes"/>
			<point x="517.1554266419" y="683"/>
			<point x="493.1554266419" y="680"/>
			<point x="471.1554266419" y="680" type="curve" smooth="yes"/>
			<point x="422.1554266419" y="680"/>
			<point x="373.1554266419" y="680"/>
			<point x="324.1554266419" y="680" type="curve" smooth="yes"/>
			<point x="301.1554266419" y="680"/>
			<point x="276.1554266419" y="683"/>
			<point x="254.1554266419" y="683" type="curve" smooth="yes"/>
			<point x="247.1554266419" y="683"/>
			<point x="229.1554266419" y="683"/>
			<point x="229.1554266419" y="655" type="curve" smooth="yes"/>
			<point x="229.1554266419" y="638"/>
			<point x="241.1554266419" y="638"/>
			<point x="266.1554266419" y="638" type="curve" smooth="yes"/>
			<point x="272.8742266419" y="638"/>
			<point x="289.9757495331" y="638"/>
			<point x="306.8444285779" y="636.1801885593" type="curve" smooth="yes"/>
			<point x="315.0824338291" y="635.2914635936"/>
			<point x="323.2649066419" y="633.96872"/>
			<point x="330.1554266419" y="632" type="curve"/>
			<point x="330.1554266419" y="620"/>
			<point x="330.1554266419" y="618"/>
			<point x="327.1554266419" y="607" type="curve" smooth="yes"/>
			<point x="196.1554266419" y="83" type="line" smooth="yes"/>
			<point x="188.1554266419" y="53"/>
			<point x="187.1554266419" y="45"/>
			<point x="110.1554266419" y="45" type="curve" smooth="yes"/>
			<point x="85.1554266419" y="45"/>
			<point x="69.1554266419" y="45"/>
			<point x="69.1554266419" y="17" type="curve" smooth="yes"/>
			<point x="69.1554266419" y="9"/>
			<point x="76.1554266419" y="0"/>
			<point x="87.1554266419" y="0" type="curve" smooth="yes"/>
			<point x="108.1554266419" y="0"/>
			<point x="132.1554266419" y="3"/>
			<point x="154.1554266419" y="3" type="curve" smooth="yes"/>
			<point x="204.1554266419" y="3"/>
			<point x="252.1554266419" y="3"/>
			<point x="302.1554266419" y="3" type="curve" smooth="yes"/>
			<point x="325.1554266419" y="3"/>
			<point x="350.1554266419" y="0"/>
			<point x="372.1554266419" y="0" type="curve" smooth="yes"/>
			<point x="378.1554266419" y="0"/>
			<point x="397.1554266419" y="0"/>
			<point x="397.1554266419" y="28" type="curve" smooth="yes"/>
			<point x="397.1554266419" y="45"/>
			<point x="383.1554266419" y="45"/>
			<point x="364.1554266419" y="45" type="curve" smooth="yes"/>
			<point x="362.1554266419" y="45"/>
			<point x="338.1554266419" y="45"/>
			<point x="321.1554266419" y="47" type="curve" smooth="yes"/>
			<point x="296.1554266419" y="49"/>
			<point x="295.1554266419" y="50"/>
			<point x="295.1554266419" y="58" type="curve" smooth="yes"/>
			<point x="295.1554266419" y="60"/>
			<point x="295.1554266419" y="62"/>
			<point x="298.1554266419" y="72" type="curve" smooth="yes"/>
		</contour>
	</outline>
</glyph>
<glyph name="I" format="2">
	<unicode hex="0049"/>
	<advance width="1252"/>
	<outline>
		<contour>
			<point x="394" y="172" type="line" smooth="yes"/>
			<point x="376" y="104"/>
			<point x="374" y="90"/>
			<point x="210" y="90" type="curve" smooth="yes"/>
			<point x="156" y="90"/>
			<point x="128" y="90"/>
			<point x="128" y="34" type="curve" smooth="yes"/>
			<point x="128" y="12"/>
			<point x="144" y="0"/>
			<point x="164" y="0" type="curve" smooth="yes"/>
			<point x="208" y="0"/>
			<point x="258" y="6"/>
			<point x="302" y="6" type="curve" smooth="yes"/>
			<point x="408" y="8"/>
			<point x="506" y="8"/>
			<point x="610" y="6" type="curve" smooth="yes"/>
			<point x="656" y="6"/>
			<point x="708" y="0"/>
			<point x="754" y="0" type="curve" smooth="yes"/>
			<point x="766" y="0"/>
			<point x="804" y="0"/>
			<point x="804" y="56" type="curve" smooth="yes"/>
			<point x="804" y="90"/>
			<point x="774" y="90"/>
			<point x="734" y="90" type="curve" smooth="yes"/>
			<point x="702" y="90"/>
			<point x="682" y="90"/>
			<point x="648" y="94" type="curve" smooth="yes"/>
			<point x="592" y="98"/>
			<point x="590" y="100"/>
			<point x="590" y="118" type="curve" smooth="yes"/>
			<point x="590" y="128"/>
			<point x="594" y="144"/>
			<point x="598" y="156" type="curve"/>
			<point x="858" y="1194" type="line" smooth="yes"/>
			<point x="876" y="1262"/>
			<point x="878" y="1276"/>
			<point x="1042" y="1276" type="curve" smooth="yes"/>
			<point x="1096" y="1276"/>
			<point x="1124" y="1276"/>
			<point x="1124" y="1332" type="curve" smooth="yes"/>
			<point x="1124" y="1348"/>
			<point x="1112" y="1366"/>
			<point x="1088" y="1366" type="curve" smooth="yes"/>
			<point x="1044" y="1366"/>
			<point x="994" y="1360"/>
			<point x="950" y="1360" type="curve" smooth="yes"/>
			<point x="846" y="1358"/>
			<point x="748" y="1358"/>
			<point x="642" y="1360" type="curve" smooth="yes"/>
			<point x="596" y="1360"/>
			<point x="544" y="1366"/>
			<point x="498" y="1366" type="curve" smooth="yes"/>
			<point x="486" y="1366"/>
			<point x="446" y="1366"/>
			<point x="446" y="1310" type="curve" smooth="yes"/>
			<point x="446" y="1276"/>
			<point x="476" y="1276"/>
			<point x="518" y="1276" type="curve" smooth="yes"/>
			<point x="526" y="1276"/>
			<point x="564" y="1276"/>
			<point x="604" y="1272" type="curve" smooth="yes"/>
			<point x="658" y="1268"/>
			<point x="660" y="1266"/>
			<point x="660" y="1248" type="curve" smooth="yes"/>
			<point x="660" y="1238"/>
			<point x="660" y="1234"/>
			<point x="656" y="1216" type="curve" smooth="yes"/>
		</contour>
	</outline>
</glyph>
<glyph name="J" format="2">
	<unicode hex="004A"/>
	<advance width="772"/>
	<outline>
		<contour>
			<point x="271.1554266419" y="-22" type="curve" smooth="yes"/>
			<point x="378.1554266419" y="-22"/>
			<point x="502.1554266419" y="37"/>
			<point x="529.1554266419" y="144" type="curve" smooth="yes"/>
			<point x="644.1554266419" y="602" type="line" smooth="yes"/>
			<point x="652.1554266419" y="632"/>
			<point x="653.1554266419" y="638"/>
			<point x="709.1554266419" y="638" type="curve" smooth="yes"/>
			<point x="726.1554266419" y="638"/>
			<point x="743.1554266419" y="638"/>
			<point x="743.1554266419" y="666" type="curve" smooth="yes"/>
			<point x="743.1554266419" y="675"/>
			<point x="735.1554266419" y="683"/>
			<point x="726.1554266419" y="683" type="curve" smooth="yes"/>
			<point x="706.1554266419" y="683"/>
			<point x="684.1554266419" y="680"/>
			<point x="664.1554266419" y="680" type="curve" smooth="yes"/>
			<point x="616.1554266419" y="680"/>
			<point x="568.1554266419" y="680"/>
			<point x="520.1554266419" y="680" type="curve" smooth="yes"/>
			<point x="494.1554266419" y="680"/>
			<point x="466.1554266419" y="683"/>
			<point x="440.1554266419" y="683" type="curve" smooth="yes"/>
			<point x="433.1554266419" y="683"/>
			<point x="414.1554266419" y="683"/>
			<point x="414.1554266419" y="655" type="curve" smooth="yes"/>
			<point x="414.1554266419" y="638"/>
			<point x="428.1554266419" y="638"/>
			<point x="453.1554266419" y="638" type="curve" smooth="yes"/>
			<point x="454.1554266419" y="638"/>
			<point x="518.1554266419" y="638"/>
			<point x="538.1554266419" y="633" type="curve"/>
			<point x="544.1554266419" y="631"/>
			<point x="548.1554266419" y="629"/>
			<point x="548.1554266419" y="621" type="curve" smooth="yes"/>
			<point x="548.1554266419" y="616"/>
			<point x="546.1554266419" y="608"/>
			<point x="544.1554266419" y="601" type="curve" smooth="yes"/>
			<point x="506.5264266419" y="451.15"/>
			<point x="468.8974266419" y="301.3"/>
			<point x="431.1554266419" y="151" type="curve" smooth="yes"/>
			<point x="409.1554266419" y="63"/>
			<point x="333.1554266419" y="12"/>
			<point x="269.1554266419" y="12" type="curve" smooth="yes"/>
			<point x="256.1554266419" y="12"/>
			<point x="191.1554266419" y="14"/>
			<point x="161.1554266419" y="54" type="curve"/>
			<point x="212.1554266419" y="61"/>
			<point x="229.1554266419" y="101"/>
			<point x="229.1554266419" y="126" type="curve" smooth="yes"/>
			<point x="229.1554266419" y="156"/>
			<point x="206.1554266419" y="174"/>
			<point x="178.1554266419" y="174" type="curve" smooth="yes"/>
			<point x="147.1554266419" y="174"/>
			<point x="104.1554266419" y="148"/>
			<point x="104.1554266419" y="90" type="curve" smooth="yes"/>
			<point x="104.1554266419" y="24"/>
			<point x="171.1554266419" y="-22"/>
		</contour>
	</outline>
</glyph>
<glyph name="K" format="2">
	<unicode hex="004B"/>
	<advance width="2276"/>
	<outline>
		<contour>
			<point x="768.3772635713" y="586" type="line"/>
			<point x="920.3772635713" y="1196" type="line" smooth="yes"/>
			<point x="936.3772635713" y="1260"/>
			<point x="940.3772635713" y="1276"/>
			<point x="1092.3772635713" y="1276" type="curve" smooth="yes"/>
			<point x="1152.3772635713" y="1276"/>
			<point x="1160.3772635713" y="1270"/>
			<point x="1172.3772635713" y="1316" type="curve" smooth="yes"/>
			<point x="1178.3772635713" y="1336"/>
			<point x="1172.3772635713" y="1366"/>
			<point x="1138.3772635713" y="1366" type="curve" smooth="yes"/>
			<point x="1096.3772635713" y="1366"/>
			<point x="1030.3772635713" y="1360"/>
			<point x="986.3772635713" y="1360" type="curve" smooth="yes"/>
			<point x="888.3772635713" y="1358"/>
			<point x="808.3772635713" y="1358"/>
			<point x="710.3772635713" y="1360" type="curve" smooth="yes"/>
			<point x="664.3772635713" y="1360"/>
			<point x="614.3772635713" y="1366"/>
			<point x="570.3772635713" y="1366" type="curve" smooth="yes"/>
			<point x="556.3772635713" y="1366"/>
			<point x="520.3772635713" y="1366"/>
			<point x="520.3772635713" y="1310" type="curve" smooth="yes"/>
			<point x="520.3772635713" y="1276"/>
			<point x="544.3772635713" y="1276"/>
			<point x="594.3772635713" y="1276" type="curve" smooth="yes"/>
			<point x="608.3772635713" y="1276"/>
			<point x="642.3772635713" y="1276"/>
			<point x="676.3772635713" y="1272" type="curve" smooth="yes"/>
			<point x="692.3772635713" y="1270"/>
			<point x="708.3772635713" y="1268"/>
			<point x="722.3772635713" y="1264" type="curve"/>
			<point x="722.3772635713" y="1240"/>
			<point x="722.3772635713" y="1236"/>
			<point x="716.3772635713" y="1214" type="curve" smooth="yes"/>
			<point x="454.3772635713" y="166" type="line" smooth="yes"/>
			<point x="438.3772635713" y="106"/>
			<point x="436.3772635713" y="90"/>
			<point x="282.3772635713" y="90" type="curve" smooth="yes"/>
			<point x="232.3772635713" y="90"/>
			<point x="200.3772635713" y="90"/>
			<point x="200.3772635713" y="34" type="curve" smooth="yes"/>
			<point x="200.3772635713" y="18"/>
			<point x="214.3772635713" y="0"/>
			<point x="236.3772635713" y="0" type="curve" smooth="yes"/>
			<point x="278.3772635713" y="0"/>
			<point x="326.3772635713" y="6"/>
			<point x="370.3772635713" y="6" type="curve" smooth="yes"/>
			<point x="470.3772635713" y="6"/>
			<point x="566.3772635713" y="6"/>
			<point x="666.3772635713" y="6" type="curve" smooth="yes"/>
			<point x="712.3772635713" y="6"/>
			<point x="762.3772635713" y="0"/>
			<point x="806.3772635713" y="0" type="curve" smooth="yes"/>
			<point x="818.3772635713" y="0"/>
			<point x="856.3772635713" y="0"/>
			<point x="856.3772635713" y="56" type="curve" smooth="yes"/>
			<point x="856.3772635713" y="90"/>
			<point x="828.3772635713" y="90"/>
			<point x="790.3772635713" y="90" type="curve" smooth="yes"/>
			<point x="786.3772635713" y="90"/>
			<point x="738.3772635713" y="90"/>
			<point x="704.3772635713" y="94" type="curve" smooth="yes"/>
			<point x="654.3772635713" y="98"/>
			<point x="652.3772635713" y="100"/>
			<point x="652.3772635713" y="116" type="curve" smooth="yes"/>
			<point x="652.3772635713" y="124"/>
			<point x="676.3772635713" y="214"/>
			<point x="688.3772635713" y="266" type="curve" smooth="yes"/>
			<point x="692.3772635713" y="280"/>
			<point x="736.3772635713" y="462"/>
			<point x="738.3772635713" y="468" type="curve" smooth="yes"/>
			<point x="742.3772635713" y="478"/>
			<point x="744.3772635713" y="482"/>
			<point x="766.3772635713" y="496" type="curve" smooth="yes"/>
			<point x="1086.3772635713" y="700" type="line" smooth="yes"/>
			<point x="1110.3772635713" y="714"/>
			<point x="1110.3772635713" y="718"/>
			<point x="1118.3772635713" y="706" type="curve" smooth="yes"/>
			<point x="1214.3772635713" y="556"/>
			<point x="1334.3772635713" y="362"/>
			<point x="1450.3772635713" y="168" type="curve" smooth="yes"/>
			<point x="1468.3772635713" y="140"/>
			<point x="1470.3772635713" y="136"/>
			<point x="1470.3772635713" y="128" type="curve" smooth="yes"/>
			<point x="1470.3772635713" y="90"/>
			<point x="1396.3772635713" y="90"/>
			<point x="1382.3772635713" y="90" type="curve" smooth="yes"/>
			<point x="1358.3772635713" y="90"/>
			<point x="1324.3772635713" y="90"/>
			<point x="1324.3772635713" y="34" type="curve" smooth="yes"/>
			<point x="1324.3772635713" y="18"/>
			<point x="1336.3772635713" y="0"/>
			<point x="1360.3772635713" y="0" type="curve" smooth="yes"/>
			<point x="1402.3772635713" y="0"/>
			<point x="1450.3772635713" y="6"/>
			<point x="1494.3772635713" y="6" type="curve" smooth="yes"/>
			<point x="1574.3772635713" y="6"/>
			<point x="1660.3772635713" y="6"/>
			<point x="1744.3772635713" y="6" type="curve" smooth="yes"/>
			<point x="1774.3772635713" y="6"/>
			<point x="1856.3772635713" y="0"/>
			<point x="1858.3772635713" y="0" type="curve" smooth="yes"/>
			<point x="1890.3772635713" y="0"/>
			<point x="1906.3772635713" y="24"/>
			<point x="1906.3772635713" y="56" type="curve" smooth="yes"/>
			<point x="1906.3772635713" y="90"/>
			<point x="1872.3772635713" y="90"/>
			<point x="1850.3772635713" y="90" type="curve" smooth="yes"/>
			<point x="1772.3772635713" y="90"/>
			<point x="1732.3772635713" y="104"/>
			<point x="1702.3772635713" y="154" type="curve" smooth="yes"/>
			<point x="1300.3772635713" y="802" type="line" smooth="yes"/>
			<point x="1294.3772635713" y="812"/>
			<point x="1288.3772635713" y="822"/>
			<point x="1288.3772635713" y="826" type="curve" smooth="yes"/>
			<point x="1288.3772635713" y="830"/>
			<point x="1338.3772635713" y="862"/>
			<point x="1366.3772635713" y="880" type="curve" smooth="yes"/>
			<point x="1700.3772635713" y="1092"/>
			<point x="1820.3772635713" y="1170"/>
			<point x="1912.3772635713" y="1214" type="curve" smooth="yes"/>
			<point x="1974.3772635713" y="1242"/>
			<point x="2052.3772635713" y="1272"/>
			<point x="2136.3772635713" y="1276" type="curve" smooth="yes"/>
			<point x="2160.3772635713" y="1278"/>
			<point x="2190.3772635713" y="1278"/>
			<point x="2190.3772635713" y="1332" type="curve" smooth="yes"/>
			<point x="2190.3772635713" y="1360"/>
			<point x="2170.3772635713" y="1366"/>
			<point x="2156.3772635713" y="1364" type="curve" smooth="yes"/>
			<point x="2096.3772635713" y="1360"/>
			<point x="2040.3772635713" y="1358"/>
			<point x="1994.3772635713" y="1358" type="curve" smooth="yes"/>
			<point x="1952.3772635713" y="1358"/>
			<point x="1908.3772635713" y="1358"/>
			<point x="1866.3772635713" y="1360" type="curve" smooth="yes"/>
			<point x="1824.3772635713" y="1362"/>
			<point x="1778.3772635713" y="1366"/>
			<point x="1738.3772635713" y="1366" type="curve" smooth="yes"/>
			<point x="1702.3772635713" y="1366"/>
			<point x="1690.3772635713" y="1340"/>
			<point x="1690.3772635713" y="1310" type="curve" smooth="yes"/>
			<point x="1690.3772635713" y="1308"/>
			<point x="1690.3772635713" y="1278"/>
			<point x="1726.3772635713" y="1276" type="curve" smooth="yes"/>
			<point x="1770.3772635713" y="1274"/>
			<point x="1770.3772635713" y="1262"/>
			<point x="1770.3772635713" y="1254" type="curve" smooth="yes"/>
			<point x="1770.3772635713" y="1234"/>
			<point x="1726.3772635713" y="1196"/>
			<point x="1684.3772635713" y="1170" type="curve" smooth="yes"/>
		</contour>
	</outline>
</glyph>
<glyph name="L" format="2">
	<unicode hex="004C"/>
	<advance width="1910"/>
	<outline>
		<contour>
			<point x="454.3772635713" y="166" type="line" smooth="yes"/>
			<point x="438.3772635713" y="106"/>
			<point x="436.3772635713" y="90"/>
			<point x="284.3772635713" y="90" type="curve" smooth="yes"/>
			<point x="232.3772635713" y="90"/>
			<point x="200.3772635713" y="90"/>
			<point x="200.3772635713" y="34" type="curve" smooth="yes"/>
			<point x="200.3772635713" y="0"/>
			<point x="232.3772635713" y="0"/>
			<point x="266.3772635713" y="0" type="curve" smooth="yes"/>
			<point x="1400.3772635713" y="0" type="line" smooth="yes"/>
			<point x="1452.3772635713" y="0"/>
			<point x="1454.3772635713" y="2"/>
			<point x="1472.3772635713" y="46" type="curve" smooth="yes"/>
			<point x="1634.3772635713" y="462" type="line" smooth="yes"/>
			<point x="1644.3772635713" y="490"/>
			<point x="1650.3772635713" y="508"/>
			<point x="1650.3772635713" y="510" type="curve" smooth="yes"/>
			<point x="1650.3772635713" y="524"/>
			<point x="1640.3772635713" y="544"/>
			<point x="1608.3772635713" y="544" type="curve" smooth="yes"/>
			<point x="1578.3772635713" y="544"/>
			<point x="1576.3772635713" y="538"/>
			<point x="1554.3772635713" y="486" type="curve" smooth="yes"/>
			<point x="1448.3772635713" y="230"/>
			<point x="1320.3772635713" y="90"/>
			<point x="990.3772635713" y="90" type="curve" smooth="yes"/>
			<point x="712.3772635713" y="90" type="line" smooth="yes"/>
			<point x="696.3772635713" y="90"/>
			<point x="666.3772635713" y="90"/>
			<point x="648.3772635713" y="94" type="curve"/>
			<point x="650.3772635713" y="110"/>
			<point x="650.3772635713" y="114"/>
			<point x="654.3772635713" y="130" type="curve" smooth="yes"/>
			<point x="920.3772635713" y="1196" type="line" smooth="yes"/>
			<point x="942.3772635713" y="1284"/>
			<point x="974.3772635713" y="1272"/>
			<point x="1134.3772635713" y="1276" type="curve" smooth="yes"/>
			<point x="1206.3772635713" y="1278"/>
			<point x="1230.3772635713" y="1276"/>
			<point x="1230.3772635713" y="1332" type="curve" smooth="yes"/>
			<point x="1230.3772635713" y="1354"/>
			<point x="1214.3772635713" y="1366"/>
			<point x="1192.3772635713" y="1366" type="curve" smooth="yes"/>
			<point x="1140.3772635713" y="1366"/>
			<point x="1084.3772635713" y="1360"/>
			<point x="1032.3772635713" y="1360" type="curve" smooth="yes"/>
			<point x="924.3772635713" y="1358"/>
			<point x="816.3772635713" y="1358"/>
			<point x="712.3772635713" y="1360" type="curve" smooth="yes"/>
			<point x="666.3772635713" y="1360"/>
			<point x="614.3772635713" y="1366"/>
			<point x="570.3772635713" y="1366" type="curve" smooth="yes"/>
			<point x="556.3772635713" y="1366"/>
			<point x="520.3772635713" y="1366"/>
			<point x="520.3772635713" y="1310" type="curve" smooth="yes"/>
			<point x="520.3772635713" y="1276"/>
			<point x="546.3772635713" y="1276"/>
			<point x="594.3772635713" y="1276" type="curve" smooth="yes"/>
			<point x="607.3772635713" y="1276"/>
			<point x="640.3772635713" y="1276"/>
			<point x="673.3772635713" y="1273" type="curve" smooth="yes"/>
			<point x="691.3772635713" y="1271"/>
			<point x="708.3772635713" y="1268"/>
			<point x="722.3772635713" y="1264" type="curve"/>
			<point x="722.3772635713" y="1244"/>
			<point x="722.3772635713" y="1236"/>
			<point x="716.3772635713" y="1214" type="curve" smooth="yes"/>
		</contour>
	</outline>
</glyph>
<glyph name="M" format="2">
  <advance width="1284"/>
  <unicode hex="004D"/>
  <outline>
    <contour>
      <point x="294.18863178562583" y="112.0" type="line" smooth="yes"/>
      <point x="287.18863178562583" y="85.0"/>
      <point x="278.18863178562583" y="47.0"/>
      <point x="185.18863178562583" y="45.0" type="curve" smooth="yes"/>
      <point x="177.18863178562583" y="45.0"/>
      <point x="160.18863178562583" y="44.0"/>
      <point x="160.18863178562583" y="17.0" type="curve" smooth="yes"/>
      <point x="160.18863178562583" y="8.0"/>
      <point x="168.18863178562583" y="0.0"/>
      <point x="177.18863178562583" y="0.0" type="curve" smooth="yes"/>
      <point x="195.18863178562583" y="0.0"/>
      <point x="219.18863178562583" y="4.0"/>
      <point x="296.11967972362584" y="3.7464333888" type="curve" smooth="yes"/>
      <point x="341.18863178562583" y="4.0"/>
      <point x="400.18863178562583" y="0.0"/>
      <point x="407.18863178562583" y="0.0" type="curve" smooth="yes"/>
      <point x="420.18863178562583" y="0.0"/>
      <point x="431.18863178562583" y="7.0"/>
      <point x="431.18863178562583" y="28.0" type="curve" smooth="yes"/>
      <point x="431.18863178562583" y="45.0"/>
      <point x="416.18863178562583" y="45.0"/>
      <point x="405.18863178562583" y="45.0" type="curve" smooth="yes"/>
      <point x="355.18863178562583" y="46.0"/>
      <point x="336.18863178562583" y="59.0"/>
      <point x="336.18863178562583" y="83.0" type="curve" smooth="yes"/>
      <point x="336.18863178562583" y="90.0"/>
      <point x="338.18863178562583" y="96.0"/>
      <point x="340.18863178562583" y="106.0" type="curve" smooth="yes"/>
      <point x="471.18863178562583" y="632.0" type="line"/>
      <point x="472.18863178562583" y="632.0" type="line"/>
      <point x="609.1886317856258" y="29.0" type="line" smooth="yes"/>
      <point x="613.1886317856258" y="12.0"/>
      <point x="616.1886317856258" y="0.0"/>
      <point x="635.1886317856258" y="0.0" type="curve" smooth="yes"/>
      <point x="645.1886317856258" y="0.0"/>
      <point x="657.1886317856258" y="4.0"/>
      <point x="671.1886317856258" y="23.0" type="curve" smooth="yes"/>
      <point x="1118.1886317856258" y="640.0" type="line"/>
      <point x="1119.1886317856258" y="639.0" type="line"/>
      <point x="980.1886317856258" y="83.0" type="line" smooth="yes"/>
      <point x="972.1886317856258" y="53.0"/>
      <point x="970.1886317856258" y="45.0"/>
      <point x="894.1886317856258" y="45.0" type="curve" smooth="yes"/>
      <point x="869.1886317856258" y="45.0"/>
      <point x="853.1886317856258" y="45.0"/>
      <point x="853.1886317856258" y="17.0" type="curve" smooth="yes"/>
      <point x="853.1886317856258" y="9.0"/>
      <point x="860.1886317856258" y="0.0"/>
      <point x="871.1886317856258" y="0.0" type="curve" smooth="yes"/>
      <point x="892.1886317856258" y="0.0"/>
      <point x="916.1886317856258" y="3.0"/>
      <point x="938.1886317856258" y="3.0" type="curve" smooth="yes"/>
      <point x="982.1886317856258" y="4.0"/>
      <point x="1029.1886317856258" y="4.0"/>
      <point x="1075.1886317856258" y="3.0" type="curve" smooth="yes"/>
      <point x="1097.1886317856258" y="3.0"/>
      <point x="1122.1886317856258" y="0.0"/>
      <point x="1144.1886317856258" y="0.0" type="curve" smooth="yes"/>
      <point x="1150.1886317856258" y="0.0"/>
      <point x="1169.1886317856258" y="0.0"/>
      <point x="1169.1886317856258" y="28.0" type="curve" smooth="yes"/>
      <point x="1169.1886317856258" y="45.0"/>
      <point x="1155.1886317856258" y="45.0"/>
      <point x="1136.1886317856258" y="45.0" type="curve" smooth="yes"/>
      <point x="1134.1886317856258" y="45.0"/>
      <point x="1110.1886317856258" y="45.0"/>
      <point x="1093.1886317856258" y="47.0" type="curve" smooth="yes"/>
      <point x="1068.1886317856258" y="49.0"/>
      <point x="1067.1886317856258" y="50.0"/>
      <point x="1067.1886317856258" y="58.0" type="curve" smooth="yes"/>
      <point x="1067.1886317856258" y="60.0"/>
      <point x="1067.1886317856258" y="62.0"/>
      <point x="1070.1886317856258" y="72.0" type="curve" smooth="yes"/>
      <point x="1201.1886317856258" y="598.0" type="line" smooth="yes"/>
      <point x="1209.1886317856258" y="630.0"/>
      <point x="1211.1886317856258" y="638.0"/>
      <point x="1287.1886317856258" y="638.0" type="curve" smooth="yes"/>
      <point x="1317.1886317856258" y="638.0"/>
      <point x="1322.1886317856258" y="635.0"/>
      <point x="1327.1886317856258" y="658.0" type="curve" smooth="yes"/>
      <point x="1332.1886317856258" y="683.0"/>
      <point x="1315.1886317856258" y="683.0"/>
      <point x="1296.1886317856258" y="683.0" type="curve" smooth="yes"/>
      <point x="1145.1886317856258" y="683.0" type="line" smooth="yes"/>
      <point x="1123.1886317856258" y="683.0"/>
      <point x="1112.1886317856258" y="683.0"/>
      <point x="1097.1886317856258" y="663.0" type="curve" smooth="yes"/>
      <point x="682.1886317856258" y="91.0" type="line"/>
      <point x="554.1886317856258" y="656.0" type="line" smooth="yes"/>
      <point x="548.1886317856258" y="682.0"/>
      <point x="542.1886317856258" y="683.0"/>
      <point x="515.1886317856258" y="683.0" type="curve" smooth="yes"/>
      <point x="355.18863178562583" y="683.0" type="line" smooth="yes"/>
      <point x="335.18863178562583" y="683.0"/>
      <point x="320.18863178562583" y="683.0"/>
      <point x="320.18863178562583" y="655.0" type="curve" smooth="yes"/>
      <point x="320.18863178562583" y="638.0"/>
      <point x="332.18863178562583" y="638.0"/>
      <point x="357.18863178562583" y="638.0" type="curve" smooth="yes"/>
      <point x="363.75113178562583" y="638.0"/>
      <point x="380.21890522312583" y="638.0"/>
      <point x="396.7001369126258" y="636.3042602539" type="curve" smooth="yes"/>
      <point x="405.33316303562583" y="635.416015625"/>
      <point x="413.96988178562583" y="634.0625"/>
      <point x="421.18863178562583" y="632.0" type="curve"/>
      <point x="421.18863178562583" y="620.0"/>
      <point x="421.18863178562583" y="618.0"/>
      <point x="418.18863178562583" y="607.0" type="curve" smooth="yes"/>
    </contour>
  </outline>
</glyph>
<glyph name="N" format="2">
	<unicode hex="004E"/>
	<advance width="1075"/>
	<outline>
		<contour>
			<point x="203.1554266419" y="112" type="line" smooth="yes"/>
			<point x="196.1554266419" y="85"/>
			<point x="187.1554266419" y="47"/>
			<point x="94.1554266419" y="45" type="curve"/>
			<point x="86.1554266419" y="45"/>
			<point x="69.1554266419" y="44"/>
			<point x="69.1554266419" y="17" type="curve" smooth="yes"/>
			<point x="69.1554266419" y="8"/>
			<point x="77.1554266419" y="0"/>
			<point x="86.1554266419" y="0" type="curve" smooth="yes"/>
			<point x="113.1554266419" y="0"/>
			<point x="133.1554266419" y="4"/>
			<point x="200.1554266419" y="4" type="curve" smooth="yes"/>
			<point x="278.1554266419" y="4"/>
			<point x="298.1554266419" y="0"/>
			<point x="316.1554266419" y="0" type="curve" smooth="yes"/>
			<point x="329.1554266419" y="0"/>
			<point x="340.1554266419" y="7"/>
			<point x="340.1554266419" y="28" type="curve" smooth="yes"/>
			<point x="340.1554266419" y="45"/>
			<point x="325.1554266419" y="45"/>
			<point x="314.1554266419" y="45" type="curve" smooth="yes"/>
			<point x="264.1554266419" y="46"/>
			<point x="245.1554266419" y="59"/>
			<point x="245.1554266419" y="83" type="curve" smooth="yes"/>
			<point x="245.1554266419" y="90"/>
			<point x="247.1554266419" y="96"/>
			<point x="249.1554266419" y="106" type="curve" smooth="yes"/>
			<point x="374.1554266419" y="608" type="line"/>
			<point x="374.1554266419" y="608"/>
			<point x="374.1554266419" y="608"/>
			<point x="374.1554266419" y="608" type="curve"/>
			<point x="718.1554266419" y="18" type="line" smooth="yes"/>
			<point x="728.1554266419" y="0"/>
			<point x="734.1554266419" y="0"/>
			<point x="745.1554266419" y="0" type="curve" smooth="yes"/>
			<point x="765.1554266419" y="0"/>
			<point x="766.1554266419" y="5"/>
			<point x="771.1554266419" y="26" type="curve" smooth="yes"/>
			<point x="907.1554266419" y="569" type="line" smooth="yes"/>
			<point x="914.1554266419" y="597"/>
			<point x="924.1554266419" y="635"/>
			<point x="1015.1554266419" y="638" type="curve" smooth="yes"/>
			<point x="1023.1554266419" y="638"/>
			<point x="1041.1554266419" y="639"/>
			<point x="1041.1554266419" y="666" type="curve" smooth="yes"/>
			<point x="1041.1554266419" y="670"/>
			<point x="1038.1554266419" y="683"/>
			<point x="1024.1554266419" y="683" type="curve" smooth="yes"/>
			<point x="1008.1554266419" y="683"/>
			<point x="977.1554266419" y="679"/>
			<point x="911.1554266419" y="679" type="curve" smooth="yes"/>
			<point x="843.1554266419" y="679"/>
			<point x="813.1554266419" y="683"/>
			<point x="795.1554266419" y="683" type="curve" smooth="yes"/>
			<point x="788.1554266419" y="683"/>
			<point x="771.1554266419" y="683"/>
			<point x="771.1554266419" y="655" type="curve" smooth="yes"/>
			<point x="771.1554266419" y="638"/>
			<point x="786.1554266419" y="638"/>
			<point x="796.1554266419" y="638" type="curve" smooth="yes"/>
			<point x="862.1554266419" y="637"/>
			<point x="866.1554266419" y="616"/>
			<point x="866.1554266419" y="599" type="curve" smooth="yes"/>
			<point x="866.1554266419" y="592"/>
			<point x="864.1554266419" y="587"/>
			<point x="863.1554266419" y="581" type="curve"/>
			<point x="755.1554266419" y="151" type="line"/>
			<point x="455.1554266419" y="666" type="line" smooth="yes"/>
			<point x="445.1554266419" y="683"/>
			<point x="443.1554266419" y="683"/>
			<point x="419.1554266419" y="683" type="curve" smooth="yes"/>
			<point x="264.1554266419" y="683" type="line" smooth="yes"/>
			<point x="244.1554266419" y="683"/>
			<point x="229.1554266419" y="683"/>
			<point x="229.1554266419" y="655" type="curve" smooth="yes"/>
			<point x="229.1554266419" y="638"/>
			<point x="242.1554266419" y="638"/>
			<point x="266.1554266419" y="638" type="curve" smooth="yes"/>
			<point x="269.1554266419" y="638"/>
			<point x="309.1554266419" y="638"/>
			<point x="334.1554266419" y="634" type="curve"/>
			<point x="334.1554266419" y="634"/>
			<point x="334.1554266419" y="634"/>
			<point x="334.1554266419" y="634" type="curve"/>
		</contour>
	</outline>
</glyph>
<glyph name="O" format="2">
	<unicode hex="004F"/>
	<advance width="2094"/>
	<outline>
		<contour>
			<point x="1900.3772635713" y="834" type="curve" smooth="yes"/>
			<point x="1900.3772635713" y="1156"/>
			<point x="1638.3772635713" y="1410"/>
			<point x="1230.3772635713" y="1410" type="curve" smooth="yes"/>
			<point x="684.3772635713" y="1410"/>
			<point x="194.3772635713" y="962"/>
			<point x="194.3772635713" y="526" type="curve" smooth="yes"/>
			<point x="194.3772635713" y="204"/>
			<point x="458.3772635713" y="-44"/>
			<point x="866.3772635713" y="-44" type="curve" smooth="yes"/>
			<point x="1404.3772635713" y="-44"/>
			<point x="1900.3772635713" y="388"/>
		</contour>
		<contour>
			<point x="886.3772635713" y="32" type="curve" smooth="yes"/>
			<point x="684.3772635713" y="32"/>
			<point x="422.3772635713" y="138"/>
			<point x="422.3772635713" y="498" type="curve" smooth="yes"/>
			<point x="422.3772635713" y="735"/>
			<point x="518.3772635713" y="950"/>
			<point x="669.3772635713" y="1103" type="curve" smooth="yes"/>
			<point x="811.3772635713" y="1247"/>
			<point x="1003.3772635713" y="1336"/>
			<point x="1210.3772635713" y="1336" type="curve" smooth="yes"/>
			<point x="1464.3772635713" y="1336"/>
			<point x="1684.3772635713" y="1194"/>
			<point x="1684.3772635713" y="892" type="curve" smooth="yes"/>
			<point x="1684.3772635713" y="772"/>
			<point x="1636.3772635713" y="518"/>
			<point x="1454.3772635713" y="304" type="curve" smooth="yes"/>
			<point x="1316.3772635713" y="144"/>
			<point x="1100.3772635713" y="32"/>
		</contour>
	</outline>
</glyph>
<glyph name="P" format="2">
	<unicode hex="0050"/>
	<advance width="875"/>
	<outline>
		<contour>
			<point x="198.1554266419" y="83" type="line" smooth="yes"/>
			<point x="190.1554266419" y="53"/>
			<point x="189.1554266419" y="45"/>
			<point x="112.1554266419" y="45" type="curve" smooth="yes"/>
			<point x="87.1554266419" y="45"/>
			<point x="71.1554266419" y="45"/>
			<point x="71.1554266419" y="17" type="curve" smooth="yes"/>
			<point x="71.1554266419" y="9"/>
			<point x="78.1554266419" y="0"/>
			<point x="89.1554266419" y="0" type="curve" smooth="yes"/>
			<point x="110.1554266419" y="0"/>
			<point x="134.1554266419" y="3"/>
			<point x="156.1554266419" y="3" type="curve" smooth="yes"/>
			<point x="206.1554266419" y="4"/>
			<point x="254.1554266419" y="4"/>
			<point x="304.1554266419" y="3" type="curve" smooth="yes"/>
			<point x="327.1554266419" y="3"/>
			<point x="352.1554266419" y="0"/>
			<point x="374.1554266419" y="0" type="curve" smooth="yes"/>
			<point x="380.1554266419" y="0"/>
			<point x="399.1554266419" y="0"/>
			<point x="399.1554266419" y="28" type="curve" smooth="yes"/>
			<point x="399.1554266419" y="45"/>
			<point x="385.1554266419" y="45"/>
			<point x="366.1554266419" y="45" type="curve" smooth="yes"/>
			<point x="364.1554266419" y="45"/>
			<point x="340.1554266419" y="45"/>
			<point x="323.1554266419" y="47" type="curve" smooth="yes"/>
			<point x="298.1554266419" y="49"/>
			<point x="297.1554266419" y="50"/>
			<point x="297.1554266419" y="58" type="curve" smooth="yes"/>
			<point x="297.1554266419" y="60"/>
			<point x="297.1554266419" y="62"/>
			<point x="300.1554266419" y="72" type="curve" smooth="yes"/>
			<point x="357.1554266419" y="303" type="line"/>
			<point x="575.1554266419" y="303" type="line" smooth="yes"/>
			<point x="729.1554266419" y="303"/>
			<point x="909.1554266419" y="397"/>
			<point x="909.1554266419" y="521" type="curve" smooth="yes"/>
			<point x="909.1554266419" y="614"/>
			<point x="805.1554266419" y="683"/>
			<point x="660.1554266419" y="683" type="curve" smooth="yes"/>
			<point x="266.1554266419" y="683" type="line" smooth="yes"/>
			<point x="246.1554266419" y="683"/>
			<point x="231.1554266419" y="683"/>
			<point x="231.1554266419" y="655" type="curve" smooth="yes"/>
			<point x="231.1554266419" y="638"/>
			<point x="243.1554266419" y="638"/>
			<point x="268.1554266419" y="638" type="curve" smooth="yes"/>
			<point x="274.2492266419" y="638"/>
			<point x="288.8839382831" y="638"/>
			<point x="304.139425663" y="636.6422624167" type="curve" smooth="yes"/>
			<point x="313.9183788291" y="635.7719360936"/>
			<point x="323.9524066419" y="634.34372"/>
			<point x="332.1554266419" y="632" type="curve"/>
			<point x="332.1554266419" y="620"/>
			<point x="332.1554266419" y="618"/>
			<point x="329.1554266419" y="607" type="curve" smooth="yes"/>
		</contour>
		<contour>
			<point x="363.1554266419" y="342" type="line"/>
			<point x="429.1554266419" y="605" type="line" smooth="yes"/>
			<point x="437.1554266419" y="636"/>
			<point x="437.1554266419" y="638"/>
			<point x="479.1554266419" y="638" type="curve" smooth="yes"/>
			<point x="627.1554266419" y="638" type="line" smooth="yes"/>
			<point x="729.1554266419" y="638"/>
			<point x="798.1554266419" y="611"/>
			<point x="798.1554266419" y="535" type="curve" smooth="yes"/>
			<point x="798.1554266419" y="506"/>
			<point x="784.1554266419" y="428"/>
			<point x="727.1554266419" y="387" type="curve" smooth="yes"/>
			<point x="670.1554266419" y="346"/>
			<point x="592.1554266419" y="342"/>
			<point x="552.1554266419" y="342" type="curve" smooth="yes"/>
		</contour>
	</outline>
</glyph>
<glyph name="Q" format="2">
  <advance width="1082"/>
  <unicode hex="0051"/>
  <outline>
    <contour>
      <point x="151.18863178562583" y="263.0" type="curve" smooth="yes"/>
      <point x="151.18863178562583" y="102.0"/>
      <point x="283.18863178562583" y="-22.0"/>
      <point x="487.18863178562583" y="-22.0" type="curve" smooth="yes"/>
      <point x="501.18863178562583" y="-22.0"/>
      <point x="547.1886317856258" y="-22.0"/>
      <point x="605.1886317856258" y="-8.0" type="curve"/>
      <point x="607.9712717856258" y="-40.34819"/>
      <point x="610.6329260767258" y="-72.69638"/>
      <point x="617.1293458168258" y="-101.1309013012" type="curve" smooth="yes"/>
      <point x="629.3099227133258" y="-154.4447090723"/>
      <point x="654.9716317856258" y="-194.0"/>
      <point x="720.1886317856258" y="-194.0" type="curve" smooth="yes"/>
      <point x="847.1886317856258" y="-194.0"/>
      <point x="916.1886317856258" y="-30.0"/>
      <point x="916.1886317856258" y="0.0" type="curve" smooth="yes"/>
      <point x="916.1886317856258" y="10.0"/>
      <point x="906.1886317856258" y="16.0"/>
      <point x="899.1886317856258" y="16.0" type="curve" smooth="yes"/>
      <point x="898.1886317856258" y="16.0"/>
      <point x="888.1886317856258" y="16.0"/>
      <point x="883.1886317856258" y="4.0" type="curve"/>
      <point x="856.1886317856258" y="-75.0"/>
      <point x="766.1886317856258" y="-80.0"/>
      <point x="749.1886317856258" y="-80.0" type="curve" smooth="yes"/>
      <point x="712.1886317856258" y="-80.0"/>
      <point x="686.1886317856258" y="-69.0"/>
      <point x="659.1886317856258" y="7.0" type="curve"/>
      <point x="861.1886317856258" y="77.0"/>
      <point x="1004.1886317856258" y="249.0"/>
      <point x="1004.1886317856258" y="417.0" type="curve" smooth="yes"/>
      <point x="1004.1886317856258" y="578.0"/>
      <point x="873.1886317856258" y="705.0"/>
      <point x="669.1886317856258" y="705.0" type="curve" smooth="yes"/>
      <point x="396.18863178562583" y="705.0"/>
      <point x="151.18863178562583" y="481.0"/>
    </contour>
    <contour>
      <point x="258.18863178562583" y="243.0" type="curve" smooth="yes"/>
      <point x="258.18863178562583" y="354.4462"/>
      <point x="308.13564376802583" y="470.325566744"/>
      <point x="390.9986705673258" y="552.8807008556" type="curve" smooth="yes"/>
      <point x="460.5582521104259" y="622.181821088"/>
      <point x="553.3131117856258" y="668.0"/>
      <point x="659.1886317856258" y="668.0" type="curve" smooth="yes"/>
      <point x="788.1886317856258" y="668.0"/>
      <point x="897.1886317856258" y="592.0"/>
      <point x="897.1886317856258" y="438.0" type="curve" smooth="yes"/>
      <point x="897.1886317856258" y="324.0"/>
      <point x="834.1886317856258" y="130.0"/>
      <point x="645.1886317856258" y="47.0" type="curve"/>
      <point x="623.1886317856258" y="108.0"/>
      <point x="592.1886317856258" y="154.0"/>
      <point x="527.1886317856258" y="154.0" type="curve" smooth="yes"/>
      <point x="464.18863178562583" y="154.0"/>
      <point x="404.18863178562583" y="107.0"/>
      <point x="404.18863178562583" y="52.0" type="curve" smooth="yes"/>
      <point x="404.18863178562583" y="44.0"/>
      <point x="404.18863178562583" y="35.0"/>
      <point x="408.18863178562583" y="28.0" type="curve"/>
      <point x="298.18863178562583" y="64.0"/>
      <point x="258.18863178562583" y="150.0"/>
    </contour>
    <contour>
      <point x="438.18863178562583" y="52.0" type="curve" smooth="yes"/>
      <point x="438.18863178562583" y="89.0"/>
      <point x="482.18863178562583" y="120.0"/>
      <point x="527.1886317856258" y="120.0" type="curve" smooth="yes"/>
      <point x="569.1886317856258" y="120.0"/>
      <point x="593.1886317856258" y="97.0"/>
      <point x="601.1886317856258" y="31.0" type="curve"/>
      <point x="551.1886317856258" y="16.0"/>
      <point x="515.1886317856258" y="15.0"/>
      <point x="497.18863178562583" y="15.0" type="curve" smooth="yes"/>
      <point x="481.18863178562583" y="15.0"/>
      <point x="438.18863178562583" y="15.0"/>
    </contour>
  </outline>
</glyph>
<glyph name="R" format="2">
	<unicode hex="0052"/>
	<advance width="2058"/>
	<outline>
		<contour>
			<point x="734" y="718" type="line"/>
			<point x="858" y="1210" type="line" smooth="yes"/>
			<point x="874" y="1272"/>
			<point x="874" y="1276"/>
			<point x="958" y="1276" type="curve" smooth="yes"/>
			<point x="1034" y="1276"/>
			<point x="1110" y="1276"/>
			<point x="1186" y="1276" type="curve" smooth="yes"/>
			<point x="1410" y="1276"/>
			<point x="1560" y="1222"/>
			<point x="1560" y="1064" type="curve" smooth="yes"/>
			<point x="1560" y="978"/>
			<point x="1512" y="868"/>
			<point x="1414" y="802" type="curve"/>
			<point x="1396" y="792"/>
			<point x="1282" y="718"/>
			<point x="1042" y="718" type="curve" smooth="yes"/>
		</contour>
		<contour>
			<point x="1786" y="1048" type="curve" smooth="yes"/>
			<point x="1786" y="1230"/>
			<point x="1540" y="1366"/>
			<point x="1224" y="1366" type="curve" smooth="yes"/>
			<point x="532" y="1366" type="line" smooth="yes"/>
			<point x="492" y="1366"/>
			<point x="462" y="1366"/>
			<point x="462" y="1310" type="curve" smooth="yes"/>
			<point x="462" y="1276"/>
			<point x="486" y="1276"/>
			<point x="536" y="1276" type="curve" smooth="yes"/>
			<point x="549" y="1276"/>
			<point x="579" y="1276"/>
			<point x="611" y="1273" type="curve" smooth="yes"/>
			<point x="629" y="1271"/>
			<point x="649" y="1269"/>
			<point x="664" y="1264" type="curve"/>
			<point x="664" y="1240"/>
			<point x="664" y="1236"/>
			<point x="658" y="1214" type="curve" smooth="yes"/>
			<point x="396" y="166" type="line" smooth="yes"/>
			<point x="380" y="106"/>
			<point x="378" y="90"/>
			<point x="224" y="90" type="curve" smooth="yes"/>
			<point x="174" y="90"/>
			<point x="142" y="90"/>
			<point x="142" y="34" type="curve" smooth="yes"/>
			<point x="142" y="18"/>
			<point x="156" y="0"/>
			<point x="178" y="0" type="curve" smooth="yes"/>
			<point x="220" y="0"/>
			<point x="268" y="6"/>
			<point x="312" y="6" type="curve" smooth="yes"/>
			<point x="410" y="8"/>
			<point x="506" y="8"/>
			<point x="604" y="6" type="curve" smooth="yes"/>
			<point x="648" y="6"/>
			<point x="698" y="0"/>
			<point x="740" y="0" type="curve" smooth="yes"/>
			<point x="752" y="0"/>
			<point x="790" y="0"/>
			<point x="790" y="56" type="curve" smooth="yes"/>
			<point x="790" y="90"/>
			<point x="762" y="90"/>
			<point x="724" y="90" type="curve" smooth="yes"/>
			<point x="720" y="90"/>
			<point x="672" y="90"/>
			<point x="638" y="94" type="curve" smooth="yes"/>
			<point x="588" y="98"/>
			<point x="586" y="100"/>
			<point x="586" y="116" type="curve" smooth="yes"/>
			<point x="586" y="120"/>
			<point x="586" y="124"/>
			<point x="592" y="144" type="curve" smooth="yes"/>
			<point x="718" y="650" type="line"/>
			<point x="1034" y="650" type="line" smooth="yes"/>
			<point x="1180" y="650"/>
			<point x="1322" y="598"/>
			<point x="1322" y="474" type="curve" smooth="yes"/>
			<point x="1322" y="450"/>
			<point x="1304" y="382"/>
			<point x="1292" y="336" type="curve" smooth="yes"/>
			<point x="1280" y="286"/>
			<point x="1264" y="222"/>
			<point x="1264" y="184" type="curve" smooth="yes"/>
			<point x="1264" y="-8"/>
			<point x="1468" y="-44"/>
			<point x="1592" y="-44" type="curve" smooth="yes"/>
			<point x="1790" y="-44"/>
			<point x="1884" y="148"/>
			<point x="1884" y="194" type="curve" smooth="yes"/>
			<point x="1884" y="228"/>
			<point x="1854" y="228"/>
			<point x="1842" y="228" type="curve" smooth="yes"/>
			<point x="1812" y="228"/>
			<point x="1808" y="216"/>
			<point x="1798" y="190" type="curve" smooth="yes"/>
			<point x="1764" y="88"/>
			<point x="1676" y="24"/>
			<point x="1602" y="24" type="curve" smooth="yes"/>
			<point x="1550" y="24"/>
			<point x="1494" y="40"/>
			<point x="1494" y="168" type="curve" smooth="yes"/>
			<point x="1494" y="212"/>
			<point x="1510" y="324"/>
			<point x="1516" y="374" type="curve" smooth="yes"/>
			<point x="1524" y="432"/>
			<point x="1524" y="440"/>
			<point x="1524" y="452" type="curve" smooth="yes"/>
			<point x="1524" y="608"/>
			<point x="1388" y="660"/>
			<point x="1326" y="682" type="curve"/>
			<point x="1552" y="738"/>
			<point x="1786" y="866"/>
		</contour>
	</outline>
</glyph>
<glyph name="S" format="2">
	<unicode hex="0053"/>
	<advance width="856"/>
	<outline>
		<contour>
			<point x="202.1554266419" y="484" type="curve" smooth="yes"/>
			<point x="202.1554266419" y="412"/>
			<point x="257.1554266419" y="360"/>
			<point x="333.1554266419" y="339" type="curve" smooth="yes"/>
			<point x="344.1554266419" y="336"/>
			<point x="428.1554266419" y="319"/>
			<point x="449.1554266419" y="315" type="curve" smooth="yes"/>
			<point x="535.1554266419" y="297"/>
			<point x="553.1554266419" y="293"/>
			<point x="580.1554266419" y="271" type="curve" smooth="yes"/>
			<point x="604.1554266419" y="252"/>
			<point x="618.1554266419" y="226"/>
			<point x="618.1554266419" y="195" type="curve" smooth="yes"/>
			<point x="618.1554266419" y="115"/>
			<point x="522.1554266419" y="23"/>
			<point x="387.1554266419" y="23" type="curve" smooth="yes"/>
			<point x="314.1554266419" y="23"/>
			<point x="165.1554266419" y="38"/>
			<point x="165.1554266419" y="161" type="curve" smooth="yes"/>
			<point x="165.1554266419" y="188"/>
			<point x="172.1554266419" y="208"/>
			<point x="172.1554266419" y="213" type="curve" smooth="yes"/>
			<point x="172.1554266419" y="226"/>
			<point x="159.1554266419" y="227"/>
			<point x="151.1554266419" y="227" type="curve" smooth="yes"/>
			<point x="138.1554266419" y="227"/>
			<point x="133.1554266419" y="226"/>
			<point x="128.1554266419" y="207" type="curve" smooth="yes"/>
			<point x="111.8384266419" y="140.733"/>
			<point x="95.5214266419" y="74.466"/>
			<point x="79.1554266419" y="8" type="curve" smooth="yes"/>
			<point x="77.1554266419" y="0"/>
			<point x="68.1554266419" y="-22"/>
			<point x="92.1554266419" y="-22" type="curve" smooth="yes"/>
			<point x="98.1554266419" y="-22"/>
			<point x="99.1554266419" y="-21"/>
			<point x="113.1554266419" y="-8" type="curve" smooth="yes"/>
			<point x="125.1554266419" y="4"/>
			<point x="153.1554266419" y="35"/>
			<point x="164.1554266419" y="47" type="curve"/>
			<point x="221.1554266419" y="-8"/>
			<point x="308.1554266419" y="-22"/>
			<point x="384.1554266419" y="-22" type="curve" smooth="yes"/>
			<point x="551.1554266419" y="-22"/>
			<point x="683.1554266419" y="101"/>
			<point x="683.1554266419" y="218" type="curve" smooth="yes"/>
			<point x="683.1554266419" y="291"/>
			<point x="629.1554266419" y="353"/>
			<point x="547.1554266419" y="373" type="curve" smooth="yes"/>
			<point x="534.1554266419" y="376"/>
			<point x="439.1554266419" y="396"/>
			<point x="416.1554266419" y="400" type="curve" smooth="yes"/>
			<point x="347.1554266419" y="415"/>
			<point x="330.1554266419" y="418"/>
			<point x="300.1554266419" y="441" type="curve" smooth="yes"/>
			<point x="280.1554266419" y="457"/>
			<point x="267.1554266419" y="480"/>
			<point x="267.1554266419" y="507" type="curve" smooth="yes"/>
			<point x="267.1554266419" y="585"/>
			<point x="368.1554266419" y="663"/>
			<point x="491.1554266419" y="663" type="curve" smooth="yes"/>
			<point x="580.1554266419" y="663"/>
			<point x="676.1554266419" y="631"/>
			<point x="676.1554266419" y="506" type="curve" smooth="yes"/>
			<point x="676.1554266419" y="490"/>
			<point x="674.1554266419" y="476"/>
			<point x="674.1554266419" y="470" type="curve" smooth="yes"/>
			<point x="674.1554266419" y="456"/>
			<point x="689.1554266419" y="456"/>
			<point x="694.1554266419" y="456" type="curve" smooth="yes"/>
			<point x="712.1554266419" y="456"/>
			<point x="712.1554266419" y="458"/>
			<point x="717.1554266419" y="477" type="curve" smooth="yes"/>
			<point x="770.1554266419" y="691" type="line"/>
			<point x="770.1554266419" y="692"/>
			<point x="770.1554266419" y="705"/>
			<point x="754.1554266419" y="705" type="curve" smooth="yes"/>
			<point x="746.1554266419" y="705"/>
			<point x="745.1554266419" y="704"/>
			<point x="733.1554266419" y="691" type="curve" smooth="yes"/>
			<point x="721.1554266419" y="679"/>
			<point x="692.1554266419" y="646"/>
			<point x="680.1554266419" y="633" type="curve"/>
			<point x="655.1554266419" y="665"/>
			<point x="600.1554266419" y="705"/>
			<point x="494.1554266419" y="705" type="curve" smooth="yes"/>
			<point x="337.1554266419" y="705"/>
			<point x="202.1554266419" y="596"/>
		</contour>
	</outline>
</glyph>
<glyph name="T" format="2">
	<unicode hex="0054"/>
	<advance width="1664"/>
	<outline>
		<contour>
			<point x="602" y="174" type="line" smooth="yes"/>
			<point x="586" y="110"/>
			<point x="580" y="90"/>
			<point x="370" y="90" type="curve" smooth="yes"/>
			<point x="356" y="90"/>
			<point x="341" y="90"/>
			<point x="326" y="90" type="curve" smooth="yes"/>
			<point x="284" y="90"/>
			<point x="268" y="90"/>
			<point x="256" y="50" type="curve" smooth="yes"/>
			<point x="248" y="22"/>
			<point x="262" y="0"/>
			<point x="294" y="0" type="curve" smooth="yes"/>
			<point x="354" y="0"/>
			<point x="418" y="6"/>
			<point x="478" y="6" type="curve" smooth="yes"/>
			<point x="604" y="8"/>
			<point x="732" y="8"/>
			<point x="858" y="6" type="curve" smooth="yes"/>
			<point x="918" y="6"/>
			<point x="982" y="0"/>
			<point x="1042" y="0" type="curve" smooth="yes"/>
			<point x="1056" y="0"/>
			<point x="1094" y="0"/>
			<point x="1094" y="56" type="curve" smooth="yes"/>
			<point x="1094" y="90"/>
			<point x="1064" y="90"/>
			<point x="1030" y="90" type="curve" smooth="yes"/>
			<point x="926" y="90"/>
			<point x="890" y="92"/>
			<point x="842" y="98" type="curve" smooth="yes"/>
			<point x="804" y="102"/>
			<point x="792" y="104"/>
			<point x="806" y="162" type="curve" smooth="yes"/>
			<point x="1066" y="1194" type="line" smooth="yes"/>
			<point x="1082" y="1256"/>
			<point x="1082" y="1260"/>
			<point x="1166" y="1260" type="curve" smooth="yes"/>
			<point x="1238" y="1260"/>
			<point x="1309" y="1260"/>
			<point x="1380" y="1260" type="curve" smooth="yes"/>
			<point x="1604" y="1260"/>
			<point x="1632" y="1198"/>
			<point x="1632" y="1074" type="curve" smooth="yes"/>
			<point x="1632" y="1044"/>
			<point x="1628" y="994"/>
			<point x="1616" y="908" type="curve" smooth="yes"/>
			<point x="1614" y="888"/>
			<point x="1628" y="872"/>
			<point x="1658" y="872" type="curve" smooth="yes"/>
			<point x="1696" y="872"/>
			<point x="1698" y="890"/>
			<point x="1704" y="926" type="curve" smooth="yes"/>
			<point x="1756" y="1296" type="line" smooth="yes"/>
			<point x="1764" y="1348"/>
			<point x="1740" y="1350"/>
			<point x="1692" y="1350" type="curve" smooth="yes"/>
			<point x="290" y="1350" type="line" smooth="yes"/>
			<point x="238" y="1350"/>
			<point x="236" y="1350"/>
			<point x="220" y="1308" type="curve" smooth="yes"/>
			<point x="88" y="940" type="line"/>
			<point x="86" y="936"/>
			<point x="76" y="908"/>
			<point x="76" y="906" type="curve" smooth="yes"/>
			<point x="76" y="894"/>
			<point x="84" y="872"/>
			<point x="118" y="872" type="curve" smooth="yes"/>
			<point x="150" y="872"/>
			<point x="152" y="878"/>
			<point x="170" y="926" type="curve" smooth="yes"/>
			<point x="260" y="1164"/>
			<point x="318" y="1260"/>
			<point x="590" y="1260" type="curve" smooth="yes"/>
			<point x="806" y="1260" type="line" smooth="yes"/>
			<point x="822" y="1260"/>
			<point x="850" y="1260"/>
			<point x="870" y="1256" type="curve"/>
			<point x="870" y="1252"/>
			<point x="870" y="1248"/>
			<point x="870" y="1244" type="curve"/>
		</contour>
	</outline>
</glyph>
<glyph name="U" format="2">
  <advance width="943"/>
  <unicode hex="0055"/>
  <outline>
    <contour>
      <point x="435.18863178562583" y="-22.0" type="curve" smooth="yes"/>
      <point x="590.1886317856258" y="-22.0"/>
      <point x="739.1886317856258" y="87.0"/>
      <point x="774.1886317856258" y="226.0" type="curve" smooth="yes"/>
      <point x="802.8266317856258" y="340.219"/>
      <point x="831.4646317856258" y="454.438"/>
      <point x="860.1886317856258" y="569.0" type="curve" smooth="yes"/>
      <point x="867.1886317856258" y="597.0"/>
      <point x="877.1886317856258" y="635.0"/>
      <point x="968.1886317856258" y="638.0" type="curve" smooth="yes"/>
      <point x="976.1886317856258" y="638.0"/>
      <point x="994.1886317856258" y="639.0"/>
      <point x="994.1886317856258" y="666.0" type="curve" smooth="yes"/>
      <point x="994.1886317856258" y="670.0"/>
      <point x="991.1886317856258" y="683.0"/>
      <point x="977.1886317856258" y="683.0" type="curve" smooth="yes"/>
      <point x="959.1886317856258" y="683.0"/>
      <point x="938.1886317856258" y="680.0"/>
      <point x="920.1886317856258" y="680.0" type="curve" smooth="yes"/>
      <point x="883.1886317856258" y="680.0"/>
      <point x="844.1886317856258" y="680.0"/>
      <point x="805.1886317856258" y="680.0" type="curve" smooth="yes"/>
      <point x="787.1886317856258" y="680.0"/>
      <point x="766.1886317856258" y="683.0"/>
      <point x="749.1886317856258" y="683.0" type="curve" smooth="yes"/>
      <point x="742.1886317856258" y="683.0"/>
      <point x="725.1886317856258" y="683.0"/>
      <point x="725.1886317856258" y="655.0" type="curve" smooth="yes"/>
      <point x="725.1886317856258" y="638.0"/>
      <point x="740.1886317856258" y="638.0"/>
      <point x="750.1886317856258" y="638.0" type="curve" smooth="yes"/>
      <point x="816.1886317856258" y="637.0"/>
      <point x="820.1886317856258" y="616.0"/>
      <point x="820.1886317856258" y="599.0" type="curve" smooth="yes"/>
      <point x="820.1886317856258" y="594.0"/>
      <point x="819.1886317856258" y="590.0"/>
      <point x="818.1886317856258" y="585.0" type="curve" smooth="yes"/>
      <point x="788.2186317856258" y="464.787"/>
      <point x="758.2486317856258" y="344.574"/>
      <point x="728.1886317856258" y="224.0" type="curve" smooth="yes"/>
      <point x="698.1886317856258" y="118.0"/>
      <point x="580.1886317856258" y="23.0"/>
      <point x="440.18863178562583" y="23.0" type="curve" smooth="yes"/>
      <point x="382.18863178562583" y="23.0"/>
      <point x="280.18863178562583" y="43.0"/>
      <point x="280.18863178562583" y="160.0" type="curve" smooth="yes"/>
      <point x="280.18863178562583" y="182.0"/>
      <point x="283.18863178562583" y="203.0"/>
      <point x="288.18863178562583" y="224.0" type="curve" smooth="yes"/>
      <point x="382.18863178562583" y="598.0" type="line" smooth="yes"/>
      <point x="390.18863178562583" y="630.0"/>
      <point x="392.18863178562583" y="638.0"/>
      <point x="468.18863178562583" y="638.0" type="curve" smooth="yes"/>
      <point x="501.18863178562583" y="638.0"/>
      <point x="505.18863178562583" y="637.0"/>
      <point x="508.18863178562583" y="658.0" type="curve" smooth="yes"/>
      <point x="510.18863178562583" y="672.0"/>
      <point x="508.18863178562583" y="683.0"/>
      <point x="491.18863178562583" y="683.0" type="curve" smooth="yes"/>
      <point x="470.18863178562583" y="683.0"/>
      <point x="446.18863178562583" y="680.0"/>
      <point x="424.18863178562583" y="680.0" type="curve" smooth="yes"/>
      <point x="375.18863178562583" y="680.0"/>
      <point x="326.18863178562583" y="680.0"/>
      <point x="277.18863178562583" y="680.0" type="curve" smooth="yes"/>
      <point x="254.18863178562583" y="680.0"/>
      <point x="229.18863178562583" y="683.0"/>
      <point x="207.18863178562583" y="683.0" type="curve" smooth="yes"/>
      <point x="200.18863178562583" y="683.0"/>
      <point x="182.18863178562583" y="683.0"/>
      <point x="182.18863178562583" y="655.0" type="curve" smooth="yes"/>
      <point x="182.18863178562583" y="638.0"/>
      <point x="194.18863178562583" y="638.0"/>
      <point x="219.18863178562583" y="638.0" type="curve" smooth="yes"/>
      <point x="225.75113178562583" y="638.0"/>
      <point x="242.21890522312583" y="638.0"/>
      <point x="258.7001369126258" y="636.3042602539" type="curve" smooth="yes"/>
      <point x="267.33316303562583" y="635.416015625"/>
      <point x="275.96988178562583" y="634.0625"/>
      <point x="283.18863178562583" y="632.0" type="curve"/>
      <point x="283.18863178562583" y="619.0"/>
      <point x="283.18863178562583" y="617.0"/>
      <point x="282.18863178562583" y="612.0" type="curve" smooth="yes"/>
      <point x="268.18863178562583" y="560.0"/>
      <point x="209.26346178562582" y="330.16898"/>
      <point x="185.18863178562583" y="225.0" type="curve" smooth="yes"/>
      <point x="182.18863178562583" y="213.0"/>
      <point x="180.18863178562583" y="195.0"/>
      <point x="180.18863178562583" y="183.0" type="curve" smooth="yes"/>
      <point x="180.18863178562583" y="70.0"/>
      <point x="281.18863178562583" y="-22.0"/>
    </contour>
  </outline>
</glyph>
<glyph name="V" format="2">
	<unicode hex="0056"/>
	<advance width="827"/>
	<outline>
		<contour>
			<point x="431.1886317856" y="-22" type="curve" smooth="yes"/>
			<point x="443.1886317856" y="-22"/>
			<point x="456.1886317856" y="-22"/>
			<point x="473.1886317856" y="1" type="curve" smooth="yes"/>
			<point x="878.1886317856" y="559" type="line" smooth="yes"/>
			<point x="895.1886317856" y="581"/>
			<point x="928.1886317856" y="634"/>
			<point x="1010.1886317856" y="638" type="curve" smooth="yes"/>
			<point x="1021.1886317856" y="639"/>
			<point x="1037.1886317856" y="639"/>
			<point x="1037.1886317856" y="666" type="curve" smooth="yes"/>
			<point x="1037.1886317856" y="672"/>
			<point x="1033.1886317856" y="683"/>
			<point x="1021.1886317856" y="683" type="curve" smooth="yes"/>
			<point x="1011.1886317856" y="683"/>
			<point x="977.1886317856" y="679"/>
			<point x="925.8148559181" y="679.2500735075" type="curve" smooth="yes"/>
			<point x="870.1886317856" y="679"/>
			<point x="836.1886317856" y="683"/>
			<point x="818.1886317856" y="683" type="curve" smooth="yes"/>
			<point x="802.1886317856" y="683"/>
			<point x="794.1886317856" y="672"/>
			<point x="794.1886317856" y="655" type="curve" smooth="yes"/>
			<point x="794.1886317856" y="639"/>
			<point x="810.1886317856" y="638"/>
			<point x="817.1886317856" y="638" type="curve" smooth="yes"/>
			<point x="832.1886317856" y="638"/>
			<point x="858.1886317856" y="633"/>
			<point x="858.1886317856" y="613" type="curve" smooth="yes"/>
			<point x="858.1886317856" y="606"/>
			<point x="854.1886317856" y="594"/>
			<point x="840.1886317856" y="575" type="curve" smooth="yes"/>
			<point x="489.1886317856" y="93" type="line"/>
			<point x="373.1886317856" y="603" type="line" smooth="yes"/>
			<point x="371.1886317856" y="613"/>
			<point x="371.1886317856" y="615"/>
			<point x="371.1886317856" y="618" type="curve" smooth="yes"/>
			<point x="371.1886317856" y="632"/>
			<point x="403.1886317856" y="638"/>
			<point x="438.1886317856" y="638" type="curve" smooth="yes"/>
			<point x="451.1886317856" y="638"/>
			<point x="468.1886317856" y="638"/>
			<point x="468.1886317856" y="666" type="curve" smooth="yes"/>
			<point x="468.1886317856" y="674"/>
			<point x="462.1886317856" y="683"/>
			<point x="450.1886317856" y="683" type="curve" smooth="yes"/>
			<point x="429.1886317856" y="683"/>
			<point x="405.1886317856" y="680"/>
			<point x="383.1886317856" y="680" type="curve" smooth="yes"/>
			<point x="338.1886317856" y="679"/>
			<point x="293.1886317856" y="679"/>
			<point x="248.1886317856" y="680" type="curve" smooth="yes"/>
			<point x="229.1886317856" y="680"/>
			<point x="207.1886317856" y="683"/>
			<point x="189.1886317856" y="683" type="curve" smooth="yes"/>
			<point x="182.1886317856" y="683"/>
			<point x="165.1886317856" y="683"/>
			<point x="165.1886317856" y="655" type="curve" smooth="yes"/>
			<point x="165.1886317856" y="638"/>
			<point x="179.1886317856" y="638"/>
			<point x="197.1886317856" y="638" type="curve" smooth="yes"/>
			<point x="256.1886317856" y="638"/>
			<point x="257.1886317856" y="631"/>
			<point x="262.1886317856" y="610" type="curve" smooth="yes"/>
			<point x="399.1886317856" y="7" type="line" smooth="yes"/>
			<point x="404.1886317856" y="-14"/>
			<point x="406.1886317856" y="-22"/>
		</contour>
	</outline>
</glyph>
<glyph name="W" format="2">
	<unicode hex="0057"/>
	<advance width="2558"/>
	<outline>
		<contour>
			<point x="1366.3772635713" y="1022" type="line"/>
			<point x="1518.3772635713" y="14" type="line" smooth="yes"/>
			<point x="1524.3772635713" y="-26"/>
			<point x="1526.3772635713" y="-44"/>
			<point x="1572.3772635713" y="-44" type="curve" smooth="yes"/>
			<point x="1614.3772635713" y="-44"/>
			<point x="1628.3772635713" y="-26"/>
			<point x="1648.3772635713" y="4" type="curve" smooth="yes"/>
			<point x="2372.3772635713" y="1118" type="line" smooth="yes"/>
			<point x="2468.3772635713" y="1266"/>
			<point x="2550.3772635713" y="1272"/>
			<point x="2628.3772635713" y="1276" type="curve" smooth="yes"/>
			<point x="2652.3772635713" y="1278"/>
			<point x="2664.3772635713" y="1306"/>
			<point x="2664.3772635713" y="1332" type="curve" smooth="yes"/>
			<point x="2664.3772635713" y="1360"/>
			<point x="2640.3772635713" y="1366"/>
			<point x="2632.3772635713" y="1366" type="curve" smooth="yes"/>
			<point x="2620.3772635713" y="1366"/>
			<point x="2546.3772635713" y="1358"/>
			<point x="2458.3772635713" y="1358" type="curve" smooth="yes"/>
			<point x="2302.3772635713" y="1358"/>
			<point x="2260.3772635713" y="1366"/>
			<point x="2222.3772635713" y="1366" type="curve" smooth="yes"/>
			<point x="2194.3772635713" y="1366"/>
			<point x="2174.3772635713" y="1352"/>
			<point x="2174.3772635713" y="1310" type="curve" smooth="yes"/>
			<point x="2174.3772635713" y="1278"/>
			<point x="2204.3772635713" y="1276"/>
			<point x="2220.3772635713" y="1276" type="curve" smooth="yes"/>
			<point x="2244.3772635713" y="1276"/>
			<point x="2330.3772635713" y="1268"/>
			<point x="2330.3772635713" y="1214" type="curve" smooth="yes"/>
			<point x="2330.3772635713" y="1190"/>
			<point x="2314.3772635713" y="1166"/>
			<point x="2302.3772635713" y="1148" type="curve" smooth="yes"/>
			<point x="1700.3772635713" y="222" type="line"/>
			<point x="1548.3772635713" y="1234" type="line"/>
			<point x="1572.3772635713" y="1270"/>
			<point x="1626.3772635713" y="1276"/>
			<point x="1684.3772635713" y="1276" type="curve" smooth="yes"/>
			<point x="1722.3772635713" y="1276"/>
			<point x="1752.3772635713" y="1276"/>
			<point x="1752.3772635713" y="1332" type="curve" smooth="yes"/>
			<point x="1752.3772635713" y="1356"/>
			<point x="1732.3772635713" y="1366"/>
			<point x="1716.3772635713" y="1366" type="curve" smooth="yes"/>
			<point x="1674.3772635713" y="1366"/>
			<point x="1626.3772635713" y="1362"/>
			<point x="1582.3772635713" y="1360" type="curve" smooth="yes"/>
			<point x="1496.3772635713" y="1358"/>
			<point x="1408.3772635713" y="1358"/>
			<point x="1326.3772635713" y="1360" type="curve" smooth="yes"/>
			<point x="1288.3772635713" y="1360"/>
			<point x="1246.3772635713" y="1366"/>
			<point x="1210.3772635713" y="1366" type="curve" smooth="yes"/>
			<point x="1176.3772635713" y="1366"/>
			<point x="1162.3772635713" y="1342"/>
			<point x="1162.3772635713" y="1310" type="curve" smooth="yes"/>
			<point x="1162.3772635713" y="1276"/>
			<point x="1194.3772635713" y="1276"/>
			<point x="1220.3772635713" y="1276" type="curve" smooth="yes"/>
			<point x="1254.3772635713" y="1276"/>
			<point x="1314.3772635713" y="1276"/>
			<point x="1328.3772635713" y="1256" type="curve" smooth="yes"/>
			<point x="1334.3772635713" y="1248"/>
			<point x="1348.3772635713" y="1150"/>
			<point x="1348.3772635713" y="1138" type="curve" smooth="yes"/>
			<point x="1348.3772635713" y="1136"/>
			<point x="1348.3772635713" y="1132"/>
			<point x="1334.3772635713" y="1112" type="curve" smooth="yes"/>
			<point x="756.3772635713" y="222" type="line"/>
			<point x="606.3772635713" y="1224" type="line" smooth="yes"/>
			<point x="598.3772635713" y="1276"/>
			<point x="730.3772635713" y="1276"/>
			<point x="742.3772635713" y="1276" type="curve" smooth="yes"/>
			<point x="776.3772635713" y="1276"/>
			<point x="810.3772635713" y="1276"/>
			<point x="810.3772635713" y="1332" type="curve" smooth="yes"/>
			<point x="810.3772635713" y="1348"/>
			<point x="796.3772635713" y="1366"/>
			<point x="774.3772635713" y="1366" type="curve" smooth="yes"/>
			<point x="732.3772635713" y="1366"/>
			<point x="684.3772635713" y="1362"/>
			<point x="640.3772635713" y="1360" type="curve" smooth="yes"/>
			<point x="556.3772635713" y="1358"/>
			<point x="466.3772635713" y="1358"/>
			<point x="382.3772635713" y="1360" type="curve" smooth="yes"/>
			<point x="358.3772635713" y="1360"/>
			<point x="268.3772635713" y="1366"/>
			<point x="266.3772635713" y="1366" type="curve" smooth="yes"/>
			<point x="240.3772635713" y="1366"/>
			<point x="218.3772635713" y="1352"/>
			<point x="218.3772635713" y="1310" type="curve" smooth="yes"/>
			<point x="218.3772635713" y="1276"/>
			<point x="248.3772635713" y="1276"/>
			<point x="274.3772635713" y="1276" type="curve" smooth="yes"/>
			<point x="386.3772635713" y="1276"/>
			<point x="386.3772635713" y="1266"/>
			<point x="394.3772635713" y="1218" type="curve" smooth="yes"/>
			<point x="574.3772635713" y="12" type="line" smooth="yes"/>
			<point x="580.3772635713" y="-24"/>
			<point x="584.3772635713" y="-44"/>
			<point x="628.3772635713" y="-44" type="curve" smooth="yes"/>
			<point x="674.3772635713" y="-44"/>
			<point x="688.3772635713" y="-22"/>
			<point x="702.3772635713" y="0" type="curve" smooth="yes"/>
		</contour>
	</outline>
</glyph>
<glyph name="X" format="2">
	<unicode hex="0058"/>
	<advance width="1112"/>
	<outline>
		<contour>
			<point x="688.1886317856" y="381" type="curve"/>
			<point x="759.4506317856" y="444.27"/>
			<point x="830.7126317856" y="507.54"/>
			<point x="902.1886317856" y="571" type="curve" smooth="yes"/>
			<point x="962.1886317856" y="625"/>
			<point x="1015.1886317856" y="636"/>
			<point x="1075.1886317856" y="638" type="curve" smooth="yes"/>
			<point x="1089.1886317856" y="639"/>
			<point x="1095.1886317856" y="656"/>
			<point x="1095.1886317856" y="666" type="curve" smooth="yes"/>
			<point x="1095.1886317856" y="675"/>
			<point x="1087.1886317856" y="683"/>
			<point x="1078.1886317856" y="683" type="curve" smooth="yes"/>
			<point x="1062.1886317856" y="683"/>
			<point x="1029.1886317856" y="682"/>
			<point x="962.1886317856" y="681" type="curve" smooth="yes"/>
			<point x="903.1886317856" y="681"/>
			<point x="869.1886317856" y="683"/>
			<point x="848.1886317856" y="683" type="curve" smooth="yes"/>
			<point x="841.1886317856" y="683"/>
			<point x="824.1886317856" y="683"/>
			<point x="824.1886317856" y="655" type="curve" smooth="yes"/>
			<point x="824.1886317856" y="641"/>
			<point x="835.1886317856" y="638"/>
			<point x="843.1886317856" y="638" type="curve" smooth="yes"/>
			<point x="857.1886317856" y="638"/>
			<point x="875.1886317856" y="633"/>
			<point x="875.1886317856" y="618" type="curve" smooth="yes"/>
			<point x="875.1886317856" y="604"/>
			<point x="866.1886317856" y="596"/>
			<point x="834.1886317856" y="567" type="curve" smooth="yes"/>
			<point x="667.1886317856" y="416" type="line"/>
			<point x="545.1886317856" y="620" type="line"/>
			<point x="545.1886317856" y="620"/>
			<point x="545.1886317856" y="620"/>
			<point x="545.1886317856" y="620" type="curve"/>
			<point x="561.1886317856" y="633"/>
			<point x="581.1886317856" y="638"/>
			<point x="599.1886317856" y="638" type="curve" smooth="yes"/>
			<point x="605.1886317856" y="638"/>
			<point x="622.1886317856" y="639"/>
			<point x="622.1886317856" y="666" type="curve" smooth="yes"/>
			<point x="622.1886317856" y="678"/>
			<point x="612.1886317856" y="683"/>
			<point x="604.1886317856" y="683" type="curve" smooth="yes"/>
			<point x="581.1886317856" y="683"/>
			<point x="555.1886317856" y="681"/>
			<point x="532.1886317856" y="680" type="curve" smooth="yes"/>
			<point x="488.1886317856" y="679"/>
			<point x="442.1886317856" y="679"/>
			<point x="398.1886317856" y="680" type="curve" smooth="yes"/>
			<point x="377.1886317856" y="680"/>
			<point x="355.1886317856" y="683"/>
			<point x="335.1886317856" y="683" type="curve" smooth="yes"/>
			<point x="318.1886317856" y="683"/>
			<point x="311.1886317856" y="671"/>
			<point x="311.1886317856" y="655" type="curve" smooth="yes"/>
			<point x="311.1886317856" y="638"/>
			<point x="326.1886317856" y="638"/>
			<point x="344.1886317856" y="638" type="curve" smooth="yes"/>
			<point x="410.1886317856" y="638"/>
			<point x="416.1886317856" y="627"/>
			<point x="425.1886317856" y="612" type="curve" smooth="yes"/>
			<point x="478.8016317856" y="522.423"/>
			<point x="532.4146317856" y="432.846"/>
			<point x="586.1886317856" y="343" type="curve"/>
			<point x="505.6026317856" y="270.073"/>
			<point x="425.0166317856" y="197.146"/>
			<point x="344.1886317856" y="124" type="curve" smooth="yes"/>
			<point x="332.1886317856" y="113"/>
			<point x="269.1886317856" y="48"/>
			<point x="153.1886317856" y="45" type="curve" smooth="yes"/>
			<point x="135.1886317856" y="45"/>
			<point x="134.1886317856" y="19"/>
			<point x="134.1886317856" y="17" type="curve" smooth="yes"/>
			<point x="134.1886317856" y="6"/>
			<point x="143.1886317856" y="0"/>
			<point x="150.1886317856" y="0" type="curve" smooth="yes"/>
			<point x="163.1886317856" y="0"/>
			<point x="184.1886317856" y="5"/>
			<point x="263.1886317856" y="6" type="curve" smooth="yes"/>
			<point x="334.1886317856" y="6"/>
			<point x="359.1886317856" y="0"/>
			<point x="381.1886317856" y="0" type="curve" smooth="yes"/>
			<point x="395.1886317856" y="0"/>
			<point x="405.1886317856" y="7"/>
			<point x="405.1886317856" y="28" type="curve" smooth="yes"/>
			<point x="405.1886317856" y="44"/>
			<point x="390.1886317856" y="45"/>
			<point x="386.1886317856" y="45" type="curve" smooth="yes"/>
			<point x="358.1886317856" y="45"/>
			<point x="354.1886317856" y="59"/>
			<point x="354.1886317856" y="65" type="curve" smooth="yes"/>
			<point x="354.1886317856" y="76"/>
			<point x="364.1886317856" y="89"/>
			<point x="370.1886317856" y="95" type="curve" smooth="yes"/>
			<point x="375.1886317856" y="100"/>
			<point x="568.1886317856" y="272"/>
			<point x="606.1886317856" y="308" type="curve"/>
			<point x="746.1886317856" y="76" type="line" smooth="yes"/>
			<point x="748.1886317856" y="72"/>
			<point x="752.1886317856" y="66"/>
			<point x="752.1886317856" y="64" type="curve" smooth="yes"/>
			<point x="752.1886317856" y="60"/>
			<point x="734.1886317856" y="47"/>
			<point x="699.1886317856" y="45" type="curve" smooth="yes"/>
			<point x="693.1886317856" y="45"/>
			<point x="676.1886317856" y="44"/>
			<point x="676.1886317856" y="17" type="curve" smooth="yes"/>
			<point x="676.1886317856" y="6"/>
			<point x="684.1886317856" y="0"/>
			<point x="694.1886317856" y="0" type="curve" smooth="yes"/>
			<point x="717.1886317856" y="0"/>
			<point x="743.1886317856" y="2"/>
			<point x="781.1886317856" y="3" type="curve" smooth="yes"/>
			<point x="820.1886317856" y="4"/>
			<point x="856.1886317856" y="4"/>
			<point x="900.1886317856" y="3" type="curve" smooth="yes"/>
			<point x="920.1886317856" y="3"/>
			<point x="943.1886317856" y="0"/>
			<point x="963.1886317856" y="0" type="curve" smooth="yes"/>
			<point x="980.1886317856" y="0"/>
			<point x="987.1886317856" y="12"/>
			<point x="987.1886317856" y="28" type="curve" smooth="yes"/>
			<point x="987.1886317856" y="45"/>
			<point x="972.1886317856" y="45"/>
			<point x="954.1886317856" y="45" type="curve" smooth="yes"/>
			<point x="889.1886317856" y="45"/>
			<point x="883.1886317856" y="56"/>
			<point x="874.1886317856" y="70" type="curve" smooth="yes"/>
			<point x="812.2506317856" y="173.563"/>
			<point x="750.3126317856" y="277.126"/>
		</contour>
	</outline>
</glyph>
<glyph name="Y" format="2">
	<unicode hex="0059"/>
	<advance width="824"/>
	<outline>
		<contour>
			<point x="450.1554266419" y="327" type="line"/>
			<point x="295.1554266419" y="612" type="line" smooth="yes"/>
			<point x="289.1554266419" y="622"/>
			<point x="289.1554266419" y="624"/>
			<point x="289.1554266419" y="625" type="curve" smooth="yes"/>
			<point x="289.1554266419" y="638"/>
			<point x="332.1554266419" y="638"/>
			<point x="340.1554266419" y="638" type="curve" smooth="yes"/>
			<point x="355.1554266419" y="638"/>
			<point x="371.1554266419" y="638"/>
			<point x="371.1554266419" y="666" type="curve" smooth="yes"/>
			<point x="371.1554266419" y="678"/>
			<point x="361.1554266419" y="683"/>
			<point x="353.1554266419" y="683" type="curve" smooth="yes"/>
			<point x="330.1554266419" y="683"/>
			<point x="304.1554266419" y="681"/>
			<point x="281.1554266419" y="680" type="curve" smooth="yes"/>
			<point x="236.1554266419" y="679"/>
			<point x="190.1554266419" y="679"/>
			<point x="145.1554266419" y="680" type="curve" smooth="yes"/>
			<point x="132.1554266419" y="680"/>
			<point x="82.1554266419" y="683"/>
			<point x="81.1554266419" y="683" type="curve" smooth="yes"/>
			<point x="67.1554266419" y="683"/>
			<point x="57.1554266419" y="676"/>
			<point x="57.1554266419" y="655" type="curve" smooth="yes"/>
			<point x="57.1554266419" y="638"/>
			<point x="71.1554266419" y="638"/>
			<point x="89.1554266419" y="638" type="curve" smooth="yes"/>
			<point x="153.1554266419" y="638"/>
			<point x="157.1554266419" y="631"/>
			<point x="169.1554266419" y="609" type="curve" smooth="yes"/>
			<point x="352.1554266419" y="274" type="line"/>
			<point x="352.1554266419" y="274"/>
			<point x="352.1554266419" y="274"/>
			<point x="352.1554266419" y="274" type="curve"/>
			<point x="337.1704266419" y="213.061"/>
			<point x="322.1854266419" y="152.122"/>
			<point x="307.1554266419" y="91" type="curve" smooth="yes"/>
			<point x="296.1554266419" y="46"/>
			<point x="290.1554266419" y="45"/>
			<point x="216.1554266419" y="45" type="curve" smooth="yes"/>
			<point x="193.1554266419" y="45"/>
			<point x="177.1554266419" y="45"/>
			<point x="177.1554266419" y="17" type="curve" smooth="yes"/>
			<point x="177.1554266419" y="9"/>
			<point x="184.1554266419" y="0"/>
			<point x="195.1554266419" y="0" type="curve" smooth="yes"/>
			<point x="216.1554266419" y="0"/>
			<point x="240.1554266419" y="3"/>
			<point x="262.1554266419" y="3" type="curve" smooth="yes"/>
			<point x="311.1554266419" y="4"/>
			<point x="359.1554266419" y="4"/>
			<point x="408.1554266419" y="3" type="curve" smooth="yes"/>
			<point x="430.1554266419" y="3"/>
			<point x="455.1554266419" y="0"/>
			<point x="476.1554266419" y="0" type="curve" smooth="yes"/>
			<point x="483.1554266419" y="0"/>
			<point x="501.1554266419" y="0"/>
			<point x="501.1554266419" y="28" type="curve" smooth="yes"/>
			<point x="501.1554266419" y="45"/>
			<point x="487.1554266419" y="45"/>
			<point x="468.1554266419" y="45" type="curve" smooth="yes"/>
			<point x="466.1554266419" y="45"/>
			<point x="442.1554266419" y="45"/>
			<point x="425.1554266419" y="47" type="curve" smooth="yes"/>
			<point x="400.1554266419" y="49"/>
			<point x="399.1554266419" y="50"/>
			<point x="399.1554266419" y="58" type="curve" smooth="yes"/>
			<point x="399.1554266419" y="65"/>
			<point x="399.1554266419" y="67"/>
			<point x="411.1554266419" y="112" type="curve" smooth="yes"/>
			<point x="424.4754266419" y="165.613"/>
			<point x="437.7954266419" y="219.226"/>
			<point x="451.1554266419" y="273" type="curve"/>
			<point x="451.1554266419" y="273"/>
			<point x="451.1554266419" y="273"/>
			<point x="451.1554266419" y="273" type="curve"/>
			<point x="749.1554266419" y="558" type="line" smooth="yes"/>
			<point x="758.1554266419" y="566"/>
			<point x="768.1554266419" y="574"/>
			<point x="777.1554266419" y="581" type="curve" smooth="yes"/>
			<point x="804.1554266419" y="602"/>
			<point x="843.1554266419" y="634"/>
			<point x="913.1554266419" y="638" type="curve" smooth="yes"/>
			<point x="927.1554266419" y="639"/>
			<point x="941.1554266419" y="639"/>
			<point x="941.1554266419" y="666" type="curve" smooth="yes"/>
			<point x="941.1554266419" y="680"/>
			<point x="929.1554266419" y="683"/>
			<point x="925.1554266419" y="683" type="curve" smooth="yes"/>
			<point x="907.1554266419" y="683"/>
			<point x="892.1554266419" y="679"/>
			<point x="833.1554266419" y="679" type="curve" smooth="yes"/>
			<point x="762.1554266419" y="680"/>
			<point x="731.1554266419" y="683"/>
			<point x="720.1554266419" y="683" type="curve" smooth="yes"/>
			<point x="707.1554266419" y="683"/>
			<point x="696.1554266419" y="676"/>
			<point x="696.1554266419" y="655" type="curve" smooth="yes"/>
			<point x="696.1554266419" y="641"/>
			<point x="708.1554266419" y="638"/>
			<point x="715.1554266419" y="638" type="curve" smooth="yes"/>
			<point x="740.1554266419" y="637"/>
			<point x="746.1554266419" y="631"/>
			<point x="746.1554266419" y="624" type="curve" smooth="yes"/>
			<point x="746.1554266419" y="610"/>
			<point x="722.1554266419" y="588"/>
			<point x="714.1554266419" y="580" type="curve" smooth="yes"/>
		</contour>
	</outline>
</glyph>
<glyph name="Z" format="2">
  <advance width="943"/>
  <unicode hex="005A"/>
  <outline>
    <contour>
      <point x="815.1886317856258" y="638.0" type="line"/>
      <point x="182.18863178562583" y="48.0" type="line" smooth="yes"/>
      <point x="172.18863178562583" y="39.0"/>
      <point x="166.18863178562583" y="27.0"/>
      <point x="166.18863178562583" y="14.0" type="curve" smooth="yes"/>
      <point x="166.18863178562583" y="0.0"/>
      <point x="174.18863178562583" y="0.0"/>
      <point x="195.18863178562583" y="0.0" type="curve" smooth="yes"/>
      <point x="746.1886317856258" y="0.0" type="line" smooth="yes"/>
      <point x="772.1886317856258" y="0.0"/>
      <point x="773.1886317856258" y="1.0"/>
      <point x="781.1886317856258" y="24.0" type="curve" smooth="yes"/>
      <point x="855.1886317856258" y="245.0" type="line" smooth="yes"/>
      <point x="858.1886317856258" y="254.0"/>
      <point x="860.1886317856258" y="263.0"/>
      <point x="860.1886317856258" y="264.0" type="curve" smooth="yes"/>
      <point x="860.1886317856258" y="281.0"/>
      <point x="843.1886317856258" y="281.0"/>
      <point x="839.1886317856258" y="281.0" type="curve" smooth="yes"/>
      <point x="823.1886317856258" y="281.0"/>
      <point x="821.1886317856258" y="275.0"/>
      <point x="815.1886317856258" y="259.0" type="curve" smooth="yes"/>
      <point x="762.1886317856258" y="107.0"/>
      <point x="702.1886317856258" y="48.0"/>
      <point x="523.1886317856258" y="48.0" type="curve" smooth="yes"/>
      <point x="307.18863178562583" y="48.0" type="line"/>
      <point x="936.1886317856258" y="636.0" type="line" smooth="yes"/>
      <point x="946.1886317856258" y="645.0"/>
      <point x="954.1886317856258" y="653.0"/>
      <point x="954.1886317856258" y="670.0" type="curve" smooth="yes"/>
      <point x="954.1886317856258" y="683.0"/>
      <point x="944.1886317856258" y="683.0"/>
      <point x="925.1886317856258" y="683.0" type="curve" smooth="yes"/>
      <point x="392.18863178562583" y="683.0" type="line" smooth="yes"/>
      <point x="367.18863178562583" y="683.0"/>
      <point x="364.18863178562583" y="683.0"/>
      <point x="357.18863178562583" y="661.0" type="curve" smooth="yes"/>
      <point x="300.18863178562583" y="479.0" type="line"/>
      <point x="299.18863178562583" y="475.0"/>
      <point x="295.18863178562583" y="464.0"/>
      <point x="295.18863178562583" y="461.0" type="curve" smooth="yes"/>
      <point x="295.18863178562583" y="455.0"/>
      <point x="299.18863178562583" y="444.0"/>
      <point x="316.18863178562583" y="444.0" type="curve" smooth="yes"/>
      <point x="326.18863178562583" y="444.0"/>
      <point x="333.18863178562583" y="445.0"/>
      <point x="337.18863178562583" y="459.0" type="curve"/>
      <point x="389.18863178562583" y="607.0"/>
      <point x="480.18863178562583" y="638.0"/>
      <point x="610.1886317856258" y="638.0" type="curve" smooth="yes"/>
    </contour>
  </outline>
</glyph>
<glyph name="a" format="2">
  <advance width="774"/>
  <unicode hex="0061"/>
  <outline>
    <contour>
      <point x="142.18863178562583" y="163.0" type="curve" smooth="yes"/>
      <point x="142.18863178562583" y="61.0"/>
      <point x="217.18863178562583" y="-11.0"/>
      <point x="317.18863178562583" y="-11.0" type="curve" smooth="yes"/>
      <point x="399.18863178562583" y="-11.0"/>
      <point x="463.18863178562583" y="47.0"/>
      <point x="475.18863178562583" y="59.0" type="curve"/>
      <point x="493.18863178562583" y="10.0"/>
      <point x="548.1886317856258" y="-11.0"/>
      <point x="593.1886317856258" y="-11.0" type="curve" smooth="yes"/>
      <point x="633.1886317856258" y="-11.0"/>
      <point x="660.1886317856258" y="12.0"/>
      <point x="681.1886317856258" y="45.0" type="curve" smooth="yes"/>
      <point x="707.1886317856258" y="84.0"/>
      <point x="721.1886317856258" y="137.0"/>
      <point x="721.1886317856258" y="144.0" type="curve" smooth="yes"/>
      <point x="721.1886317856258" y="158.0"/>
      <point x="704.1886317856258" y="158.0"/>
      <point x="700.1886317856258" y="158.0" type="curve" smooth="yes"/>
      <point x="682.1886317856258" y="158.0"/>
      <point x="681.1886317856258" y="152.0"/>
      <point x="676.1886317856258" y="136.0" type="curve"/>
      <point x="658.1886317856258" y="62.0"/>
      <point x="632.1886317856258" y="23.0"/>
      <point x="597.1886317856258" y="23.0" type="curve" smooth="yes"/>
      <point x="569.1886317856258" y="23.0"/>
      <point x="557.1886317856258" y="45.0"/>
      <point x="557.1886317856258" y="76.0" type="curve" smooth="yes"/>
      <point x="557.1886317856258" y="91.0"/>
      <point x="567.1886317856258" y="129.0"/>
      <point x="573.1886317856258" y="156.0" type="curve" smooth="yes"/>
      <point x="587.1746317856258" y="211.944"/>
      <point x="601.1606317856258" y="267.888"/>
      <point x="615.1886317856258" y="324.0" type="curve" smooth="yes"/>
      <point x="620.1886317856258" y="345.0"/>
      <point x="630.1886317856258" y="382.0"/>
      <point x="630.1886317856258" y="387.0" type="curve" smooth="yes"/>
      <point x="630.1886317856258" y="404.0"/>
      <point x="617.1886317856258" y="422.0"/>
      <point x="593.1886317856258" y="422.0" type="curve" smooth="yes"/>
      <point x="575.1886317856258" y="422.0"/>
      <point x="551.1886317856258" y="410.0"/>
      <point x="543.1886317856258" y="382.0" type="curve"/>
      <point x="524.1886317856258" y="408.0"/>
      <point x="486.18863178562583" y="442.0"/>
      <point x="423.18863178562583" y="442.0" type="curve" smooth="yes"/>
      <point x="282.18863178562583" y="442.0"/>
      <point x="142.18863178562583" y="305.0"/>
    </contour>
    <contour>
      <point x="232.18863178562583" y="125.0" type="curve" smooth="yes"/>
      <point x="232.18863178562583" y="171.0"/>
      <point x="256.18863178562583" y="276.0"/>
      <point x="291.18863178562583" y="328.0" type="curve" smooth="yes"/>
      <point x="330.18863178562583" y="383.0"/>
      <point x="381.18863178562583" y="408.0"/>
      <point x="423.18863178562583" y="408.0" type="curve" smooth="yes"/>
      <point x="468.18863178562583" y="408.0"/>
      <point x="511.18863178562583" y="381.0"/>
      <point x="527.1886317856258" y="321.0" type="curve"/>
      <point x="527.1886317856258" y="321.0"/>
      <point x="527.1886317856258" y="321.0"/>
      <point x="527.1886317856258" y="321.0" type="curve"/>
      <point x="511.87063178562585" y="258.396"/>
      <point x="496.55263178562586" y="195.792"/>
      <point x="481.18863178562583" y="133.0" type="curve" smooth="yes"/>
      <point x="477.18863178562583" y="118.0"/>
      <point x="477.18863178562583" y="116.0"/>
      <point x="459.18863178562583" y="96.0" type="curve" smooth="yes"/>
      <point x="422.18863178562583" y="54.0"/>
      <point x="370.18863178562583" y="23.0"/>
      <point x="320.18863178562583" y="23.0" type="curve" smooth="yes"/>
      <point x="285.18863178562583" y="23.0"/>
      <point x="232.18863178562583" y="42.0"/>
    </contour>
  </outline>
</glyph>
<glyph name="b" format="2">
	<unicode hex="0062"/>
	<advance width="633"/>
	<outline>
		<contour>
			<point x="318.1886317856" y="-11" type="curve" smooth="yes"/>
			<point x="463.1886317856" y="-11"/>
			<point x="600.1886317856" y="129"/>
			<point x="600.1886317856" y="268" type="curve" smooth="yes"/>
			<point x="600.1886317856" y="367"/>
			<point x="528.1886317856" y="442"/>
			<point x="425.1886317856" y="442" type="curve" smooth="yes"/>
			<point x="383.1886317856" y="442"/>
			<point x="334.1886317856" y="426"/>
			<point x="285.1886317856" y="388" type="curve"/>
			<point x="352.1886317856" y="656" type="line" smooth="yes"/>
			<point x="356.1886317856" y="670"/>
			<point x="356.1886317856" y="672"/>
			<point x="356.1886317856" y="677" type="curve" smooth="yes"/>
			<point x="356.1886317856" y="694"/>
			<point x="341.1886317856" y="694"/>
			<point x="325.1886317856" y="693" type="curve" smooth="yes"/>
			<point x="282.8976317856" y="690.003"/>
			<point x="240.6066317856" y="687.006"/>
			<point x="198.1886317856" y="684" type="curve" smooth="yes"/>
			<point x="178.1886317856" y="683"/>
			<point x="175.1886317856" y="677"/>
			<point x="172.1886317856" y="663" type="curve" smooth="yes"/>
			<point x="166.1886317856" y="639"/>
			<point x="184.1886317856" y="639"/>
			<point x="201.1886317856" y="638" type="curve" smooth="yes"/>
			<point x="234.1886317856" y="637"/>
			<point x="255.1886317856" y="637"/>
			<point x="255.1886317856" y="625" type="curve" smooth="yes"/>
			<point x="255.1886317856" y="617"/>
			<point x="245.1886317856" y="578"/>
			<point x="239.1886317856" y="556" type="curve" smooth="yes"/>
			<point x="211.5496317856" y="444.445"/>
			<point x="183.9106317856" y="332.89"/>
			<point x="156.1886317856" y="221" type="curve" smooth="yes"/>
			<point x="151.1886317856" y="200"/>
			<point x="148.1886317856" y="184"/>
			<point x="148.1886317856" y="162" type="curve" smooth="yes"/>
			<point x="148.1886317856" y="58"/>
			<point x="222.1886317856" y="-11"/>
		</contour>
		<contour>
			<point x="320.1886317856" y="23" type="curve" smooth="yes"/>
			<point x="277.1886317856" y="23"/>
			<point x="228.1886317856" y="49"/>
			<point x="228.1886317856" y="130" type="curve" smooth="yes"/>
			<point x="228.1886317856" y="162"/>
			<point x="236.1886317856" y="194"/>
			<point x="244.1886317856" y="228" type="curve" smooth="yes"/>
			<point x="247.1886317856" y="240"/>
			<point x="264.1886317856" y="305"/>
			<point x="265.1886317856" y="311" type="curve"/>
			<point x="265.1886317856" y="311"/>
			<point x="265.1886317856" y="311"/>
			<point x="265.1886317856" y="311" type="curve"/>
			<point x="268.1886317856" y="321"/>
			<point x="338.1886317856" y="408"/>
			<point x="422.1886317856" y="408" type="curve" smooth="yes"/>
			<point x="465.1886317856" y="408"/>
			<point x="510.1886317856" y="382"/>
			<point x="510.1886317856" y="306" type="curve" smooth="yes"/>
			<point x="510.1886317856" y="269"/>
			<point x="491.1886317856" y="175"/>
			<point x="459.1886317856" y="117" type="curve" smooth="yes"/>
			<point x="425.1886317856" y="58"/>
			<point x="369.1886317856" y="23"/>
		</contour>
	</outline>
</glyph>
<glyph name="c" format="2">
	<unicode hex="0063"/>
	<advance width="1298"/>
	<outline>
		<contour>
			<point x="118" y="342" type="curve" smooth="yes"/>
			<point x="118" y="168"/>
			<point x="246" y="-22"/>
			<point x="548" y="-22" type="curve" smooth="yes"/>
			<point x="586" y="-22"/>
			<point x="746" y="-22"/>
			<point x="882" y="30" type="curve" smooth="yes"/>
			<point x="1016" y="82"/>
			<point x="1096" y="174"/>
			<point x="1096" y="196" type="curve" smooth="yes"/>
			<point x="1096" y="212"/>
			<point x="1070" y="242"/>
			<point x="1052" y="242" type="curve" smooth="yes"/>
			<point x="1042" y="242"/>
			<point x="1040" y="240"/>
			<point x="1008" y="208" type="curve"/>
			<point x="918" y="106"/>
			<point x="750" y="46"/>
			<point x="550" y="46" type="curve" smooth="yes"/>
			<point x="382" y="46"/>
			<point x="302" y="140"/>
			<point x="302" y="278" type="curve" smooth="yes"/>
			<point x="302" y="406"/>
			<point x="354" y="584"/>
			<point x="470" y="700" type="curve" smooth="yes"/>
			<point x="539" y="769"/>
			<point x="632" y="816"/>
			<point x="750" y="816" type="curve" smooth="yes"/>
			<point x="772" y="816"/>
			<point x="872" y="816"/>
			<point x="934" y="772" type="curve"/>
			<point x="918" y="767"/>
			<point x="897" y="756"/>
			<point x="880" y="739" type="curve" smooth="yes"/>
			<point x="859" y="718"/>
			<point x="842" y="689"/>
			<point x="842" y="652" type="curve" smooth="yes"/>
			<point x="842" y="600"/>
			<point x="880" y="570"/>
			<point x="930" y="570" type="curve" smooth="yes"/>
			<point x="978" y="570"/>
			<point x="1054" y="608"/>
			<point x="1054" y="708" type="curve" smooth="yes"/>
			<point x="1054" y="858"/>
			<point x="860" y="884"/>
			<point x="750" y="884" type="curve" smooth="yes"/>
			<point x="412" y="884"/>
			<point x="118" y="608"/>
		</contour>
	</outline>
</glyph>
<glyph name="d" format="2">
	<unicode hex="0064"/>
	<advance width="1478"/>
	<outline>
		<contour>
			<point x="526.3772635713" y="-22" type="curve" smooth="yes"/>
			<point x="690.3772635713" y="-22"/>
			<point x="818.3772635713" y="94"/>
			<point x="842.3772635713" y="118" type="curve"/>
			<point x="878.3772635713" y="20"/>
			<point x="988.3772635713" y="-22"/>
			<point x="1078.3772635713" y="-22" type="curve" smooth="yes"/>
			<point x="1158.3772635713" y="-22"/>
			<point x="1212.3772635713" y="24"/>
			<point x="1254.3772635713" y="90" type="curve" smooth="yes"/>
			<point x="1306.3772635713" y="168"/>
			<point x="1334.3772635713" y="274"/>
			<point x="1334.3772635713" y="288" type="curve" smooth="yes"/>
			<point x="1334.3772635713" y="316"/>
			<point x="1300.3772635713" y="316"/>
			<point x="1292.3772635713" y="316" type="curve" smooth="yes"/>
			<point x="1256.3772635713" y="316"/>
			<point x="1254.3772635713" y="304"/>
			<point x="1244.3772635713" y="272" type="curve"/>
			<point x="1208.3772635713" y="124"/>
			<point x="1156.3772635713" y="46"/>
			<point x="1086.3772635713" y="46" type="curve" smooth="yes"/>
			<point x="1030.3772635713" y="46"/>
			<point x="1006.3772635713" y="90"/>
			<point x="1006.3772635713" y="152" type="curve" smooth="yes"/>
			<point x="1006.3772635713" y="174"/>
			<point x="1008.3772635713" y="196"/>
			<point x="1014.3772635713" y="216" type="curve" smooth="yes"/>
			<point x="1290.3772635713" y="1312" type="line" smooth="yes"/>
			<point x="1298.3772635713" y="1340"/>
			<point x="1298.3772635713" y="1344"/>
			<point x="1298.3772635713" y="1354" type="curve" smooth="yes"/>
			<point x="1298.3772635713" y="1388"/>
			<point x="1268.3772635713" y="1388"/>
			<point x="1236.3772635713" y="1386" type="curve" smooth="yes"/>
			<point x="1152.3772635713" y="1380"/>
			<point x="1067.3772635713" y="1374"/>
			<point x="982.3772635713" y="1368" type="curve" smooth="yes"/>
			<point x="930.3772635713" y="1364"/>
			<point x="932.3772635713" y="1340"/>
			<point x="928.3772635713" y="1320" type="curve" smooth="yes"/>
			<point x="920.3772635713" y="1278"/>
			<point x="960.3772635713" y="1278"/>
			<point x="988.3772635713" y="1276" type="curve" smooth="yes"/>
			<point x="1068.3772635713" y="1270"/>
			<point x="1096.3772635713" y="1275"/>
			<point x="1096.3772635713" y="1246" type="curve" smooth="yes"/>
			<point x="1096.3772635713" y="1236"/>
			<point x="1080.3772635713" y="1176"/>
			<point x="1072.3772635713" y="1140" type="curve" smooth="yes"/>
			<point x="1041.3772635713" y="1015"/>
			<point x="1010.3772635713" y="890"/>
			<point x="978.3772635713" y="764" type="curve"/>
			<point x="940.3772635713" y="816"/>
			<point x="864.3772635713" y="884"/>
			<point x="738.3772635713" y="884" type="curve" smooth="yes"/>
			<point x="456.3772635713" y="884"/>
			<point x="176.3772635713" y="610"/>
			<point x="176.3772635713" y="326" type="curve" smooth="yes"/>
			<point x="176.3772635713" y="122"/>
			<point x="326.3772635713" y="-22"/>
		</contour>
		<contour>
			<point x="532.3772635713" y="46" type="curve" smooth="yes"/>
			<point x="462.3772635713" y="46"/>
			<point x="356.3772635713" y="84"/>
			<point x="356.3772635713" y="250" type="curve" smooth="yes"/>
			<point x="356.3772635713" y="342"/>
			<point x="404.3772635713" y="552"/>
			<point x="474.3772635713" y="656" type="curve" smooth="yes"/>
			<point x="552.3772635713" y="766"/>
			<point x="654.3772635713" y="816"/>
			<point x="738.3772635713" y="816" type="curve" smooth="yes"/>
			<point x="828.3772635713" y="816"/>
			<point x="914.3772635713" y="762"/>
			<point x="946.3772635713" y="642" type="curve"/>
			<point x="946.3772635713" y="642"/>
			<point x="946.3772635713" y="642"/>
			<point x="946.3772635713" y="642" type="curve"/>
			<point x="916.3772635713" y="517"/>
			<point x="885.3772635713" y="392"/>
			<point x="854.3772635713" y="266" type="curve" smooth="yes"/>
			<point x="846.3772635713" y="236"/>
			<point x="846.3772635713" y="232"/>
			<point x="810.3772635713" y="192" type="curve" smooth="yes"/>
			<point x="736.3772635713" y="108"/>
			<point x="632.3772635713" y="46"/>
		</contour>
	</outline>
</glyph>
<glyph name="e" format="2">
	<unicode hex="0065"/>
	<advance width="1354"/>
	<outline>
		<contour>
			<point x="128" y="370" type="curve" smooth="yes"/>
			<point x="128" y="188"/>
			<point x="246" y="-22"/>
			<point x="550" y="-22" type="curve" smooth="yes"/>
			<point x="588" y="-22"/>
			<point x="748" y="-22"/>
			<point x="882" y="30" type="curve" smooth="yes"/>
			<point x="1016" y="82"/>
			<point x="1096" y="174"/>
			<point x="1096" y="196" type="curve" smooth="yes"/>
			<point x="1096" y="212"/>
			<point x="1070" y="242"/>
			<point x="1052" y="242" type="curve" smooth="yes"/>
			<point x="1042" y="242"/>
			<point x="1040" y="240"/>
			<point x="1008" y="208" type="curve"/>
			<point x="910" y="98"/>
			<point x="732" y="46"/>
			<point x="552" y="46" type="curve" smooth="yes"/>
			<point x="388" y="46"/>
			<point x="310" y="148"/>
			<point x="310" y="298" type="curve" smooth="yes"/>
			<point x="310" y="318"/>
			<point x="310" y="370"/>
			<point x="330" y="450" type="curve"/>
			<point x="378" y="450"/>
			<point x="426" y="450"/>
			<point x="474" y="450" type="curve" smooth="yes"/>
			<point x="577" y="450"/>
			<point x="721" y="456"/>
			<point x="837" y="493" type="curve" smooth="yes"/>
			<point x="949" y="528"/>
			<point x="1034" y="591"/>
			<point x="1034" y="704" type="curve" smooth="yes"/>
			<point x="1034" y="806"/>
			<point x="930" y="884"/>
			<point x="746" y="884" type="curve" smooth="yes"/>
			<point x="474" y="884"/>
			<point x="128" y="702"/>
		</contour>
		<contour>
			<point x="348" y="518" type="curve"/>
			<point x="438" y="796"/>
			<point x="684" y="816"/>
			<point x="744" y="816" type="curve" smooth="yes"/>
			<point x="844" y="816"/>
			<point x="932" y="776"/>
			<point x="932" y="702" type="curve" smooth="yes"/>
			<point x="932" y="518"/>
			<point x="558" y="518"/>
			<point x="464" y="518" type="curve" smooth="yes"/>
			<point x="426" y="518"/>
			<point x="387" y="518"/>
		</contour>
	</outline>
</glyph>
<glyph name="f" format="2">
	<unicode hex="0066"/>
	<advance width="684"/>
	<outline>
		<contour>
			<point x="513.1886317856" y="386" type="curve"/>
			<point x="635.1886317856" y="386" type="line" smooth="yes"/>
			<point x="655.1886317856" y="386"/>
			<point x="657.1886317856" y="397"/>
			<point x="659.1886317856" y="407" type="curve" smooth="yes"/>
			<point x="663.1886317856" y="430"/>
			<point x="650.1886317856" y="431"/>
			<point x="628.1886317856" y="431" type="curve" smooth="yes"/>
			<point x="521.1886317856" y="431" type="line"/>
			<point x="525.9886317856" y="460.6"/>
			<point x="532.0686317856" y="498.68"/>
			<point x="538.4686317856" y="534.68" type="curve" smooth="yes"/>
			<point x="548.0686317856" y="588.68"/>
			<point x="558.3886317856" y="638"/>
			<point x="566.1886317856" y="647" type="curve" smooth="yes"/>
			<point x="581.1886317856" y="663"/>
			<point x="597.1886317856" y="671"/>
			<point x="614.1886317856" y="671" type="curve" smooth="yes"/>
			<point x="620.1886317856" y="671"/>
			<point x="642.1886317856" y="671"/>
			<point x="663.1886317856" y="660" type="curve"/>
			<point x="623.1886317856" y="643"/>
			<point x="623.1886317856" y="607"/>
			<point x="623.1886317856" y="603" type="curve" smooth="yes"/>
			<point x="623.1886317856" y="578"/>
			<point x="642.1886317856" y="562"/>
			<point x="667.1886317856" y="562" type="curve" smooth="yes"/>
			<point x="693.1886317856" y="562"/>
			<point x="729.1886317856" y="584"/>
			<point x="729.1886317856" y="628" type="curve" smooth="yes"/>
			<point x="729.1886317856" y="686"/>
			<point x="663.1886317856" y="705"/>
			<point x="615.1886317856" y="705" type="curve" smooth="yes"/>
			<point x="488.1886317856" y="705"/>
			<point x="463.1886317856" y="584"/>
			<point x="454.1886317856" y="541" type="curve" smooth="yes"/>
			<point x="445.1886317856" y="498"/>
			<point x="451.1886317856" y="525"/>
			<point x="434.1886317856" y="431" type="curve"/>
			<point x="343.1886317856" y="431" type="line" smooth="yes"/>
			<point x="324.1886317856" y="431"/>
			<point x="308.1886317856" y="431"/>
			<point x="308.1886317856" y="403" type="curve" smooth="yes"/>
			<point x="308.1886317856" y="386"/>
			<point x="323.1886317856" y="386"/>
			<point x="340.1886317856" y="386" type="curve" smooth="yes"/>
			<point x="427.1886317856" y="386" type="line"/>
			<point x="418.4359017856" y="340.85434"/>
			<point x="404.8021842609" y="257.509647198"/>
			<point x="389.9046708355" y="170.3781229895" type="curve" smooth="yes"/>
			<point x="372.4633876702" y="68.3687780108"/>
			<point x="353.2898717856" y="-38.83102"/>
			<point x="338.1886317856" y="-96" type="curve" smooth="yes"/>
			<point x="332.1886317856" y="-120"/>
			<point x="308.1886317856" y="-171"/>
			<point x="269.1886317856" y="-171" type="curve" smooth="yes"/>
			<point x="263.1886317856" y="-171"/>
			<point x="241.1886317856" y="-170"/>
			<point x="223.1886317856" y="-161" type="curve"/>
			<point x="250.1886317856" y="-149"/>
			<point x="263.1886317856" y="-124"/>
			<point x="263.1886317856" y="-103" type="curve" smooth="yes"/>
			<point x="263.1886317856" y="-78"/>
			<point x="244.1886317856" y="-62"/>
			<point x="219.1886317856" y="-62" type="curve" smooth="yes"/>
			<point x="193.1886317856" y="-62"/>
			<point x="157.1886317856" y="-84"/>
			<point x="157.1886317856" y="-128" type="curve" smooth="yes"/>
			<point x="157.1886317856" y="-189"/>
			<point x="229.1886317856" y="-205"/>
			<point x="268.1886317856" y="-205" type="curve" smooth="yes"/>
			<point x="326.1886317856" y="-205"/>
			<point x="370.1886317856" y="-159"/>
			<point x="393.1886317856" y="-128" type="curve" smooth="yes"/>
			<point x="433.1886317856" y="-72"/>
			<point x="456.1886317856" y="61"/>
			<point x="457.1886317856" y="64" type="curve"/>
			<point x="475.8366317856" y="171.226"/>
			<point x="494.4846317856" y="278.452"/>
		</contour>
	</outline>
</glyph>
<glyph name="g" format="2">
	<unicode hex="0067"/>
	<advance width="700"/>
	<outline>
		<contour>
			<point x="102.1554266419" y="171" type="curve" smooth="yes"/>
			<point x="102.1554266419" y="66"/>
			<point x="182.1554266419" y="0"/>
			<point x="277.1554266419" y="0" type="curve" smooth="yes"/>
			<point x="341.1554266419" y="0"/>
			<point x="395.1554266419" y="35"/>
			<point x="418.1554266419" y="54" type="curve"/>
			<point x="418.1554266419" y="54" type="line"/>
			<point x="416.1554266419" y="44"/>
			<point x="398.1554266419" y="-24"/>
			<point x="394.1554266419" y="-41" type="curve" smooth="yes"/>
			<point x="385.1554266419" y="-77"/>
			<point x="378.1554266419" y="-107"/>
			<point x="332.1554266419" y="-139" type="curve" smooth="yes"/>
			<point x="285.1554266419" y="-171"/>
			<point x="241.1554266419" y="-171"/>
			<point x="212.1554266419" y="-171" type="curve" smooth="yes"/>
			<point x="204.1554266419" y="-171"/>
			<point x="131.1554266419" y="-170"/>
			<point x="131.1554266419" y="-164" type="curve"/>
			<point x="152.1554266419" y="-149"/>
			<point x="158.1554266419" y="-124"/>
			<point x="158.1554266419" y="-113" type="curve" smooth="yes"/>
			<point x="158.1554266419" y="-96"/>
			<point x="146.1554266419" y="-72"/>
			<point x="113.1554266419" y="-72" type="curve" smooth="yes"/>
			<point x="81.1554266419" y="-72"/>
			<point x="51.1554266419" y="-100"/>
			<point x="51.1554266419" y="-138" type="curve" smooth="yes"/>
			<point x="51.1554266419" y="-205"/>
			<point x="153.1554266419" y="-205"/>
			<point x="213.1554266419" y="-205" type="curve" smooth="yes"/>
			<point x="350.1554266419" y="-205"/>
			<point x="452.1554266419" y="-159"/>
			<point x="476.1554266419" y="-62" type="curve" smooth="yes"/>
			<point x="582.1554266419" y="364" type="line" smooth="yes"/>
			<point x="587.1554266419" y="382"/>
			<point x="587.1554266419" y="384"/>
			<point x="587.1554266419" y="387" type="curve" smooth="yes"/>
			<point x="587.1554266419" y="404"/>
			<point x="574.1554266419" y="422"/>
			<point x="550.1554266419" y="422" type="curve" smooth="yes"/>
			<point x="530.1554266419" y="422"/>
			<point x="508.1554266419" y="408"/>
			<point x="500.1554266419" y="383" type="curve"/>
			<point x="467.1554266419" y="427"/>
			<point x="424.1554266419" y="442"/>
			<point x="380.1554266419" y="442" type="curve" smooth="yes"/>
			<point x="243.1554266419" y="442"/>
			<point x="102.1554266419" y="312"/>
		</contour>
		<contour>
			<point x="440.1554266419" y="142" type="line" smooth="yes"/>
			<point x="436.1554266419" y="126"/>
			<point x="435.1554266419" y="122"/>
			<point x="416.1554266419" y="102" type="curve" smooth="yes"/>
			<point x="379.1554266419" y="65"/>
			<point x="333.1554266419" y="34"/>
			<point x="281.1554266419" y="34" type="curve" smooth="yes"/>
			<point x="242.1554266419" y="34"/>
			<point x="192.1554266419" y="55"/>
			<point x="192.1554266419" y="134" type="curve" smooth="yes"/>
			<point x="192.1554266419" y="173"/>
			<point x="210.1554266419" y="268"/>
			<point x="248.1554266419" y="326" type="curve" smooth="yes"/>
			<point x="275.1554266419" y="370"/>
			<point x="327.1554266419" y="408"/>
			<point x="380.1554266419" y="408" type="curve" smooth="yes"/>
			<point x="463.1554266419" y="408"/>
			<point x="484.1554266419" y="330"/>
			<point x="484.1554266419" y="321" type="curve" smooth="yes"/>
			<point x="484.1554266419" y="319"/>
			<point x="483.1554266419" y="312"/>
			<point x="481.1554266419" y="306" type="curve"/>
		</contour>
	</outline>
</glyph>
<glyph name="h" format="2">
  <advance width="827"/>
  <unicode hex="0068"/>
  <outline>
    <contour>
      <point x="514.1886317856258" y="442.0" type="curve" smooth="yes"/>
      <point x="415.18863178562583" y="442.0"/>
      <point x="357.18863178562583" y="379.0"/>
      <point x="327.18863178562583" y="346.0" type="curve"/>
      <point x="405.18863178562583" y="656.0" type="line" smooth="yes"/>
      <point x="409.18863178562583" y="670.0"/>
      <point x="409.18863178562583" y="672.0"/>
      <point x="409.18863178562583" y="677.0" type="curve" smooth="yes"/>
      <point x="409.18863178562583" y="694.0"/>
      <point x="394.18863178562583" y="694.0"/>
      <point x="378.18863178562583" y="693.0" type="curve" smooth="yes"/>
      <point x="333.2336317856258" y="689.67"/>
      <point x="288.27863178562586" y="686.34"/>
      <point x="243.18863178562583" y="683.0" type="curve" smooth="yes"/>
      <point x="230.18863178562583" y="682.0"/>
      <point x="228.18863178562583" y="674.0"/>
      <point x="225.18863178562583" y="662.0" type="curve" smooth="yes"/>
      <point x="219.18863178562583" y="639.0"/>
      <point x="237.18863178562583" y="639.0"/>
      <point x="254.18863178562583" y="638.0" type="curve" smooth="yes"/>
      <point x="275.18863178562583" y="637.0"/>
      <point x="308.18863178562583" y="638.0"/>
      <point x="308.18863178562583" y="626.0" type="curve" smooth="yes"/>
      <point x="308.18863178562583" y="621.0"/>
      <point x="307.18863178562583" y="615.0"/>
      <point x="303.18863178562583" y="600.0" type="curve" smooth="yes"/>
      <point x="165.18863178562583" y="48.0" type="line" smooth="yes"/>
      <point x="161.18863178562583" y="33.0"/>
      <point x="161.18863178562583" y="31.0"/>
      <point x="161.18863178562583" y="25.0" type="curve" smooth="yes"/>
      <point x="161.18863178562583" y="2.0"/>
      <point x="179.18863178562583" y="-11.0"/>
      <point x="199.18863178562583" y="-11.0" type="curve" smooth="yes"/>
      <point x="219.18863178562583" y="-11.0"/>
      <point x="241.18863178562583" y="4.0"/>
      <point x="247.18863178562583" y="28.0" type="curve" smooth="yes"/>
      <point x="249.36363178562584" y="35.25"/>
      <point x="251.01300678562583" y="44.6025"/>
      <point x="265.0934130356259" y="99.881484375" type="curve" smooth="yes"/>
      <point x="270.43425678562585" y="120.849375"/>
      <point x="277.56363178562583" y="148.425"/>
      <point x="287.18863178562583" y="185.0" type="curve" smooth="yes"/>
      <point x="302.18863178562583" y="245.0"/>
      <point x="302.18863178562583" y="247.0"/>
      <point x="330.18863178562583" y="290.0" type="curve" smooth="yes"/>
      <point x="371.18863178562583" y="352.0"/>
      <point x="430.18863178562583" y="408.0"/>
      <point x="509.18863178562583" y="408.0" type="curve" smooth="yes"/>
      <point x="560.1886317856258" y="408.0"/>
      <point x="579.1886317856258" y="379.0"/>
      <point x="579.1886317856258" y="336.0" type="curve" smooth="yes"/>
      <point x="579.1886317856258" y="280.0"/>
      <point x="536.1886317856258" y="173.0"/>
      <point x="522.1886317856258" y="138.0" type="curve" smooth="yes"/>
      <point x="507.18863178562583" y="102.0"/>
      <point x="504.18863178562583" y="94.0"/>
      <point x="504.18863178562583" y="77.0" type="curve" smooth="yes"/>
      <point x="504.18863178562583" y="25.0"/>
      <point x="554.1886317856258" y="-11.0"/>
      <point x="613.1886317856258" y="-11.0" type="curve" smooth="yes"/>
      <point x="719.1886317856258" y="-11.0"/>
      <point x="774.1886317856258" y="119.0"/>
      <point x="774.1886317856258" y="144.0" type="curve" smooth="yes"/>
      <point x="774.1886317856258" y="158.0"/>
      <point x="757.1886317856258" y="158.0"/>
      <point x="753.1886317856258" y="158.0" type="curve" smooth="yes"/>
      <point x="736.1886317856258" y="158.0"/>
      <point x="735.1886317856258" y="154.0"/>
      <point x="729.1886317856258" y="135.0" type="curve" smooth="yes"/>
      <point x="712.1886317856258" y="80.0"/>
      <point x="667.1886317856258" y="23.0"/>
      <point x="617.1886317856258" y="23.0" type="curve" smooth="yes"/>
      <point x="594.1886317856258" y="23.0"/>
      <point x="587.1886317856258" y="39.0"/>
      <point x="587.1886317856258" y="61.0" type="curve" smooth="yes"/>
      <point x="587.1886317856258" y="81.0"/>
      <point x="599.1886317856258" y="110.0"/>
      <point x="608.1886317856258" y="134.0" type="curve" smooth="yes"/>
      <point x="619.1886317856258" y="161.0"/>
      <point x="663.1886317856258" y="270.0"/>
      <point x="663.1886317856258" y="323.0" type="curve" smooth="yes"/>
      <point x="663.1886317856258" y="392.0"/>
      <point x="616.1886317856258" y="442.0"/>
    </contour>
  </outline>
</glyph>
<glyph name="i" format="2">
	<unicode hex="0069"/>
	<advance width="1066"/>
	<outline>
		<contour>
			<point x="758.3772635713" y="1248" type="curve" smooth="yes"/>
			<point x="758.3772635713" y="1296"/>
			<point x="722.3772635713" y="1334"/>
			<point x="670.3772635713" y="1334" type="curve" smooth="yes"/>
			<point x="614.3772635713" y="1334"/>
			<point x="548.3772635713" y="1280"/>
			<point x="548.3772635713" y="1214" type="curve" smooth="yes"/>
			<point x="548.3772635713" y="1158"/>
			<point x="592.3772635713" y="1128"/>
			<point x="634.3772635713" y="1128" type="curve" smooth="yes"/>
			<point x="700.3772635713" y="1128"/>
			<point x="758.3772635713" y="1188"/>
		</contour>
		<contour>
			<point x="312.3772635713" y="154" type="curve" smooth="yes"/>
			<point x="312.3772635713" y="50"/>
			<point x="410.3772635713" y="-22"/>
			<point x="530.3772635713" y="-22" type="curve" smooth="yes"/>
			<point x="740.3772635713" y="-22"/>
			<point x="852.3772635713" y="238"/>
			<point x="852.3772635713" y="288" type="curve" smooth="yes"/>
			<point x="852.3772635713" y="316"/>
			<point x="818.3772635713" y="316"/>
			<point x="810.3772635713" y="316" type="curve" smooth="yes"/>
			<point x="776.3772635713" y="316"/>
			<point x="774.3772635713" y="308"/>
			<point x="762.3772635713" y="270" type="curve" smooth="yes"/>
			<point x="728.3772635713" y="160"/>
			<point x="638.3772635713" y="46"/>
			<point x="538.3772635713" y="46" type="curve" smooth="yes"/>
			<point x="492.3772635713" y="46"/>
			<point x="478.3772635713" y="78"/>
			<point x="478.3772635713" y="122" type="curve" smooth="yes"/>
			<point x="478.3772635713" y="152"/>
			<point x="488.3772635713" y="186"/>
			<point x="504.3772635713" y="224" type="curve" smooth="yes"/>
			<point x="530.3772635713" y="290"/>
			<point x="590.3772635713" y="427"/>
			<point x="660.3772635713" y="608" type="curve" smooth="yes"/>
			<point x="676.3772635713" y="648"/>
			<point x="688.3772635713" y="674"/>
			<point x="688.3772635713" y="708" type="curve" smooth="yes"/>
			<point x="688.3772635713" y="804"/>
			<point x="596.3772635713" y="884"/>
			<point x="470.3772635713" y="884" type="curve" smooth="yes"/>
			<point x="260.3772635713" y="884"/>
			<point x="148.3772635713" y="628"/>
			<point x="148.3772635713" y="574" type="curve" smooth="yes"/>
			<point x="148.3772635713" y="546"/>
			<point x="180.3772635713" y="546"/>
			<point x="190.3772635713" y="546" type="curve" smooth="yes"/>
			<point x="224.3772635713" y="546"/>
			<point x="226.3772635713" y="556"/>
			<point x="236.3772635713" y="586" type="curve" smooth="yes"/>
			<point x="280.3772635713" y="728"/>
			<point x="376.3772635713" y="816"/>
			<point x="462.3772635713" y="816" type="curve" smooth="yes"/>
			<point x="500.3772635713" y="816"/>
			<point x="522.3772635713" y="794"/>
			<point x="522.3772635713" y="740" type="curve" smooth="yes"/>
			<point x="522.3772635713" y="732"/>
			<point x="522.3772635713" y="706"/>
			<point x="510.3772635713" y="668" type="curve"/>
			<point x="490.3772635713" y="614"/>
			<point x="424.3772635713" y="448"/>
			<point x="334.3772635713" y="244" type="curve"/>
			<point x="324.3772635713" y="216"/>
			<point x="312.3772635713" y="188"/>
		</contour>
	</outline>
</glyph>
<glyph name="j" format="2">
	<unicode hex="006A"/>
	<advance width="588"/>
	<outline>
		<contour>
			<point x="462.1554266419" y="624" type="curve" smooth="yes"/>
			<point x="462.1554266419" y="647"/>
			<point x="445.1554266419" y="667"/>
			<point x="418.1554266419" y="667" type="curve" smooth="yes"/>
			<point x="387.1554266419" y="667"/>
			<point x="356.1554266419" y="637"/>
			<point x="356.1554266419" y="607" type="curve" smooth="yes"/>
			<point x="356.1554266419" y="583"/>
			<point x="375.1554266419" y="564"/>
			<point x="400.1554266419" y="564" type="curve" smooth="yes"/>
			<point x="434.1554266419" y="564"/>
			<point x="462.1554266419" y="596"/>
		</contour>
		<contour>
			<point x="244.1554266419" y="-45" type="line" smooth="yes"/>
			<point x="225.1554266419" y="-121"/>
			<point x="162.1554266419" y="-171"/>
			<point x="101.1554266419" y="-171" type="curve" smooth="yes"/>
			<point x="84.1554266419" y="-171"/>
			<point x="73.1554266419" y="-168"/>
			<point x="65.1554266419" y="-166" type="curve"/>
			<point x="89.1554266419" y="-152"/>
			<point x="96.1554266419" y="-126"/>
			<point x="96.1554266419" y="-113" type="curve" smooth="yes"/>
			<point x="96.1554266419" y="-96"/>
			<point x="84.1554266419" y="-72"/>
			<point x="51.1554266419" y="-72" type="curve" smooth="yes"/>
			<point x="17.1554266419" y="-72"/>
			<point x="-10.8445733581" y="-103"/>
			<point x="-10.8445733581" y="-136" type="curve" smooth="yes"/>
			<point x="-10.8445733581" y="-179"/>
			<point x="34.1554266419" y="-205"/>
			<point x="102.1554266419" y="-205" type="curve" smooth="yes"/>
			<point x="170.1554266419" y="-205"/>
			<point x="300.1554266419" y="-170"/>
			<point x="331.1554266419" y="-46" type="curve" smooth="yes"/>
			<point x="421.1554266419" y="312" type="line" smooth="yes"/>
			<point x="423.1554266419" y="322"/>
			<point x="426.1554266419" y="331"/>
			<point x="426.1554266419" y="345" type="curve" smooth="yes"/>
			<point x="426.1554266419" y="402"/>
			<point x="373.1554266419" y="442"/>
			<point x="303.1554266419" y="442" type="curve" smooth="yes"/>
			<point x="182.1554266419" y="442"/>
			<point x="108.1554266419" y="307"/>
			<point x="108.1554266419" y="287" type="curve" smooth="yes"/>
			<point x="108.1554266419" y="273"/>
			<point x="124.1554266419" y="273"/>
			<point x="129.1554266419" y="273" type="curve" smooth="yes"/>
			<point x="144.1554266419" y="273"/>
			<point x="146.1554266419" y="277"/>
			<point x="151.1554266419" y="287" type="curve" smooth="yes"/>
			<point x="197.1554266419" y="385"/>
			<point x="265.1554266419" y="408"/>
			<point x="299.1554266419" y="408" type="curve" smooth="yes"/>
			<point x="339.1554266419" y="408"/>
			<point x="341.1554266419" y="372"/>
			<point x="341.1554266419" y="355" type="curve" smooth="yes"/>
			<point x="341.1554266419" y="341"/>
			<point x="340.1554266419" y="337"/>
			<point x="338.1554266419" y="329" type="curve" smooth="yes"/>
		</contour>
	</outline>
</glyph>
<glyph name="k" format="2">
	<unicode hex="006B"/>
	<advance width="1516"/>
	<outline>
		<contour>
			<point x="1018.3772635713" y="-22" type="curve" smooth="yes"/>
			<point x="1105.3772635713" y="-22"/>
			<point x="1169.3772635713" y="29"/>
			<point x="1214.3772635713" y="90" type="curve" smooth="yes"/>
			<point x="1276.3772635713" y="173"/>
			<point x="1302.3772635713" y="274"/>
			<point x="1302.3772635713" y="288" type="curve" smooth="yes"/>
			<point x="1302.3772635713" y="316"/>
			<point x="1268.3772635713" y="316"/>
			<point x="1260.3772635713" y="316" type="curve" smooth="yes"/>
			<point x="1226.3772635713" y="316"/>
			<point x="1222.3772635713" y="306"/>
			<point x="1212.3772635713" y="270" type="curve" smooth="yes"/>
			<point x="1192.3772635713" y="200"/>
			<point x="1134.3772635713" y="46"/>
			<point x="1026.3772635713" y="46" type="curve" smooth="yes"/>
			<point x="952.3772635713" y="46"/>
			<point x="942.3772635713" y="120"/>
			<point x="942.3772635713" y="164" type="curve" smooth="yes"/>
			<point x="942.3772635713" y="166"/>
			<point x="942.3772635713" y="194"/>
			<point x="950.3772635713" y="228" type="curve" smooth="yes"/>
			<point x="958.3772635713" y="260"/>
			<point x="960.3772635713" y="280"/>
			<point x="960.3772635713" y="296" type="curve" smooth="yes"/>
			<point x="960.3772635713" y="472"/>
			<point x="740.3772635713" y="502"/>
			<point x="608.3772635713" y="512" type="curve"/>
			<point x="664.3772635713" y="544"/>
			<point x="748.3772635713" y="612"/>
			<point x="780.3772635713" y="640" type="curve"/>
			<point x="894.3772635713" y="730"/>
			<point x="1004.3772635713" y="816"/>
			<point x="1118.3772635713" y="816" type="curve" smooth="yes"/>
			<point x="1164.3772635713" y="816"/>
			<point x="1176.3772635713" y="804"/>
			<point x="1188.3772635713" y="792" type="curve"/>
			<point x="1162.3772635713" y="788"/>
			<point x="1080.3772635713" y="752"/>
			<point x="1080.3772635713" y="666" type="curve" smooth="yes"/>
			<point x="1080.3772635713" y="632"/>
			<point x="1104.3772635713" y="584"/>
			<point x="1170.3772635713" y="584" type="curve" smooth="yes"/>
			<point x="1210.3772635713" y="584"/>
			<point x="1294.3772635713" y="616"/>
			<point x="1294.3772635713" y="726" type="curve" smooth="yes"/>
			<point x="1294.3772635713" y="824"/>
			<point x="1218.3772635713" y="884"/>
			<point x="1122.3772635713" y="884" type="curve" smooth="yes"/>
			<point x="986.3772635713" y="884"/>
			<point x="870.3772635713" y="792"/>
			<point x="724.3772635713" y="674" type="curve" smooth="yes"/>
			<point x="654.3772635713" y="618"/>
			<point x="588.3772635713" y="568"/>
			<point x="508.3772635713" y="536" type="curve"/>
			<point x="702.3772635713" y="1312" type="line" smooth="yes"/>
			<point x="708.3772635713" y="1332"/>
			<point x="710.3772635713" y="1344"/>
			<point x="710.3772635713" y="1354" type="curve" smooth="yes"/>
			<point x="710.3772635713" y="1388"/>
			<point x="680.3772635713" y="1388"/>
			<point x="648.3772635713" y="1386" type="curve" smooth="yes"/>
			<point x="563.3772635713" y="1380"/>
			<point x="478.3772635713" y="1374"/>
			<point x="392.3772635713" y="1368" type="curve" smooth="yes"/>
			<point x="348.3772635713" y="1364"/>
			<point x="348.3772635713" y="1350"/>
			<point x="342.3772635713" y="1324" type="curve" smooth="yes"/>
			<point x="332.3772635713" y="1280"/>
			<point x="366.3772635713" y="1276"/>
			<point x="400.3772635713" y="1276" type="curve" smooth="yes"/>
			<point x="464.3772635713" y="1276"/>
			<point x="508.3772635713" y="1272"/>
			<point x="508.3772635713" y="1252" type="curve" smooth="yes"/>
			<point x="508.3772635713" y="1242"/>
			<point x="504.3772635713" y="1224"/>
			<point x="498.3772635713" y="1200" type="curve" smooth="yes"/>
			<point x="222.3772635713" y="96" type="line" smooth="yes"/>
			<point x="214.3772635713" y="66"/>
			<point x="214.3772635713" y="62"/>
			<point x="214.3772635713" y="50" type="curve" smooth="yes"/>
			<point x="214.3772635713" y="4"/>
			<point x="250.3772635713" y="-22"/>
			<point x="290.3772635713" y="-22" type="curve" smooth="yes"/>
			<point x="368.3772635713" y="-22"/>
			<point x="386.3772635713" y="52"/>
			<point x="394.3772635713" y="80" type="curve" smooth="yes"/>
			<point x="424.3772635713" y="203"/>
			<point x="454.3772635713" y="325"/>
			<point x="484.3772635713" y="448" type="curve"/>
			<point x="536.3772635713" y="446"/>
			<point x="786.3772635713" y="432"/>
			<point x="786.3772635713" y="290" type="curve" smooth="yes"/>
			<point x="786.3772635713" y="276"/>
			<point x="786.3772635713" y="268"/>
			<point x="780.3772635713" y="244" type="curve" smooth="yes"/>
			<point x="774.3772635713" y="216"/>
			<point x="774.3772635713" y="204"/>
			<point x="774.3772635713" y="192" type="curve" smooth="yes"/>
			<point x="774.3772635713" y="50"/>
			<point x="902.3772635713" y="-22"/>
		</contour>
	</outline>
</glyph>
<glyph name="l" format="2">
	<unicode hex="006C"/>
	<advance width="480"/>
	<outline>
		<contour>
			<point x="232.1886317856" y="108" type="curve" smooth="yes"/>
			<point x="370.1886317856" y="656" type="line" smooth="yes"/>
			<point x="374.1886317856" y="670"/>
			<point x="374.1886317856" y="672"/>
			<point x="374.1886317856" y="677" type="curve" smooth="yes"/>
			<point x="374.1886317856" y="694"/>
			<point x="359.1886317856" y="694"/>
			<point x="343.1886317856" y="693" type="curve" smooth="yes"/>
			<point x="298.8996317856" y="689.67"/>
			<point x="254.6106317856" y="686.34"/>
			<point x="210.1886317856" y="683" type="curve" smooth="yes"/>
			<point x="194.1886317856" y="682"/>
			<point x="192.1886317856" y="672"/>
			<point x="190.1886317856" y="662" type="curve" smooth="yes"/>
			<point x="185.1886317856" y="637"/>
			<point x="205.1886317856" y="638"/>
			<point x="219.1886317856" y="638" type="curve" smooth="yes"/>
			<point x="254.1886317856" y="638"/>
			<point x="262.1886317856" y="635"/>
			<point x="273.1886317856" y="631" type="curve"/>
			<point x="273.1886317856" y="623"/>
			<point x="272.1886317856" y="612"/>
			<point x="269.1886317856" y="600" type="curve" smooth="yes"/>
			<point x="148.1886317856" y="120" type="line" smooth="yes"/>
			<point x="145.1886317856" y="109"/>
			<point x="143.1886317856" y="100"/>
			<point x="143.1886317856" y="86" type="curve" smooth="yes"/>
			<point x="143.1886317856" y="26"/>
			<point x="202.1886317856" y="-11"/>
			<point x="264.1886317856" y="-11" type="curve" smooth="yes"/>
			<point x="297.1886317856" y="-11"/>
			<point x="324.1886317856" y="4"/>
			<point x="348.1886317856" y="37" type="curve" smooth="yes"/>
			<point x="377.1886317856" y="78"/>
			<point x="392.1886317856" y="138"/>
			<point x="392.1886317856" y="144" type="curve" smooth="yes"/>
			<point x="392.1886317856" y="158"/>
			<point x="375.1886317856" y="158"/>
			<point x="371.1886317856" y="158" type="curve" smooth="yes"/>
			<point x="353.1886317856" y="158"/>
			<point x="352.1886317856" y="152"/>
			<point x="347.1886317856" y="136" type="curve"/>
			<point x="331.1886317856" y="71"/>
			<point x="307.1886317856" y="23"/>
			<point x="268.1886317856" y="23" type="curve" smooth="yes"/>
			<point x="240.1886317856" y="23"/>
			<point x="228.1886317856" y="45"/>
			<point x="228.1886317856" y="76" type="curve" smooth="yes"/>
			<point x="228.1886317856" y="87"/>
			<point x="229.1886317856" y="98"/>
		</contour>
	</outline>
</glyph>
<glyph name="m" format="2">
	<unicode hex="006D"/>
	<advance width="1228"/>
	<outline>
		<contour>
			<point x="167.1554266419" y="-11" type="curve" smooth="yes"/>
			<point x="182.1554266419" y="-11"/>
			<point x="204.1554266419" y="-3"/>
			<point x="215.1554266419" y="22" type="curve"/>
			<point x="216.1554266419" y="27"/>
			<point x="228.1554266419" y="74"/>
			<point x="234.1554266419" y="100" type="curve" smooth="yes"/>
			<point x="247.1554266419" y="151"/>
			<point x="260.1554266419" y="201"/>
			<point x="268.1554266419" y="236" type="curve"/>
			<point x="270.1554266419" y="240"/>
			<point x="306.1554266419" y="313"/>
			<point x="355.1554266419" y="356" type="curve" smooth="yes"/>
			<point x="371.1554266419" y="370"/>
			<point x="413.1554266419" y="408"/>
			<point x="478.1554266419" y="408" type="curve" smooth="yes"/>
			<point x="529.1554266419" y="408"/>
			<point x="548.1554266419" y="379"/>
			<point x="548.1554266419" y="336" type="curve" smooth="yes"/>
			<point x="548.1554266419" y="314"/>
			<point x="538.1554266419" y="274"/>
			<point x="530.1554266419" y="243" type="curve" smooth="yes"/>
			<point x="517.1684266419" y="191.052"/>
			<point x="504.1814266419" y="139.104"/>
			<point x="491.1554266419" y="87" type="curve" smooth="yes"/>
			<point x="486.1554266419" y="66"/>
			<point x="477.1554266419" y="31"/>
			<point x="477.1554266419" y="24" type="curve" smooth="yes"/>
			<point x="477.1554266419" y="2"/>
			<point x="495.1554266419" y="-11"/>
			<point x="514.1554266419" y="-11" type="curve" smooth="yes"/>
			<point x="529.1554266419" y="-11"/>
			<point x="551.1554266419" y="-3"/>
			<point x="562.1554266419" y="22" type="curve"/>
			<point x="563.1554266419" y="27"/>
			<point x="575.1554266419" y="74"/>
			<point x="581.1554266419" y="100" type="curve" smooth="yes"/>
			<point x="615.1554266419" y="235"/>
			<point x="615.1554266419" y="237"/>
			<point x="617.1554266419" y="241" type="curve" smooth="yes"/>
			<point x="623.6239666419" y="254.43466"/>
			<point x="644.7000721695" y="295.8465217732"/>
			<point x="679.2749992909" y="334.0675614014" type="curve" smooth="yes"/>
			<point x="714.1862394619" y="372.660380104"/>
			<point x="762.8601866419" y="408"/>
			<point x="824.1554266419" y="408" type="curve" smooth="yes"/>
			<point x="873.1554266419" y="408"/>
			<point x="894.1554266419" y="381"/>
			<point x="894.1554266419" y="336" type="curve" smooth="yes"/>
			<point x="894.1554266419" y="279"/>
			<point x="852.1554266419" y="176"/>
			<point x="829.1554266419" y="119" type="curve" smooth="yes"/>
			<point x="824.1554266419" y="107"/>
			<point x="819.1554266419" y="94"/>
			<point x="819.1554266419" y="77" type="curve" smooth="yes"/>
			<point x="819.1554266419" y="25"/>
			<point x="869.1554266419" y="-11"/>
			<point x="928.1554266419" y="-11" type="curve" smooth="yes"/>
			<point x="1035.1554266419" y="-11"/>
			<point x="1090.1554266419" y="119"/>
			<point x="1090.1554266419" y="144" type="curve" smooth="yes"/>
			<point x="1090.1554266419" y="158"/>
			<point x="1073.1554266419" y="158"/>
			<point x="1069.1554266419" y="158" type="curve" smooth="yes"/>
			<point x="1052.1554266419" y="158"/>
			<point x="1051.1554266419" y="154"/>
			<point x="1045.1554266419" y="135" type="curve" smooth="yes"/>
			<point x="1026.1554266419" y="75"/>
			<point x="980.1554266419" y="23"/>
			<point x="932.1554266419" y="23" type="curve" smooth="yes"/>
			<point x="909.1554266419" y="23"/>
			<point x="902.1554266419" y="39"/>
			<point x="902.1554266419" y="61" type="curve" smooth="yes"/>
			<point x="902.1554266419" y="82"/>
			<point x="906.1554266419" y="92"/>
			<point x="915.1554266419" y="114" type="curve" smooth="yes"/>
			<point x="932.1554266419" y="154"/>
			<point x="978.1554266419" y="268"/>
			<point x="978.1554266419" y="323" type="curve" smooth="yes"/>
			<point x="978.1554266419" y="397"/>
			<point x="925.1554266419" y="442"/>
			<point x="830.1554266419" y="442" type="curve" smooth="yes"/>
			<point x="737.1554266419" y="442"/>
			<point x="672.1554266419" y="385"/>
			<point x="632.1554266419" y="332" type="curve"/>
			<point x="623.1554266419" y="434"/>
			<point x="524.1554266419" y="442"/>
			<point x="483.1554266419" y="442" type="curve" smooth="yes"/>
			<point x="385.1554266419" y="442"/>
			<point x="329.1554266419" y="381"/>
			<point x="293.1554266419" y="343" type="curve"/>
			<point x="289.1554266419" y="431"/>
			<point x="197.1554266419" y="442"/>
			<point x="172.1554266419" y="442" type="curve" smooth="yes"/>
			<point x="130.2954266419" y="442"/>
			<point x="100.8764698019" y="415.19042812"/>
			<point x="80.817873474" y="383.8695587642" type="curve" smooth="yes"/>
			<point x="52.9581794819" y="340.36751996"/>
			<point x="43.1554266419" y="288.1628"/>
			<point x="43.1554266419" y="287" type="curve" smooth="yes"/>
			<point x="43.1554266419" y="273"/>
			<point x="59.1554266419" y="273"/>
			<point x="64.1554266419" y="273" type="curve" smooth="yes"/>
			<point x="81.1554266419" y="273"/>
			<point x="83.1554266419" y="279"/>
			<point x="87.1554266419" y="292" type="curve" smooth="yes"/>
			<point x="102.1554266419" y="350"/>
			<point x="125.1554266419" y="408"/>
			<point x="167.1554266419" y="408" type="curve" smooth="yes"/>
			<point x="201.1554266419" y="408"/>
			<point x="208.1554266419" y="376"/>
			<point x="208.1554266419" y="355" type="curve" smooth="yes"/>
			<point x="208.1554266419" y="341"/>
			<point x="198.1554266419" y="303"/>
			<point x="192.1554266419" y="277" type="curve" smooth="yes"/>
			<point x="185.1554266419" y="250"/>
			<point x="175.8003566419" y="208.84342"/>
			<point x="147.1554266419" y="98" type="curve" smooth="yes"/>
			<point x="141.1554266419" y="73"/>
			<point x="130.1554266419" y="29"/>
			<point x="130.1554266419" y="24" type="curve" smooth="yes"/>
			<point x="130.1554266419" y="2"/>
			<point x="148.1554266419" y="-11"/>
		</contour>
	</outline>
</glyph>
